<?xml version="1.0" encoding="UTF-8"?>
<!DOCTYPE svg PUBLIC "-//W3C//DTD SVG 1.1//EN" "http://www.w3.org/Graphics/SVG/1.1/DTD/svg11.dtd">
<!-- Creator: CorelDRAW 2017 -->
<svg xmlns="http://www.w3.org/2000/svg" xml:space="preserve" width="82px" height="82px" version="1.1" style="shape-rendering:geometricPrecision; text-rendering:geometricPrecision; image-rendering:optimizeQuality; fill-rule:evenodd; clip-rule:evenodd"
viewBox="0 0 82 82"
 xmlns:xlink="http://www.w3.org/1999/xlink">
 <defs>
  <style type="text/css">
   <![CDATA[
    .str0 {stroke:#205FAD;stroke-width:2;stroke-miterlimit:22.9256}
    .fil0 {fill:#205FAD}
    .fil2 {fill:white}
    .fil3 {fill:#205FAD;fill-rule:nonzero}
    .fil1 {fill:#FFE875;fill-rule:nonzero}
   ]]>
  </style>
 </defs>
 <g id="Слой_x0020_1">
  <metadata id="CorelCorpID_0Corel-Layer"/>
  <ellipse class="fil0" cx="38.693" cy="43.873" rx="37.693" ry="37.127"/>
  <path class="fil1" d="M36.355 46.985l0 1.597 -0.038 0c-0.043,0.141 -0.121,0.268 -0.225,0.37 -0.163,0.161 -0.386,0.26 -0.633,0.26 -0.247,0 -0.472,-0.099 -0.633,-0.259 -0.162,-0.161 -0.263,-0.381 -0.263,-0.624l0 -1.344c0,-0.244 0.1,-0.465 0.263,-0.624 0.163,-0.16 0.387,-0.259 0.633,-0.259 0.247,0 0.472,0.099 0.634,0.259 0.162,0.161 0.262,0.381 0.262,0.624zm10.997 9.178l-0.039 -0.461 -0.046 -0.828 -4.205 0.014 0.048 0.421c0.023,0.211 0.054,0.422 0.091,0.63 0.038,0.214 0.082,0.423 0.131,0.626 0.051,0.208 0.108,0.414 0.172,0.619 0.063,0.203 0.133,0.405 0.208,0.605 0.076,0.199 0.159,0.397 0.247,0.591 0.089,0.197 0.184,0.39 0.283,0.577 0.099,0.188 0.206,0.375 0.319,0.559 0.112,0.184 0.23,0.364 0.353,0.539l0.196 0.28 0.552 -0.285 0.249 -0.12 0.253 -0.115 0.257 -0.111 0.268 -0.108 0.271 -0.104 0.278 -0.1 0.618 -0.206 -0.077 -0.336 -0.095 -0.437 -0.086 -0.442 -0.076 -0.45 -0.066 -0.445 -0.057 -0.455 -0.047 -0.458zm-1.382 -7.934l-0.244 -0.113 -0.537 -0.267 -0.193 0.268c-0.132,0.183 -0.258,0.37 -0.376,0.558 -0.118,0.188 -0.231,0.381 -0.338,0.578 -0.105,0.194 -0.205,0.394 -0.299,0.597 -0.092,0.201 -0.179,0.406 -0.258,0.613 -0.08,0.206 -0.153,0.415 -0.219,0.626 -0.064,0.205 -0.123,0.418 -0.176,0.638 -0.052,0.216 -0.098,0.433 -0.135,0.65 -0.038,0.218 -0.069,0.437 -0.092,0.656l-0.045 0.421 4.205 -0.013 0.042 -0.852 0.038 -0.481c0.013,-0.153 0.03,-0.315 0.049,-0.481l0.059 -0.481 0.07 -0.47 0.081 -0.47 0.091 -0.467 0.102 -0.464 0.08 -0.34 -0.611 -0.198 -0.265 -0.092 -0.264 -0.098 -0.26 -0.102 -0.255 -0.107 -0.25 -0.109zm3.135 -2.558l0.786 -1.381 -1.163 0.604 -0.284 0.153 -0.278 0.16 -0.271 0.169 -0.268 0.177 -0.265 0.188 -0.256 0.192 -0.252 0.203 -0.249 0.212 -0.447 0.392c0.745,0.329 1.353,0.579 2.127,0.83 0.143,-0.38 0.478,-1.333 0.69,-1.646 0.022,-0.032 0.069,-0.129 0.103,-0.198l0.027 -0.055zm-2.193 15.391c-0.283,0.125 -0.562,0.256 -0.842,0.386l0.425 0.384 0.266 0.233 0.271 0.223 0.278 0.212 0.284 0.204 0.29 0.194 0.295 0.183 0.301 0.172 0.307 0.164 1.168 0.597 -0.129 -0.219c-0.277,-0.47 -0.556,-0.941 -0.81,-1.424 -0.299,-0.603 -0.523,-1.18 -0.757,-1.809 -0.466,0.156 -0.895,0.308 -1.347,0.5zm3.445 -11.584l-0.36 -0.058 -0.716 -0.132 -0.083 0.36 -0.091 0.415 -0.08 0.412 -0.071 0.417 -0.062 0.425 -0.054 0.429 -0.044 0.428 -0.034 0.432 -0.026 0.431 -0.019 0.4 4.204 -0.012 -0.012 -3.704 -0.733 -0.041 -0.36 -0.027 -0.368 -0.035 -0.371 -0.041 -0.358 -0.046 -0.362 -0.053zm0.362 -3.699c-0.076,0.118 -0.152,0.247 -0.229,0.383 -0.075,0.132 -0.148,0.269 -0.22,0.411 -0.221,0.447 -0.398,0.887 -0.583,1.35l0.748 0.129c0.29,0.044 0.578,0.083 0.87,0.118 0.538,0.057 1.061,0.092 1.601,0.122l-0.014 -4.556 -0.592 0.369c-0.093,0.058 -0.187,0.124 -0.281,0.196 -0.093,0.07 -0.185,0.148 -0.277,0.231 -0.091,0.083 -0.182,0.172 -0.27,0.266 -0.09,0.095 -0.179,0.197 -0.266,0.303 -0.083,0.102 -0.167,0.211 -0.249,0.326 -0.079,0.11 -0.159,0.227 -0.238,0.352zm1.1 12.659l0.374 -0.031 0.743 -0.046 -0.01 -3.503 -4.205 0.013 0.048 0.808 0.034 0.404 0.044 0.411 0.05 0.398 0.058 0.395 0.067 0.395 0.075 0.395 0.164 0.751 0.731 -0.143 0.361 -0.061 0.362 -0.057 0.369 -0.049 0.366 -0.043 0.369 -0.037zm-0.018 5.321c0.091,0.082 0.185,0.159 0.28,0.231 0.092,0.07 0.186,0.134 0.28,0.192l0.594 0.366 -0.014 -4.756c-0.344,0.021 -0.685,0.044 -1.029,0.072 -0.299,0.029 -0.594,0.064 -0.893,0.102l-0.296 0.043c-0.354,0.058 -0.705,0.123 -1.058,0.188 0.205,0.528 0.398,1.024 0.651,1.53 0.073,0.143 0.147,0.279 0.221,0.408 0.073,0.127 0.151,0.255 0.232,0.381 0.078,0.12 0.158,0.238 0.241,0.352 0.081,0.112 0.165,0.22 0.25,0.322 0.089,0.108 0.179,0.209 0.267,0.302 0.09,0.094 0.182,0.184 0.274,0.267zm4.9 -15.665l0.301 -0.045 0.776 -0.133 -0.189 -0.441c-0.084,-0.199 -0.175,-0.395 -0.268,-0.584 -0.092,-0.187 -0.189,-0.368 -0.289,-0.544 -0.102,-0.177 -0.204,-0.344 -0.308,-0.5 -0.105,-0.158 -0.213,-0.309 -0.324,-0.453 -0.116,-0.151 -0.234,-0.291 -0.352,-0.419 -0.12,-0.131 -0.242,-0.252 -0.365,-0.363 -0.123,-0.111 -0.248,-0.213 -0.375,-0.305 -0.124,-0.09 -0.252,-0.172 -0.381,-0.244l-0.58 -0.324 0.014 4.554 0.734 -0.038 0.654 -0.05 0.319 -0.033 0.32 -0.036 0.313 -0.042zm-2.324 5.327l4.45 -0.013 -0.023 -0.401c-0.017,-0.299 -0.04,-0.588 -0.068,-0.867l-0.049 -0.424 -0.058 -0.424 -0.068 -0.418 -0.077 -0.412 -0.088 -0.419 -0.096 -0.409 -0.088 -0.355 -0.731 0.137 -0.378 0.061 -0.383 0.055 -0.382 0.047 -0.4 0.042 -0.401 0.036 -0.396 0.028 -0.775 0.038 0.011 3.698zm2.787 5.168l0.382 0.061 0.746 0.137 0.167 -0.747 0.075 -0.39 0.067 -0.393 0.059 -0.398 0.05 -0.403 0.042 -0.4 0.033 -0.404 0.045 -0.811 -4.448 0.013 0.009 3.5 0.779 0.034 0.403 0.026 0.405 0.034 0.406 0.041 0.392 0.047 0.388 0.053zm3.219 -11.443c0.275,-0.113 0.547,-0.23 0.82,-0.346l-0.448 -0.399 -0.238 -0.206 -0.247 -0.203 -0.246 -0.191 -0.25 -0.182 -0.256 -0.176 -0.26 -0.168 -0.254 -0.153 -0.263 -0.148 -1.226 -0.663 0.82 1.391 0.114 0.206 0.213 0.417 0.102 0.214 0.2 0.455 0.228 0.568c0.409,-0.131 0.793,-0.258 1.191,-0.416zm-0.103 6.257l3.961 -0.011 -0.048 -0.422c-0.024,-0.214 -0.056,-0.428 -0.093,-0.639 -0.039,-0.216 -0.084,-0.427 -0.134,-0.632 -0.051,-0.21 -0.109,-0.418 -0.174,-0.624 -0.064,-0.205 -0.135,-0.409 -0.213,-0.611 -0.077,-0.201 -0.161,-0.401 -0.251,-0.597 -0.09,-0.198 -0.187,-0.392 -0.289,-0.581 -0.103,-0.192 -0.212,-0.381 -0.326,-0.566 -0.116,-0.186 -0.236,-0.368 -0.362,-0.544l-0.19 -0.27 -0.522 0.252 -0.233 0.105 -0.474 0.201 -0.482 0.183 -0.239 0.084 -0.586 0.19 0.086 0.345 0.106 0.45 0.095 0.454 0.085 0.463 0.074 0.471 0.064 0.48 0.053 0.483 0.042 0.489 0.05 0.847zm1.267 6.418l0.233 0.106 0.535 0.261 0.19 -0.281c0.117,-0.174 0.23,-0.351 0.335,-0.531 0.108,-0.182 0.209,-0.366 0.302,-0.548 0.093,-0.182 0.182,-0.371 0.266,-0.564 0.084,-0.193 0.161,-0.387 0.231,-0.58 0.07,-0.193 0.135,-0.39 0.195,-0.592 0.059,-0.199 0.112,-0.401 0.158,-0.604 0.047,-0.204 0.088,-0.41 0.122,-0.616 0.035,-0.207 0.063,-0.416 0.086,-0.626l0.044 -0.421 -3.96 0.011 -0.044 0.838 -0.035 0.458 -0.046 0.454 -0.056 0.46 -0.065 0.446 -0.075 0.442 -0.084 0.434 -0.095 0.433 -0.078 0.34 0.59 0.191 0.251 0.088 0.256 0.094 0.252 0.099 0.25 0.102 0.242 0.106zm-3.037 2.5l-0.12 0.223 -0.122 0.215 -0.696 1.19 1.219 -0.666 0.288 -0.164 0.284 -0.174 0.279 -0.184 0.274 -0.192 0.271 -0.204 0.262 -0.21 0.257 -0.22 0.252 -0.23 0.421 -0.395c-0.723,-0.314 -1.331,-0.561 -2.081,-0.804l-0.227 0.596 -0.104 0.251 -0.109 0.249 -0.113 0.246 -0.116 0.239 -0.119 0.234zm-4.114 -2.54l0.014 4.754 0.578 -0.327c0.131,-0.074 0.263,-0.16 0.393,-0.257 0.13,-0.097 0.26,-0.205 0.386,-0.322 0.127,-0.118 0.252,-0.247 0.375,-0.386 0.121,-0.137 0.242,-0.285 0.36,-0.444 0.113,-0.152 0.224,-0.314 0.331,-0.484 0.109,-0.17 0.213,-0.348 0.314,-0.533 0.1,-0.185 0.198,-0.379 0.292,-0.579 0.092,-0.198 0.182,-0.404 0.268,-0.62l0.174 -0.433 -0.775 -0.134 -0.312 -0.045 -0.325 -0.042 -0.328 -0.036 -0.325 -0.031 -0.337 -0.026 -0.34 -0.022 -0.743 -0.033zm-0.708 6.244l-0.169 0.001 0 -0.004c-0.765,-0.008 -1.513,-0.087 -2.237,-0.229 -0.771,-0.152 -1.518,-0.378 -2.23,-0.669 -0.733,-0.299 -1.431,-0.668 -2.083,-1.096 -0.658,-0.434 -1.272,-0.93 -1.832,-1.479 -0.559,-0.55 -1.065,-1.153 -1.507,-1.801 -0.437,-0.641 -0.814,-1.327 -1.119,-2.047 -0.299,-0.706 -0.532,-1.447 -0.689,-2.214 -0.153,-0.749 -0.235,-1.522 -0.237,-2.312 -0.002,-0.793 0.075,-1.569 0.223,-2.318 0.153,-0.769 0.382,-1.513 0.679,-2.224 0.303,-0.725 0.676,-1.414 1.111,-2.058 0.439,-0.651 0.942,-1.258 1.501,-1.811 0.558,-0.553 1.17,-1.052 1.828,-1.489 0.651,-0.432 1.348,-0.803 2.082,-1.106 0.717,-0.295 1.471,-0.525 2.252,-0.681 0.761,-0.151 1.548,-0.231 2.351,-0.234l0.075 0c0.793,0.006 1.566,0.085 2.313,0.232 0.779,0.154 1.532,0.381 2.251,0.675 0.733,0.299 1.431,0.669 2.083,1.098 0.659,0.433 1.273,0.929 1.832,1.478 0.56,0.549 1.065,1.152 1.507,1.799 0.438,0.64 0.814,1.325 1.12,2.045 0.299,0.705 0.531,1.446 0.688,2.213 0.153,0.747 0.235,1.52 0.237,2.309 0.001,0.394 -0.017,0.786 -0.054,1.174 -0.037,0.391 -0.094,0.776 -0.169,1.155 -0.075,0.382 -0.17,0.76 -0.282,1.13 -0.112,0.37 -0.244,0.736 -0.394,1.096 -0.15,0.359 -0.318,0.71 -0.502,1.052 -0.184,0.341 -0.386,0.674 -0.605,0.998 -0.219,0.323 -0.454,0.637 -0.704,0.939 -0.249,0.299 -0.516,0.59 -0.799,0.871 -0.27,0.268 -0.551,0.521 -0.841,0.759 -0.293,0.24 -0.596,0.466 -0.906,0.675 -0.312,0.21 -0.634,0.406 -0.964,0.586 -0.329,0.179 -0.668,0.343 -1.014,0.492 -0.347,0.148 -0.702,0.281 -1.059,0.396 -0.358,0.114 -0.724,0.213 -1.096,0.295 -0.368,0.081 -0.743,0.146 -1.121,0.193 -0.377,0.048 -0.758,0.078 -1.141,0.09l-0.379 0.021zm-20.91 -19.664c0.163,-0.16 0.387,-0.259 0.633,-0.259 0.248,0 0.472,0.099 0.634,0.259 0.162,0.159 0.262,0.38 0.262,0.624l0 1.344c0,0.244 -0.1,0.465 -0.262,0.624 -0.162,0.16 -0.386,0.259 -0.634,0.259 -0.247,0 -0.471,-0.1 -0.633,-0.259 -0.162,-0.159 -0.263,-0.38 -0.263,-0.624l0 -1.344c0,-0.244 0.101,-0.465 0.263,-0.624zm-0.518 0.624l0 1.344c0,0.243 -0.101,0.463 -0.263,0.623 -0.161,0.16 -0.386,0.26 -0.633,0.26 -0.248,0 -0.471,-0.1 -0.634,-0.259 -0.161,-0.159 -0.262,-0.38 -0.262,-0.624l0 -1.344c0,-0.244 0.101,-0.465 0.262,-0.624 0.164,-0.16 0.388,-0.259 0.634,-0.259 0.246,0 0.47,0.099 0.633,0.259 0.163,0.161 0.263,0.381 0.263,0.624zm-2.047 0l0 1.344c0,0.243 -0.101,0.463 -0.263,0.623 -0.162,0.16 -0.386,0.26 -0.634,0.26 -0.247,0 -0.471,-0.1 -0.633,-0.259 -0.162,-0.159 -0.262,-0.38 -0.262,-0.624l0 -1.344c0,-0.244 0.1,-0.465 0.262,-0.624 0.163,-0.16 0.387,-0.259 0.633,-0.259 0.247,0 0.471,0.099 0.633,0.259 0.163,0.161 0.264,0.381 0.264,0.624zm-4.522 1.344l0 -1.344c0,-0.244 0.1,-0.465 0.262,-0.624 0.163,-0.16 0.387,-0.259 0.634,-0.259 0.247,0 0.471,0.099 0.633,0.259 0.162,0.159 0.263,0.38 0.263,0.624l0 1.344c0,0.244 -0.101,0.465 -0.263,0.624 -0.163,0.16 -0.387,0.259 -0.633,0.259 -0.248,0 -0.472,-0.1 -0.634,-0.259 -0.162,-0.159 -0.262,-0.38 -0.262,-0.624zm-2.048 0l0 -1.344c0,-0.244 0.101,-0.465 0.263,-0.624 0.163,-0.16 0.387,-0.259 0.634,-0.259 0.245,0 0.469,0.099 0.632,0.259 0.163,0.161 0.264,0.381 0.264,0.624l0 1.344c0,0.243 -0.101,0.463 -0.264,0.623 -0.161,0.16 -0.386,0.26 -0.632,0.26 -0.248,0 -0.472,-0.1 -0.634,-0.259 -0.162,-0.159 -0.263,-0.38 -0.263,-0.624zm-2.047 0l0 -1.344c0,-0.244 0.101,-0.465 0.263,-0.624 0.163,-0.16 0.387,-0.259 0.633,-0.259 0.246,0 0.47,0.099 0.632,0.259 0.164,0.161 0.264,0.381 0.264,0.624l0 1.344c0,0.243 -0.1,0.463 -0.263,0.623 -0.161,0.16 -0.386,0.26 -0.633,0.26 -0.247,0 -0.471,-0.1 -0.633,-0.259 -0.162,-0.159 -0.263,-0.38 -0.263,-0.624zm-1.785 0.624c-0.162,-0.159 -0.262,-0.38 -0.262,-0.624l0 -1.344c0,-0.244 0.1,-0.465 0.262,-0.624 0.164,-0.16 0.388,-0.259 0.634,-0.259 0.247,0 0.472,0.099 0.634,0.259 0.162,0.159 0.262,0.38 0.262,0.624l0 1.344c0,0.243 -0.1,0.463 -0.263,0.623 -0.161,0.16 -0.386,0.26 -0.633,0.26 -0.247,0 -0.472,-0.1 -0.634,-0.259zm4.942 -8.228l1.152 0c0.129,0 0.246,-0.052 0.331,-0.136 0.085,-0.083 0.138,-0.199 0.138,-0.326l0 -0.462 -0.469 0c-0.247,0 -0.471,-0.099 -0.633,-0.259 -0.163,-0.159 -0.264,-0.38 -0.264,-0.624 0,-0.242 0.101,-0.463 0.263,-0.623 0.163,-0.161 0.387,-0.259 0.634,-0.259l0.469 0 0 -0.463c0,-0.127 -0.053,-0.242 -0.137,-0.326 -0.085,-0.083 -0.203,-0.135 -0.332,-0.135l-1.152 0 0 3.613zm-3.412 -0.924l0 0.462c0,0.127 0.053,0.243 0.137,0.327 0.085,0.083 0.203,0.135 0.332,0.135l1.151 0 0 -3.613 -1.151 0c-0.129,0 -0.246,0.052 -0.331,0.135 -0.085,0.084 -0.138,0.199 -0.138,0.326l0 0.464 0.469 0c0.246,-0.001 0.471,0.098 0.633,0.258 0.162,0.159 0.263,0.38 0.263,0.623 0,0.244 -0.101,0.465 -0.263,0.624 -0.162,0.16 -0.386,0.259 -0.633,0.259l-0.469 0zm6.825 -2.228l0 2.69c0,0.614 -0.254,1.171 -0.663,1.574 -0.411,0.403 -0.976,0.653 -1.598,0.653l-4.095 0c-0.622,0 -1.188,-0.25 -1.598,-0.654 -0.409,-0.402 -0.663,-0.959 -0.663,-1.573l0 -2.69c0,-0.612 0.254,-1.169 0.663,-1.572 0.409,-0.404 0.975,-0.654 1.598,-0.654l4.095 0c0.622,0 1.187,0.25 1.597,0.653 0.409,0.403 0.664,0.961 0.664,1.573zm-7.721 13.907l12.284 0c0.247,0 0.471,0.099 0.633,0.258 0.162,0.161 0.263,0.381 0.263,0.624 0,0.244 -0.101,0.464 -0.263,0.624 -0.162,0.16 -0.385,0.259 -0.633,0.259l-12.284 0c-0.247,0 -0.472,-0.099 -0.634,-0.259 -0.161,-0.16 -0.262,-0.381 -0.262,-0.624 0,-0.243 0.1,-0.464 0.262,-0.624 0.162,-0.159 0.387,-0.258 0.634,-0.258zm19.795 6.471l-21.842 0c-0.331,0 -0.655,-0.045 -0.963,-0.129 -0.317,-0.086 -0.617,-0.214 -0.893,-0.377 -0.017,-0.009 -0.036,-0.023 -0.053,-0.032 -0.091,-0.055 -0.177,-0.113 -0.258,-0.172 -0.087,-0.066 -0.169,-0.131 -0.243,-0.196 -0.053,-0.047 -0.104,-0.093 -0.149,-0.138l-0.004 -0.004c-0.073,-0.071 -0.147,-0.152 -0.222,-0.241 -0.072,-0.085 -0.139,-0.172 -0.201,-0.26 -0.016,-0.016 -0.07,-0.105 -0.085,-0.128 -0.18,-0.281 -0.32,-0.587 -0.415,-0.91 -0.091,-0.316 -0.14,-0.647 -0.14,-0.985l0 -21.51c0,-0.984 0.407,-1.877 1.063,-2.524 0.656,-0.647 1.563,-1.048 2.563,-1.048l36.852 0c0.504,0 0.986,0.103 1.424,0.288 0.455,0.192 0.862,0.473 1.198,0.82l0.069 0.073c0.041,0.045 0.084,0.094 0.126,0.146 0.045,0.054 0.085,0.106 0.12,0.153l0.101 0.144c0.067,0.107 0.133,0.211 0.19,0.324 0.129,0.248 0.23,0.512 0.297,0.787 0.066,0.272 0.101,0.552 0.101,0.837l0 8.631 -1.792 0 0 -8.631c0,-0.245 -0.049,-0.478 -0.139,-0.69 -0.093,-0.221 -0.229,-0.421 -0.398,-0.587 -0.17,-0.167 -0.373,-0.302 -0.597,-0.393 -0.214,-0.088 -0.451,-0.136 -0.7,-0.136l-36.852 -0.001c-0.505,0 -0.963,0.202 -1.295,0.527 -0.332,0.326 -0.538,0.776 -0.54,1.272l0.001 21.518c0,0.245 0.049,0.478 0.138,0.69 0.093,0.22 0.229,0.419 0.397,0.584 0.071,0.069 0.135,0.123 0.214,0.182 0.075,0.052 0.136,0.091 0.215,0.135 0.132,0.069 0.273,0.124 0.421,0.161 0.143,0.035 0.293,0.054 0.449,0.054l22.099 0 0 1.766 -0.257 0z"/>
  <ellipse class="fil2 str0" cx="68.787" cy="13.03" rx="12.213" ry="12.03"/>
  <path class="fil3" d="M69.911 17.403c0,0.306 -0.126,0.583 -0.33,0.783l-0.001 0c-0.204,0.2 -0.484,0.324 -0.793,0.324 -0.309,0 -0.59,-0.124 -0.793,-0.324l-0.002 0c-0.203,-0.2 -0.329,-0.477 -0.329,-0.783 0,-0.304 0.126,-0.581 0.329,-0.781l0 -0.002c0.203,-0.2 0.484,-0.324 0.795,-0.324 0.309,0 0.589,0.124 0.793,0.324l0.001 0c0.204,0.2 0.33,0.477 0.33,0.783zm-1.124 -1.736c-0.213,0 -0.406,-0.085 -0.546,-0.223 -0.139,-0.137 -0.225,-0.327 -0.225,-0.537 0,-0.658 0.236,-1.16 0.576,-1.573 0.317,-0.384 0.71,-0.671 1.079,-0.94 0.626,-0.456 1.165,-0.85 1.165,-1.589 0,-0.51 -0.201,-0.94 -0.547,-1.241 -0.359,-0.313 -0.88,-0.496 -1.502,-0.496 -0.612,0 -1.126,0.206 -1.484,0.558 -0.357,0.352 -0.566,0.859 -0.566,1.461 0,0.21 -0.086,0.4 -0.225,0.537 -0.14,0.138 -0.333,0.223 -0.546,0.223 -0.211,0 -0.404,-0.085 -0.544,-0.223l-0.001 -0.001c-0.14,-0.138 -0.226,-0.328 -0.226,-0.536 0,-1.019 0.379,-1.902 1.02,-2.533 0.64,-0.631 1.537,-1.005 2.572,-1.005 1.026,0 1.918,0.339 2.557,0.912 0.65,0.582 1.034,1.399 1.034,2.344 0,0.754 -0.252,1.316 -0.615,1.771 -0.343,0.429 -0.773,0.743 -1.175,1.036 -0.553,0.404 -1.03,0.752 -1.03,1.295 0,0.208 -0.087,0.398 -0.226,0.536l-0.001 0.001c-0.14,0.137 -0.333,0.223 -0.544,0.223z"/>
 </g>
</svg>
