<?xml version="1.0" encoding="UTF-8"?>
<!DOCTYPE svg PUBLIC "-//W3C//DTD SVG 1.1//EN" "http://www.w3.org/Graphics/SVG/1.1/DTD/svg11.dtd">
<!-- Creator: CorelDRAW 2017 -->
<svg xmlns="http://www.w3.org/2000/svg" xml:space="preserve" width="82px" height="82px" version="1.1" style="shape-rendering:geometricPrecision; text-rendering:geometricPrecision; image-rendering:optimizeQuality; fill-rule:evenodd; clip-rule:evenodd"
viewBox="0 0 82 82"
 xmlns:xlink="http://www.w3.org/1999/xlink">
 <defs>
  <style type="text/css">
   <![CDATA[
    .str0 {stroke:#205FAD;stroke-width:2;stroke-miterlimit:22.9256}
    .fil0 {fill:#205FAD}
    .fil1 {fill:white}
    .fil2 {fill:#205FAD;fill-rule:nonzero}
    .fil3 {fill:#FFE875;fill-rule:nonzero}
   ]]>
  </style>
 </defs>
 <g id="Слой_x0020_1">
  <metadata id="CorelCorpID_0Corel-Layer"/>
  <path class="fil0" d="M38.756 81c-20.852,0 -37.756,-16.578 -37.756,-37.028 0,-20.449 16.904,-37.027 37.756,-37.027 20.852,0 37.756,16.578 37.756,37.027 0,20.45 -16.904,37.028 -37.756,37.028z"/>
  <path class="fil1 str0" d="M68.766 1c6.757,0 12.234,5.371 12.234,11.998 0,6.626 -5.477,11.997 -12.234,11.997 -6.756,0 -12.234,-5.371 -12.234,-11.997 0,-6.627 5.478,-11.998 12.234,-11.998z"/>
  <path class="fil2" d="M69.892 17.359c0,0.305 -0.126,0.581 -0.33,0.781l-0.002 0c-0.203,0.2 -0.484,0.323 -0.794,0.323 -0.31,0 -0.591,-0.123 -0.794,-0.323l-0.002 0c-0.204,-0.2 -0.329,-0.476 -0.329,-0.781 0,-0.303 0.125,-0.579 0.329,-0.779l0 -0.001c0.204,-0.2 0.485,-0.323 0.796,-0.323 0.31,0 0.591,0.123 0.794,0.323l0.002 0c0.204,0.2 0.33,0.475 0.33,0.78zm-1.126 -1.731c-0.213,0 -0.406,-0.085 -0.546,-0.222 -0.14,-0.137 -0.226,-0.327 -0.226,-0.536 0,-0.657 0.236,-1.157 0.577,-1.568 0.318,-0.384 0.712,-0.67 1.081,-0.938 0.626,-0.456 1.167,-0.849 1.167,-1.585 0,-0.509 -0.202,-0.938 -0.548,-1.238 -0.36,-0.312 -0.881,-0.494 -1.505,-0.494 -0.612,0 -1.128,0.205 -1.486,0.556 -0.358,0.351 -0.567,0.857 -0.567,1.457 0,0.21 -0.086,0.399 -0.226,0.536 -0.14,0.137 -0.333,0.222 -0.546,0.222 -0.212,0 -0.404,-0.085 -0.545,-0.222l-0.001 -0.001c-0.14,-0.139 -0.227,-0.327 -0.227,-0.535 0,-1.016 0.38,-1.897 1.022,-2.526 0.641,-0.629 1.54,-1.002 2.576,-1.002 1.029,0 1.922,0.338 2.562,0.909 0.65,0.581 1.036,1.396 1.036,2.338 0,0.752 -0.253,1.313 -0.617,1.766 -0.343,0.428 -0.774,0.741 -1.177,1.034 -0.554,0.402 -1.031,0.75 -1.031,1.291 0,0.208 -0.087,0.397 -0.227,0.534l-0.001 0.002c-0.14,0.137 -0.333,0.222 -0.545,0.222z"/>
  <path class="fil3" d="M27.919 33.467l5.733 1.237 0.366 -0.358 3.178 -3.117c0.334,-0.328 0.876,-0.328 1.211,0 0.334,0.328 0.334,0.86 0,1.188l-2.77 2.716 5.361 1.158 2.277 -2.234 2.609 -2.558 2.609 -2.559 2.609 -2.559c0.191,-0.187 0.404,-0.364 0.635,-0.527 0.229,-0.162 0.465,-0.302 0.703,-0.418 0.24,-0.119 0.485,-0.214 0.73,-0.287 0.249,-0.073 0.504,-0.125 0.761,-0.154 0.256,-0.029 0.51,-0.035 0.757,-0.016 0.252,0.02 0.5,0.065 0.737,0.135 0.248,0.074 0.486,0.175 0.708,0.304 0.21,0.122 0.405,0.266 0.579,0.432 0.03,0.027 0.058,0.055 0.083,0.086 0.163,0.167 0.301,0.348 0.417,0.539 0.131,0.217 0.234,0.449 0.308,0.692 0.072,0.231 0.118,0.474 0.138,0.724 0.02,0.243 0.015,0.493 -0.015,0.745 -0.03,0.251 -0.083,0.502 -0.158,0.745 -0.072,0.235 -0.17,0.474 -0.291,0.714 -0.118,0.234 -0.261,0.466 -0.427,0.691 -0.167,0.227 -0.347,0.436 -0.538,0.624l-2.611 2.56 -2.611 2.561 -2.611 2.56 -2.279 2.235 0.873 3.888 0.303 1.35 2.475 -2.427c0.334,-0.328 0.877,-0.328 1.211,0 0.334,0.328 0.334,0.86 0,1.188l-2.883 2.827c-0.015,0.015 -0.031,0.03 -0.047,0.043l-0.319 0.313 0.96 4.275 0.303 1.35 3.295 -3.231c0.334,-0.327 0.876,-0.327 1.211,0 0.334,0.328 0.334,0.86 0,1.188l-3.724 3.651c-0.015,0.015 -0.03,0.029 -0.046,0.042l-0.3 0.294 1.074 4.784c0.006,0.027 0.011,0.053 0.014,0.078 0.114,0.545 0.156,1.174 0.054,1.755 -0.098,0.564 -0.33,1.097 -0.751,1.51l-0.84 0.823 -0.838 0.823 -0.002 0.001 0.002 0.002c-0.803,0.787 -1.573,0.611 -2.291,-0.093 -0.018,-0.018 -0.036,-0.038 -0.053,-0.057 -0.674,-0.7 -1.243,-1.99 -1.695,-3.014 -0.113,-0.257 -0.218,-0.493 -0.343,-0.755l-0.353 -0.734 -0.019 -0.044c-1.84,-3.834 -3.645,-7.595 -5.62,-11.356 -2.187,1.783 -4.152,3.739 -6.157,5.733 -0.505,0.503 -1.018,1.013 -1.376,1.368l0.341 3.289c0.045,0.44 0.017,0.931 -0.113,1.385 -0.124,0.437 -0.339,0.847 -0.665,1.167 -0.016,0.015 -0.031,0.029 -0.047,0.043l-0.616 0.604 0.001 0.002c-0.654,0.642 -1.212,0.986 -1.838,0.922 -0.665,-0.069 -1.148,-0.545 -1.565,-1.541l-1.925 -4.595 -3.242 -1.306 -1.444 -0.581c-1.015,-0.409 -1.501,-0.883 -1.57,-1.536 -0.067,-0.613 0.285,-1.161 0.94,-1.803l0.661 -0.648c0.022,-0.022 0.045,-0.042 0.07,-0.061 0.589,-0.517 1.542,-0.613 2.086,-0.668 0.088,-0.009 0.158,-0.016 0.182,-0.021 0.11,-0.023 0.22,-0.025 0.325,-0.007l3.29 0.328c1.352,-1.339 2.585,-2.651 3.817,-3.963 1.096,-1.165 2.191,-2.331 3.33,-3.48 -3.815,-1.924 -7.632,-3.685 -11.521,-5.48l-0.003 -0.002 -0.76 -0.349c-0.266,-0.123 -0.51,-0.226 -0.774,-0.338 -1.076,-0.457 -2.438,-1.034 -3.131,-1.714 -0.718,-0.704 -0.899,-1.459 -0.095,-2.247 0.015,-0.015 0.031,-0.029 0.047,-0.042l0.794 -0.78 0.003 -0.003 0.839 -0.823 -0.001 -0.001c0.351,-0.345 0.943,-0.577 1.579,-0.684 0.602,-0.101 1.281,-0.101 1.829,0.017l4.878 1.053 0.345 -0.337 -0.002 -0.002 2.912 -2.856c0.334,-0.328 0.877,-0.328 1.211,0 0.334,0.328 0.334,0.86 0,1.188l-2.484 2.436zm5.823 2.977l-7.718 -1.667 -5.333 -1.152c-0.339,-0.073 -0.776,-0.07 -1.173,-0.004 -0.313,0.053 -0.566,0.13 -0.656,0.218l-0.002 -0.001 -0.001 0.001 -0.84 0.823 -0.728 0.714c0.486,0.463 1.654,0.958 2.579,1.35 0.334,0.141 0.641,0.272 0.828,0.359l0.76 0.35c4.23,1.954 8.375,3.867 12.544,6.001 0.102,0.041 0.196,0.102 0.278,0.182 0.335,0.328 0.335,0.86 0,1.188 -1.463,1.435 -2.781,2.838 -4.098,4.24 -1.356,1.443 -2.711,2.886 -4.148,4.295l-0.002 -0.002c-0.175,0.171 -0.423,0.267 -0.687,0.242l-3.646 -0.364c-0.063,0.008 -0.135,0.016 -0.216,0.024 -0.333,0.033 -0.917,0.092 -1.101,0.231l-0.018 0.019 -0.662 0.648c-0.288,0.283 -0.451,0.444 -0.451,0.445 0.004,0.037 0.157,0.011 0.52,0.157l1.443 0.581 3.573 1.439c0.204,0.082 0.375,0.241 0.465,0.456l2.06 4.919c0.149,0.356 0.122,0.506 0.16,0.51 0.001,0 0.165,-0.16 0.453,-0.443l0.002 0.002 0.002 -0.002 0.614 -0.603c0.014,-0.015 0.029,-0.03 0.044,-0.045 0.107,-0.105 0.182,-0.256 0.231,-0.426 0.07,-0.247 0.084,-0.522 0.058,-0.775l-0.375 -3.619c-0.047,-0.261 0.032,-0.539 0.238,-0.741 0.793,-0.778 1.222,-1.205 1.655,-1.635 2.272,-2.261 4.496,-4.474 7.1,-6.495 0.047,-0.038 0.098,-0.072 0.154,-0.101 0.418,-0.214 0.933,-0.055 1.151,0.355 2.183,4.095 4.137,8.167 6.132,12.323l0.022 0.044 0.352 0.735c0.087,0.18 0.22,0.481 0.364,0.807 0.396,0.898 0.895,2.03 1.357,2.512l0.019 0.017 0.727 -0.712 0.003 -0.003 0.841 -0.825c0.141,-0.138 0.226,-0.356 0.269,-0.604 0.064,-0.365 0.037,-0.768 -0.037,-1.124 -0.006,-0.022 -0.012,-0.043 -0.017,-0.065l-1.175 -5.231 -0.639 -2.848 -1.06 -4.721 -0.639 -2.848 -0.974 -4.337c-0.06,-0.27 0.016,-0.564 0.231,-0.774l2.61 -2.561 2.611 -2.56 2.611 -2.561 2.611 -2.56c0.143,-0.141 0.265,-0.279 0.364,-0.413 0.106,-0.145 0.2,-0.298 0.28,-0.456 0.073,-0.145 0.135,-0.298 0.184,-0.457 0.048,-0.156 0.08,-0.307 0.097,-0.45 0.017,-0.144 0.02,-0.286 0.009,-0.424 -0.01,-0.126 -0.034,-0.251 -0.07,-0.37l0 -0.003c-0.035,-0.114 -0.083,-0.222 -0.142,-0.321 -0.05,-0.082 -0.108,-0.159 -0.172,-0.228l-0.037 -0.034c-0.084,-0.082 -0.174,-0.15 -0.268,-0.205 -0.101,-0.058 -0.211,-0.105 -0.326,-0.139 -0.122,-0.036 -0.25,-0.059 -0.383,-0.07 -0.139,-0.01 -0.284,-0.007 -0.43,0.01 -0.147,0.016 -0.301,0.048 -0.459,0.095 -0.156,0.046 -0.311,0.107 -0.462,0.18l-0.004 0c-0.161,0.079 -0.317,0.171 -0.465,0.275 -0.137,0.097 -0.278,0.216 -0.421,0.357l-2.609 2.558 -2.609 2.559 -2.609 2.559 -2.602 2.551c-0.199,0.201 -0.497,0.298 -0.796,0.234l-7.346 -1.586z"/>
 </g>
</svg>
