<?xml version="1.0" encoding="UTF-8"?>
<!DOCTYPE svg PUBLIC "-//W3C//DTD SVG 1.1//EN" "http://www.w3.org/Graphics/SVG/1.1/DTD/svg11.dtd">
<!-- Creator: CorelDRAW 2017 -->
<svg xmlns="http://www.w3.org/2000/svg" xml:space="preserve" width="82px" height="82px" version="1.1" style="shape-rendering:geometricPrecision; text-rendering:geometricPrecision; image-rendering:optimizeQuality; fill-rule:evenodd; clip-rule:evenodd"
viewBox="0 0 82 82"
 xmlns:xlink="http://www.w3.org/1999/xlink">
 <defs>
  <style type="text/css">
   <![CDATA[
    .str0 {stroke:#205FAD;stroke-width:2;stroke-miterlimit:22.9256}
    .fil0 {fill:#205FAD}
    .fil3 {fill:#FFE875}
    .fil1 {fill:#FFF}
    .fil2 {fill:#205FAD;fill-rule:nonzero}
   ]]>
  </style>
 </defs>
 <g id="layer">
  <metadata id="CorelCorpID_0Corel-Layer"/>
  <path class="fil0" d="M38.513 80.957c-20.818,0 -37.693,-16.805 -37.693,-37.535 0,-20.73 16.875,-37.535 37.693,-37.535 20.817,0 37.692,16.805 37.692,37.535 0,20.73 -16.875,37.535 -37.692,37.535z"/>
  <path class="fil1 str0" d="M68.606 0.958c6.746,0 12.214,5.445 12.214,12.162 0,6.717 -5.468,12.162 -12.214,12.162 -6.745,0 -12.213,-5.445 -12.213,-12.162 0,-6.717 5.468,-12.162 12.213,-12.162z"/>
  <path class="fil2" d="M69.73 17.541c0,0.309 -0.126,0.589 -0.329,0.791l-0.002 0c-0.203,0.203 -0.483,0.328 -0.793,0.328 -0.309,0 -0.589,-0.125 -0.793,-0.328l-0.001 0c-0.203,-0.202 -0.329,-0.482 -0.329,-0.791 0,-0.308 0.126,-0.587 0.329,-0.79l0 -0.001c0.203,-0.202 0.484,-0.328 0.794,-0.328 0.31,0 0.59,0.126 0.793,0.328l0.002 0c0.203,0.202 0.329,0.482 0.329,0.791zm-1.124 -1.755c-0.212,0 -0.405,-0.086 -0.545,-0.225 -0.139,-0.139 -0.226,-0.331 -0.226,-0.543 0,-0.666 0.237,-1.173 0.577,-1.59 0.317,-0.389 0.71,-0.679 1.079,-0.951 0.625,-0.462 1.165,-0.86 1.165,-1.606 0,-0.516 -0.202,-0.951 -0.547,-1.256 -0.359,-0.316 -0.88,-0.5 -1.503,-0.5 -0.611,0 -1.126,0.207 -1.483,0.563 -0.358,0.356 -0.566,0.869 -0.566,1.478 0,0.212 -0.086,0.404 -0.226,0.543 -0.139,0.138 -0.332,0.225 -0.545,0.225 -0.211,0 -0.404,-0.086 -0.544,-0.225l-0.002 -0.002c-0.139,-0.14 -0.225,-0.331 -0.225,-0.541 0,-1.031 0.379,-1.924 1.019,-2.561 0.641,-0.638 1.538,-1.016 2.572,-1.016 1.027,0 1.919,0.343 2.558,0.922 0.649,0.588 1.034,1.414 1.034,2.37 0,0.762 -0.252,1.33 -0.615,1.79 -0.344,0.434 -0.773,0.751 -1.176,1.047 -0.553,0.409 -1.029,0.761 -1.029,1.31 0,0.211 -0.087,0.402 -0.226,0.541l-0.002 0.002c-0.139,0.139 -0.332,0.225 -0.544,0.225z"/>
  <path class="fil3" d="M37.993 59.497l-19.075 0c-0.496,0 -0.969,-0.099 -1.402,-0.277 -0.449,-0.186 -0.853,-0.458 -1.191,-0.794 -0.087,-0.09 -0.169,-0.179 -0.249,-0.275 -0.042,-0.051 -0.08,-0.101 -0.115,-0.148 -0.034,-0.047 -0.07,-0.098 -0.107,-0.154 -0.022,-0.021 -0.102,-0.164 -0.125,-0.203 -0.155,-0.272 -0.277,-0.563 -0.358,-0.87 -0.079,-0.299 -0.122,-0.611 -0.122,-0.932l0 -21.968c0,-1.007 0.412,-1.92 1.076,-2.582 0.665,-0.661 1.582,-1.071 2.592,-1.071l19.518 0 -0.043 0.3c-0.038,0.263 -0.074,0.5 -0.105,0.694 -0.027,0.17 -0.048,0.285 -0.061,0.329l-0.022 0.092 -0.044 0.209c-0.109,0.636 -0.255,1.569 -0.381,2.564 -0.094,0.741 -0.179,1.53 -0.23,2.277 -0.046,0.659 -0.068,1.265 -0.05,1.736 0.015,0.385 0.053,0.67 0.124,0.804 0.784,1.497 2.609,9.753 2.62,9.804l0.04 0.183c-0.653,3.033 -1.294,6.07 -1.94,9.105l-0.111 1.177 -0.239 0zm-5.271 -1.811l3.937 -0.001 1.803 -8.462c-0.132,-0.591 -0.568,-2.532 -1.058,-4.519 -0.501,-2.028 -1.049,-4.074 -1.355,-4.658 -0.166,-0.316 -0.261,-0.783 -0.302,-1.342 -0.046,-0.615 -0.029,-1.354 0.025,-2.134 0.051,-0.731 0.134,-1.506 0.226,-2.246 0.105,-0.837 0.226,-1.641 0.331,-2.288l-17.412 0c-0.509,0 -0.97,0.205 -1.304,0.537 -0.334,0.332 -0.542,0.79 -0.544,1.295l0.001 21.977c0,0.249 0.05,0.487 0.139,0.702 0.094,0.226 0.232,0.429 0.402,0.598 0.172,0.17 0.376,0.308 0.601,0.401 0.216,0.089 0.455,0.138 0.705,0.138 4.593,0 9.217,-0.053 13.805,0.002zm25.627 1.826l-18.113 0c0.052,-0.563 0.075,-1.053 0.191,-1.599l1.439 -8.989c-0.109,-0.547 -0.508,-2.533 -0.95,-4.501 -0.457,-2.037 -0.969,-4.106 -1.278,-4.698 -0.166,-0.316 -0.253,-0.759 -0.281,-1.281 -0.031,-0.566 0.004,-1.231 0.081,-1.929l0.002 -0.021c0.081,-0.74 0.208,-1.536 0.345,-2.284 0.206,-1.126 0.43,-2.121 0.558,-2.662l0.027 -0.106c0.012,-0.062 0.032,-0.177 0.056,-0.335l0.128 -0.868 17.795 0c0.335,0 0.662,0.046 0.974,0.131 0.32,0.089 0.624,0.219 0.903,0.385 0.192,0.096 0.575,0.399 0.725,0.565 0.334,0.335 0.604,0.734 0.788,1.176 0.179,0.431 0.278,0.903 0.278,1.396l0 21.968c0,1.006 -0.411,1.919 -1.076,2.581 -0.663,0.662 -1.58,1.071 -2.592,1.071zm-13.79 -27.462l-2.506 0.001c-0.123,0.517 -0.321,1.406 -0.504,2.397 -0.134,0.725 -0.26,1.506 -0.341,2.239 -0.062,0.569 -0.099,1.094 -0.093,1.507 0.005,0.333 0.037,0.585 0.104,0.713 0.265,0.508 0.625,1.777 0.985,3.242 0.705,2.866 1.423,6.501 1.439,6.582l0.029 0.148c-0.467,2.941 -0.941,5.881 -1.412,8.821l16.089 0c0.509,0 0.971,-0.205 1.305,-0.537 0.334,-0.332 0.542,-0.79 0.544,-1.296l-0.001 -21.976c0,-0.507 -0.207,-0.967 -0.542,-1.3 -0.171,-0.171 -0.375,-0.308 -0.599,-0.401 -0.217,-0.089 -0.456,-0.139 -0.707,-0.139l-13.79 -0.001zm-7.496 16.243l0 1.373c0,0.25 -0.102,0.477 -0.267,0.641 -0.165,0.164 -0.392,0.265 -0.643,0.265 -0.251,0 -0.478,-0.101 -0.643,-0.265 -0.166,-0.164 -0.268,-0.391 -0.268,-0.641l0 -1.373c0,-0.25 0.102,-0.477 0.267,-0.641 0.165,-0.164 0.393,-0.266 0.644,-0.266 0.25,0 0.478,0.102 0.643,0.267 0.165,0.164 0.267,0.391 0.267,0.64zm-16.721 2.014c-0.165,-0.164 -0.267,-0.391 -0.267,-0.641l0 -1.373c0,-0.249 0.102,-0.476 0.267,-0.641 0.165,-0.164 0.393,-0.266 0.644,-0.266 0.25,0 0.478,0.102 0.643,0.267 0.164,0.164 0.266,0.391 0.266,0.64l0 1.373c0,0.249 -0.102,0.476 -0.266,0.64 -0.165,0.165 -0.392,0.266 -0.643,0.266 -0.251,0 -0.478,-0.101 -0.644,-0.265zm1.802 -0.641l0 -1.373c0,-0.249 0.102,-0.476 0.266,-0.64 0.165,-0.165 0.393,-0.267 0.643,-0.267 0.251,0 0.479,0.102 0.644,0.266 0.164,0.165 0.267,0.392 0.267,0.641l0 1.373c0,0.25 -0.102,0.477 -0.267,0.641 -0.165,0.164 -0.393,0.265 -0.644,0.265 -0.251,0 -0.478,-0.101 -0.643,-0.265 -0.164,-0.165 -0.266,-0.392 -0.266,-0.641zm2.068 0l0 -1.373c0,-0.25 0.101,-0.477 0.266,-0.641 0.165,-0.164 0.393,-0.266 0.644,-0.266 0.25,0 0.477,0.102 0.643,0.266 0.165,0.164 0.267,0.391 0.267,0.641l0 1.373c0,0.249 -0.102,0.475 -0.267,0.64 -0.166,0.165 -0.394,0.266 -0.643,0.266 -0.251,0 -0.479,-0.101 -0.644,-0.265 -0.164,-0.166 -0.266,-0.392 -0.266,-0.641zm2.068 0l0 -1.373c0,-0.249 0.102,-0.476 0.266,-0.64 0.165,-0.165 0.393,-0.267 0.644,-0.267 0.25,0 0.478,0.102 0.643,0.266 0.165,0.165 0.267,0.392 0.267,0.641l-0.001 1.373c0.001,0.25 -0.101,0.477 -0.266,0.641 -0.164,0.164 -0.392,0.265 -0.643,0.265 -0.25,0 -0.477,-0.101 -0.642,-0.265 -0.166,-0.166 -0.268,-0.392 -0.268,-0.641zm4.578 -1.373l0 1.373c0,0.25 -0.102,0.477 -0.267,0.641 -0.165,0.164 -0.392,0.265 -0.644,0.265 -0.25,0 -0.478,-0.101 -0.643,-0.265 -0.164,-0.165 -0.266,-0.392 -0.266,-0.641l0 -1.373c0,-0.249 0.102,-0.476 0.266,-0.64 0.166,-0.165 0.393,-0.267 0.643,-0.267 0.252,0 0.479,0.102 0.644,0.266 0.165,0.165 0.267,0.392 0.267,0.641zm2.068 0l0 1.636 -0.039 0c-0.044,0.144 -0.123,0.273 -0.228,0.378 -0.164,0.164 -0.392,0.265 -0.643,0.265 -0.251,0 -0.479,-0.101 -0.644,-0.265 -0.164,-0.166 -0.266,-0.392 -0.266,-0.641l0 -1.373c0,-0.25 0.101,-0.477 0.266,-0.641 0.166,-0.164 0.394,-0.266 0.644,-0.266 0.251,0 0.478,0.102 0.643,0.266 0.165,0.165 0.267,0.392 0.267,0.641zm0.515 -0.64c0.164,-0.165 0.392,-0.267 0.643,-0.267 0.251,0 0.478,0.102 0.643,0.266 0.165,0.165 0.267,0.392 0.267,0.641l-0.001 1.373c0.001,0.25 -0.101,0.477 -0.265,0.641 -0.165,0.164 -0.393,0.265 -0.644,0.265 -0.25,0 -0.477,-0.101 -0.642,-0.265 -0.166,-0.166 -0.268,-0.392 -0.268,-0.641l0 -1.373c0,-0.249 0.102,-0.476 0.267,-0.64zm-12.455 5.226l12.409 0c0.25,0 0.477,0.101 0.642,0.265 0.166,0.166 0.268,0.392 0.268,0.641 0,0.25 -0.102,0.477 -0.267,0.641 -0.166,0.164 -0.393,0.265 -0.643,0.265l-12.409 0c-0.251,0 -0.479,-0.101 -0.644,-0.265 -0.165,-0.166 -0.267,-0.392 -0.267,-0.641 0,-0.25 0.102,-0.477 0.267,-0.641 0.166,-0.164 0.393,-0.265 0.644,-0.265zm4.357 -10.985l1.158 0c0.129,0 0.246,-0.052 0.331,-0.137 0.085,-0.084 0.137,-0.201 0.137,-0.33l0 -0.466 -0.468 0c-0.251,0 -0.478,-0.102 -0.643,-0.267 -0.166,-0.163 -0.267,-0.39 -0.267,-0.64 0,-0.249 0.101,-0.475 0.266,-0.639 0.166,-0.166 0.394,-0.267 0.644,-0.267l0.468 0 0 -0.467c0,-0.129 -0.052,-0.246 -0.136,-0.33 -0.085,-0.084 -0.203,-0.136 -0.332,-0.136l-1.158 0 0 3.679zm-3.448 -0.933l0 0.466c0,0.13 0.053,0.247 0.137,0.33 0.086,0.085 0.203,0.137 0.332,0.137l1.158 0 0 -3.679 -1.158 0c-0.129,0 -0.247,0.052 -0.331,0.136 -0.085,0.085 -0.138,0.202 -0.138,0.33l0 0.467 0.469 0c0.251,0 0.479,0.102 0.644,0.265 0.164,0.165 0.266,0.392 0.266,0.641 0,0.249 -0.102,0.476 -0.266,0.64 -0.166,0.165 -0.393,0.267 -0.644,0.267l-0.469 0zm6.894 -2.28l0 2.746c0,0.628 -0.257,1.198 -0.671,1.611 -0.414,0.413 -0.986,0.669 -1.617,0.669l-4.137 -0.001c-0.631,0.001 -1.203,-0.255 -1.618,-0.667 -0.414,-0.414 -0.671,-0.984 -0.671,-1.612l0 -2.746c0,-0.628 0.258,-1.198 0.672,-1.611 0.415,-0.412 0.987,-0.668 1.617,-0.668l4.137 0c0.631,0 1.203,0.256 1.618,0.668 0.413,0.414 0.67,0.984 0.67,1.611zm19.291 0.089c-0.334,0.332 -0.541,0.792 -0.541,1.3 0,0.507 0.207,0.967 0.542,1.3 0.334,0.334 0.796,0.54 1.306,0.54l4.136 0c0.51,0 0.972,-0.206 1.306,-0.539 0.335,-0.334 0.542,-0.794 0.542,-1.301 0,-0.508 -0.207,-0.968 -0.541,-1.3 -0.336,-0.333 -0.798,-0.54 -1.307,-0.54l-4.136 0c-0.51,0 -0.972,0.207 -1.307,0.54zm8.035 3.881c-0.663,0.662 -1.581,1.071 -2.592,1.071l-4.136 0c-1.011,0 -1.929,-0.409 -2.592,-1.071 -0.664,-0.661 -1.076,-1.574 -1.076,-2.581 0,-1.007 0.412,-1.921 1.076,-2.582 0.665,-0.661 1.581,-1.07 2.592,-1.07l4.136 0c1.011,0 1.927,0.409 2.591,1.07 0.665,0.663 1.077,1.575 1.077,2.582 0,1.007 -0.412,1.92 -1.076,2.581z"/>
 </g>
</svg>
