<?xml version="1.0" encoding="UTF-8"?>
<!DOCTYPE svg PUBLIC "-//W3C//DTD SVG 1.1//EN" "http://www.w3.org/Graphics/SVG/1.1/DTD/svg11.dtd">
<!-- Creator: CorelDRAW 2017 -->
<svg xmlns="http://www.w3.org/2000/svg" xml:space="preserve" width="82px" height="82px" version="1.1" style="shape-rendering:geometricPrecision; text-rendering:geometricPrecision; image-rendering:optimizeQuality; fill-rule:evenodd; clip-rule:evenodd"
viewBox="0 0 82 82"
 xmlns:xlink="http://www.w3.org/1999/xlink">
 <defs>
  <style type="text/css">
   <![CDATA[
    .str0 {stroke:#205FAD;stroke-width:2;stroke-miterlimit:22.9256}
    .fil0 {fill:#205FAD}
    .fil1 {fill:white}
    .fil2 {fill:#205FAD;fill-rule:nonzero}
    .fil3 {fill:#FFE875;fill-rule:nonzero}
   ]]>
  </style>
 </defs>
 <g id="Слой_x0020_1">
  <metadata id="CorelCorpID_0Corel-Layer"/>
  <path class="fil0" d="M38.624 81c-20.779,0 -37.624,-16.825 -37.624,-37.579 0,-20.754 16.845,-37.579 37.624,-37.579 20.779,0 37.623,16.825 37.623,37.579 0,20.754 -16.844,37.579 -37.623,37.579z"/>
  <path class="fil1 str0" d="M68.809 1c6.733,0 12.191,5.452 12.191,12.177 0,6.724 -5.458,12.176 -12.191,12.176 -6.733,0 -12.191,-5.452 -12.191,-12.176 0,-6.725 5.458,-12.177 12.191,-12.177z"/>
  <path class="fil2" d="M69.931 17.603c0,0.31 -0.126,0.59 -0.329,0.792l-0.001 0c-0.203,0.203 -0.483,0.328 -0.792,0.328 -0.308,0 -0.588,-0.125 -0.791,-0.328l-0.002 0c-0.203,-0.202 -0.329,-0.482 -0.329,-0.792 0,-0.308 0.126,-0.588 0.329,-0.79l0 -0.002c0.203,-0.203 0.483,-0.328 0.793,-0.328 0.309,0 0.589,0.125 0.792,0.328l0.001 0c0.203,0.203 0.329,0.483 0.329,0.792zm-1.122 -1.757c-0.212,0 -0.405,-0.086 -0.544,-0.226 -0.139,-0.139 -0.226,-0.331 -0.226,-0.543 0,-0.667 0.236,-1.174 0.576,-1.592 0.316,-0.39 0.709,-0.68 1.077,-0.952 0.624,-0.462 1.163,-0.861 1.163,-1.608 0,-0.517 -0.201,-0.952 -0.546,-1.257 -0.359,-0.317 -0.879,-0.501 -1.5,-0.501 -0.61,0 -1.124,0.208 -1.481,0.564 -0.356,0.357 -0.564,0.87 -0.564,1.479 0,0.213 -0.087,0.405 -0.226,0.544 -0.139,0.139 -0.332,0.225 -0.544,0.225 -0.211,0 -0.403,-0.086 -0.543,-0.225l-0.002 -0.002c-0.139,-0.14 -0.225,-0.331 -0.225,-0.542 0,-1.032 0.378,-1.925 1.018,-2.564 0.639,-0.638 1.534,-1.017 2.567,-1.017 1.025,0 1.915,0.343 2.553,0.923 0.648,0.589 1.032,1.416 1.032,2.373 0,0.763 -0.251,1.332 -0.614,1.792 -0.343,0.435 -0.772,0.752 -1.173,1.049 -0.552,0.409 -1.028,0.761 -1.028,1.311 0,0.211 -0.086,0.403 -0.225,0.542l-0.002 0.002c-0.139,0.138 -0.332,0.225 -0.543,0.225z"/>
  <path class="fil3" d="M58.425 45.969l8.817 -8.807 -2.107 -2.105 -8.817 8.806 2.107 2.106 0 0zm-2.99 2.986l1.72 -1.717 -2.108 -2.104 -1.719 1.717 2.107 2.104 0 0zm-10.23 10.217l8.959 -8.948 -2.107 -2.103 -8.958 8.947 2.106 2.104 0 0zm5.81 3.766l0 -7.027 -5.174 5.166c-0.168,0.169 -0.397,0.264 -0.636,0.264 -0.238,0 -0.467,-0.095 -0.634,-0.264l-3.379 -3.374c-0.352,-0.351 -0.352,-0.919 0,-1.27l7.56 -7.55 -5.085 -1.688 -4.313 7.961c-0.157,0.291 -0.461,0.472 -0.791,0.472 -0.329,0 -0.633,-0.181 -0.79,-0.472l-4.313 -7.961 -7.348 2.439 0 13.304 24.903 0 0 0zm18.134 -26.411c0.351,0.351 0.351,0.919 0,1.27l-16.336 16.317 0 9.722c0,0.497 -0.403,0.898 -0.899,0.898l-26.7 0c-0.497,0 -0.9,-0.401 -0.9,-0.898l0 -14.85c0,-0.386 0.249,-0.731 0.616,-0.851l8.679 -2.882c0.411,-0.136 0.866,0.041 1.074,0.426l3.88 7.163 3.881 -7.163c0.207,-0.385 0.661,-0.562 1.074,-0.426l6.655 2.209 14.327 -14.309c0.337,-0.337 0.933,-0.337 1.27,0l3.379 3.374 0 0zm-44.233 6.878c-0.29,0.403 -0.853,0.493 -1.255,0.205 -0.403,-0.29 -0.494,-0.852 -0.205,-1.254l2.279 -3.162 0 -11.756 -1.916 -0.965c-0.308,-0.155 -0.5,-0.471 -0.495,-0.815 0.005,-0.343 0.207,-0.654 0.519,-0.801l14.41 -6.733c0.242,-0.114 0.522,-0.114 0.765,0.002l14.269 6.733c0.306,0.145 0.505,0.448 0.515,0.785 0.009,0.338 -0.171,0.652 -0.468,0.815l-4.613 2.519 0 3.177c0,0.495 -0.403,0.897 -0.899,0.897l-0.779 0c0.12,0.571 0.191,1.16 0.191,1.767 0,4.774 -3.89,8.659 -8.671,8.659 -4.78,0 -8.669,-3.885 -8.669,-8.659 0,-0.607 0.07,-1.196 0.19,-1.767l-0.353 0c-0.497,0 -0.898,-0.402 -0.898,-0.897l0 -3.157 -1.3 -0.654 0 10.85 2.278 3.162c0.29,0.402 0.199,0.964 -0.204,1.254 -0.159,0.114 -0.342,0.168 -0.525,0.168 -0.279,0 -0.554,-0.128 -0.729,-0.373l-1.719 -2.384 -1.718 2.384 0 0zm20.519 -8.586c0,-0.611 -0.088,-1.202 -0.239,-1.767l-13.265 0c-0.15,0.565 -0.239,1.156 -0.239,1.767 0,3.784 3.082,6.862 6.871,6.862 3.79,0 6.872,-3.078 6.872,-6.862l0 0zm-6.803 -14.889l-12.351 5.771 3.854 1.943c0.304,0.153 0.496,0.462 0.496,0.802l0 2.81 16.292 0 0 -2.81c0,-0.328 0.179,-0.63 0.468,-0.788l3.531 -1.929 -12.29 -5.799 0 0z"/>
 </g>
</svg>
