<?xml version="1.0" encoding="UTF-8"?>
<!DOCTYPE svg PUBLIC "-//W3C//DTD SVG 1.1//EN" "http://www.w3.org/Graphics/SVG/1.1/DTD/svg11.dtd">
<!-- Creator: CorelDRAW 2017 -->
<svg xmlns="http://www.w3.org/2000/svg" xml:space="preserve" width="82px" height="82px" version="1.1" style="shape-rendering:geometricPrecision; text-rendering:geometricPrecision; image-rendering:optimizeQuality; fill-rule:evenodd; clip-rule:evenodd"
viewBox="0 0 82 82"
 xmlns:xlink="http://www.w3.org/1999/xlink">
 <defs>
  <style type="text/css">
   <![CDATA[
    .str0 {stroke:#205FAD;stroke-width:2;stroke-miterlimit:22.9256}
    .fil0 {fill:#205FAD}
    .fil1 {fill:white}
    .fil2 {fill:#205FAD;fill-rule:nonzero}
    .fil3 {fill:#FFE875;fill-rule:nonzero}
   ]]>
  </style>
 </defs>
 <g id="Слой_x0020_1">
  <metadata id="CorelCorpID_0Corel-Layer"/>
  <path class="fil0" d="M38.485 81c-20.702,0 -37.485,-16.605 -37.485,-37.088 0,-20.483 16.783,-37.088 37.485,-37.088 20.702,0 37.485,16.605 37.485,37.088 0,20.483 -16.783,37.088 -37.485,37.088z"/>
  <path class="fil1 str0" d="M68.854 1c6.708,0 12.146,5.38 12.146,12.017 0,6.638 -5.438,12.017 -12.146,12.017 -6.708,0 -12.146,-5.379 -12.146,-12.017 0,-6.637 5.438,-12.017 12.146,-12.017z"/>
  <path class="fil2" d="M69.972 17.386c0,0.306 -0.126,0.582 -0.328,0.782l-0.001 0c-0.202,0.2 -0.481,0.324 -0.789,0.324 -0.308,0 -0.586,-0.124 -0.789,-0.324l-0.001 0c-0.202,-0.2 -0.327,-0.476 -0.327,-0.782 0,-0.304 0.125,-0.58 0.327,-0.78l0 -0.002c0.202,-0.2 0.482,-0.324 0.79,-0.324 0.308,0 0.587,0.124 0.789,0.324l0.001 0c0.202,0.2 0.328,0.477 0.328,0.782zm-1.118 -1.735c-0.211,0 -0.403,-0.084 -0.542,-0.222 -0.139,-0.137 -0.225,-0.327 -0.225,-0.536 0,-0.658 0.235,-1.159 0.573,-1.571 0.316,-0.385 0.707,-0.671 1.074,-0.94 0.622,-0.456 1.158,-0.849 1.158,-1.587 0,-0.509 -0.2,-0.94 -0.544,-1.24 -0.357,-0.313 -0.875,-0.495 -1.494,-0.495 -0.608,0 -1.12,0.205 -1.475,0.557 -0.356,0.352 -0.563,0.858 -0.563,1.46 0,0.209 -0.086,0.399 -0.225,0.537 -0.138,0.136 -0.33,0.221 -0.542,0.221 -0.21,0 -0.401,-0.084 -0.541,-0.222l-0.001 -0.001c-0.139,-0.138 -0.225,-0.328 -0.225,-0.535 0,-1.019 0.377,-1.901 1.014,-2.531 0.637,-0.63 1.529,-1.003 2.558,-1.003 1.021,0 1.908,0.338 2.543,0.91 0.646,0.582 1.029,1.398 1.029,2.342 0,0.753 -0.251,1.315 -0.612,1.769 -0.341,0.429 -0.768,0.742 -1.169,1.035 -0.55,0.403 -1.024,0.751 -1.024,1.294 0,0.208 -0.086,0.398 -0.224,0.535l-0.002 0.002c-0.139,0.136 -0.33,0.221 -0.541,0.221z"/>
  <path class="fil3" d="M49.645 35.143l0.023 0.003 0.04 0.005 0.016 0.002 0.016 0.003c0.062,0.009 0.124,0.019 0.185,0.03l0.022 0.004 0.054 0.011 0.033 0.006 0.045 0.009 0.034 0.008 0.109 0.024 0.048 0.012 0.04 0.01 0.098 0.026 0.014 0.004 0.06 0.016 0.119 0.036 0.02 0.006c0.135,0.042 0.267,0.09 0.397,0.141l0.064 0.026c0.116,0.048 0.231,0.1 0.343,0.155 0.092,0.045 0.183,0.093 0.272,0.143l0.058 0.034 0.059 0.034c0.234,0.138 0.455,0.293 0.665,0.462 0.069,0.056 0.137,0.114 0.204,0.173 0.05,0.045 0.099,0.09 0.148,0.136 0.194,0.186 0.374,0.386 0.537,0.597 0.274,0.353 0.504,0.74 0.682,1.152 0.275,0.636 0.427,1.333 0.427,2.062l0 18.531c0,0.73 -0.152,1.426 -0.427,2.063 -0.169,0.391 -0.385,0.76 -0.641,1.098l-0.041 0.053c-0.061,0.08 -0.125,0.157 -0.191,0.233l-0.022 0.025 -0.067 0.075 -0.069 0.074 -0.023 0.024 -0.023 0.024 -0.024 0.024 -0.023 0.024 -0.024 0.024 -0.024 0.023 -0.048 0.047 -0.024 0.023 -0.049 0.046 -0.074 0.067 -0.051 0.045 -0.076 0.065 -0.052 0.043c-0.069,0.057 -0.14,0.112 -0.212,0.165l-0.027 0.02c-0.045,0.034 -0.091,0.066 -0.138,0.098 -0.065,0.044 -0.131,0.088 -0.197,0.129 -0.077,0.049 -0.155,0.095 -0.234,0.139l-0.03 0.016 -0.029 0.017 -0.06 0.032 -0.091 0.047 -0.061 0.031c-0.061,0.03 -0.123,0.059 -0.186,0.087l-0.126 0.054 -0.095 0.039c-0.657,0.262 -1.377,0.407 -2.127,0.407l-20.813 0c-0.751,0 -1.47,-0.145 -2.127,-0.407l-0.064 -0.025 -0.032 -0.014 -0.031 -0.013 -0.063 -0.027 -0.032 -0.014 -0.031 -0.014 -0.031 -0.014 -0.062 -0.03 -0.031 -0.014 -0.03 -0.015 -0.061 -0.031 -0.091 -0.047 -0.03 -0.016 -0.03 -0.016 -0.03 -0.017 -0.029 -0.016 -0.03 -0.017 -0.029 -0.017 -0.03 -0.017 -0.029 -0.017c-0.048,-0.029 -0.097,-0.058 -0.144,-0.089l-0.057 -0.036 -0.028 -0.019c-0.047,-0.031 -0.094,-0.062 -0.14,-0.095 -0.046,-0.032 -0.091,-0.065 -0.136,-0.099l-0.054 -0.041c-0.044,-0.034 -0.088,-0.069 -0.131,-0.104l-0.026 -0.021 -0.026 -0.022 -0.076 -0.065 -0.051 -0.045 -0.074 -0.067 -0.049 -0.046 -0.024 -0.023 -0.048 -0.047 -0.024 -0.023 -0.024 -0.024 -0.07 -0.072c-0.229,-0.238 -0.435,-0.497 -0.616,-0.773l-0.012 -0.018c-0.034,-0.052 -0.067,-0.105 -0.1,-0.159l-0.042 -0.071 -0.044 -0.078 -0.035 -0.063 -0.03 -0.055 -0.001 -0.002c-0.063,-0.119 -0.12,-0.24 -0.174,-0.364 -0.274,-0.636 -0.427,-1.333 -0.427,-2.062l0 -18.531c0,-0.729 0.153,-1.426 0.427,-2.062 0.272,-0.628 0.664,-1.197 1.148,-1.678l0.072 -0.071 0.024 -0.023c0.041,-0.038 0.082,-0.076 0.123,-0.113l0.051 -0.044 0.102 -0.087 0.026 -0.021c0.043,-0.036 0.087,-0.07 0.131,-0.105l0.081 -0.061 0.027 -0.02 0.082 -0.058 0.028 -0.02 0.112 -0.076 0.028 -0.018 0.028 -0.018c0.057,-0.037 0.115,-0.073 0.173,-0.107l0.029 -0.017 0.03 -0.017 0.059 -0.034 0.029 -0.017 0.03 -0.016 0.03 -0.016 0.03 -0.016 0.091 -0.047 0.091 -0.046c0.041,-0.02 0.083,-0.039 0.124,-0.058l0.031 -0.014c0.042,-0.019 0.084,-0.037 0.126,-0.055l0.032 -0.013 0.064 -0.026c0.09,-0.036 0.181,-0.069 0.274,-0.101l0.013 -0.004c0.059,-0.02 0.117,-0.038 0.177,-0.056l0.017 -0.006 0.022 -0.006 0.001 -0.001 0.026 -0.007 0.054 -0.015 0.007 -0.002 0.02 -0.006 0.104 -0.027c0.276,-0.069 0.559,-0.119 0.848,-0.147l0 -6.453c0,-1.469 0.297,-2.872 0.833,-4.154 0.557,-1.331 1.373,-2.53 2.384,-3.533 1.013,-1.005 2.222,-1.815 3.563,-2.368 1.293,-0.532 2.709,-0.826 4.191,-0.826 1.482,0 2.898,0.294 4.191,0.826 1.341,0.552 2.55,1.363 3.564,2.368 1.01,1.002 1.825,2.201 2.381,3.532 0.502,1.199 0.793,2.506 0.829,3.872l0.004 0 0 0.283 -0.002 6.452c0.065,0.007 0.129,0.014 0.193,0.023zm2.696 3.753l-0.049 -0.093c-0.018,-0.034 -0.037,-0.066 -0.056,-0.099l-0.012 -0.019 -0.035 -0.058 -0.012 -0.019 -0.024 -0.038 -0.037 -0.057 -0.038 -0.056 -0.027 -0.037 -0.013 -0.018 -0.013 -0.018c-0.036,-0.049 -0.073,-0.096 -0.111,-0.143l-0.029 -0.035 -0.029 -0.035 -0.045 -0.051c-0.065,-0.073 -0.134,-0.143 -0.205,-0.212l-0.084 -0.078 -0.017 -0.015 -0.017 -0.015 -0.034 -0.03 -0.053 -0.044 -0.036 -0.029 -0.035 -0.029 -0.055 -0.042 -0.018 -0.014 -0.056 -0.041 -0.019 -0.014 -0.038 -0.026 -0.038 -0.026 -0.019 -0.013 -0.019 -0.013 -0.02 -0.012 -0.019 -0.013 -0.039 -0.025 -0.02 -0.012 -0.02 -0.012 -0.02 -0.012 -0.04 -0.024 -0.04 -0.023 -0.021 -0.011 -0.02 -0.012 -0.02 -0.011 -0.021 -0.011 -0.041 -0.022 -0.021 -0.011 -0.021 -0.01 -0.021 -0.011 -0.021 -0.01 -0.021 -0.01 -0.043 -0.021 -0.021 -0.01 -0.021 -0.009 -0.065 -0.029 -0.022 -0.009 -0.021 -0.009 -0.044 -0.018 -0.022 -0.009c-0.451,-0.178 -0.948,-0.277 -1.472,-0.277l-20.814 0 -0.024 0 -0.024 0 -0.025 0.001 -0.024 0 -0.049 0.002 -0.025 0.001 -0.024 0.001 -0.048 0.002 -0.024 0.002 -0.048 0.003 -0.048 0.004 -0.024 0.002 -0.047 0.005 -0.048 0.006 -0.024 0.002 -0.047 0.007 -0.047 0.006 -0.07 0.011 -0.023 0.004 -0.046 0.008 -0.047 0.009 -0.023 0.005 -0.023 0.005 -0.023 0.005 -0.022 0.004 -0.023 0.006 -0.023 0.005 -0.045 0.011 -0.045 0.011 -0.023 0.006 -0.022 0.006 -0.022 0.006 -0.023 0.006 -0.044 0.013 -0.022 0.007 -0.022 0.006 -0.022 0.007 -0.065 0.022 -0.086 0.03 -0.065 0.024 -0.042 0.016c-0.059,0.023 -0.117,0.048 -0.174,0.074l-0.021 0.009 -0.021 0.01 -0.085 0.041 -0.021 0.011 -0.021 0.01 -0.062 0.033 -0.021 0.011 -0.02 0.011 -0.04 0.023 -0.041 0.023 -0.02 0.012 -0.04 0.024c-0.033,0.02 -0.066,0.04 -0.098,0.062l-0.038 0.025c-0.046,0.03 -0.089,0.061 -0.133,0.093l-0.019 0.013c-0.055,0.041 -0.11,0.084 -0.163,0.128l-0.052 0.044 -0.052 0.045c-0.034,0.031 -0.068,0.062 -0.101,0.093 -0.185,0.179 -0.352,0.375 -0.496,0.586l-0.038 0.057c-0.058,0.088 -0.112,0.178 -0.162,0.272l-0.021 0.04c-0.038,0.073 -0.073,0.148 -0.106,0.225 -0.023,0.053 -0.045,0.107 -0.065,0.161l-0.023 0.062 -0.021 0.062 -0.014 0.041c-0.046,0.147 -0.084,0.297 -0.11,0.45 -0.035,0.198 -0.053,0.401 -0.053,0.609l0 18.531c0,0.408 0.07,0.799 0.198,1.163l0.038 0.102 0.024 0.061 0.026 0.06c0.033,0.076 0.068,0.151 0.106,0.225l0.021 0.04 0.022 0.04 0.033 0.058c0.174,0.301 0.39,0.575 0.641,0.816 0.352,0.337 0.774,0.61 1.243,0.795 0.451,0.178 0.948,0.277 1.472,0.277l20.813 0c0.523,0 1.021,-0.098 1.472,-0.277 0.198,-0.078 0.388,-0.172 0.567,-0.279l0.04 -0.024 0.02 -0.013 0.039 -0.024 0.039 -0.026c0.038,-0.025 0.077,-0.051 0.114,-0.078 0.05,-0.035 0.099,-0.072 0.147,-0.11 0.055,-0.043 0.107,-0.087 0.159,-0.132l0.034 -0.031 0.084 -0.078c0.071,-0.068 0.139,-0.139 0.204,-0.212l0.045 -0.051c0.03,-0.034 0.059,-0.069 0.087,-0.104 0.075,-0.095 0.146,-0.193 0.211,-0.294 0.029,-0.045 0.056,-0.089 0.083,-0.135 0.072,-0.124 0.137,-0.251 0.194,-0.383 0.184,-0.426 0.286,-0.894 0.286,-1.386l0 -18.531c0,-0.184 -0.014,-0.366 -0.042,-0.543l-0.011 -0.066 -0.004 -0.021 -0.008 -0.044 -0.005 -0.026 -0.013 -0.061c-0.012,-0.051 -0.024,-0.101 -0.037,-0.15l-0.011 -0.038 -0.003 -0.011 -0.016 -0.057 -0.007 -0.021 -0.013 -0.042 -0.014 -0.041 -0.007 -0.021 -0.027 -0.075 -0.006 -0.015c-0.019,-0.052 -0.04,-0.103 -0.062,-0.154l-0.018 -0.041c-0.018,-0.039 -0.036,-0.078 -0.055,-0.116l-0.016 -0.034zm-10.535 10.055c0,-0.45 -0.09,-0.877 -0.251,-1.264 -0.168,-0.403 -0.416,-0.767 -0.722,-1.07 -0.304,-0.303 -0.67,-0.547 -1.077,-0.714 -0.39,-0.16 -0.819,-0.248 -1.271,-0.248 -0.452,0 -0.882,0.088 -1.272,0.248 -0.407,0.167 -0.772,0.411 -1.077,0.714 -0.306,0.303 -0.553,0.667 -0.721,1.07 -0.162,0.387 -0.251,0.814 -0.251,1.264 0,0.316 0.045,0.621 0.127,0.908 0.086,0.298 0.213,0.579 0.375,0.835 0.165,0.261 0.367,0.499 0.597,0.705 0.23,0.207 0.489,0.381 0.768,0.516l0.316 0.153 0.175 0.085 0 0.193 0.001 0.349 0 3.461 1.919 0 0 -3.461 0 -0.348 0 -0.194 0.177 -0.085 0.319 -0.154c0.279,-0.134 0.539,-0.309 0.768,-0.514 0.23,-0.204 0.431,-0.443 0.598,-0.706 0.161,-0.256 0.288,-0.537 0.374,-0.835 0.083,-0.287 0.128,-0.592 0.128,-0.908zm0.272 -3.56c0.468,0.464 0.846,1.019 1.103,1.635 0.249,0.595 0.386,1.245 0.386,1.925 0,0.479 -0.069,0.944 -0.196,1.385 -0.131,0.453 -0.326,0.882 -0.576,1.277 -0.216,0.344 -0.476,0.662 -0.77,0.944 -0.249,0.241 -0.525,0.456 -0.821,0.642l0 3.828 0 0.56 0 0.311 -0.314 0 -0.567 0 -3.677 0 -0.564 0 -0.314 0 0 -0.311 0 -0.56 0.001 -3.826c-0.297,-0.186 -0.574,-0.402 -0.824,-0.643 -0.295,-0.283 -0.554,-0.601 -0.771,-0.945 -0.249,-0.395 -0.444,-0.824 -0.575,-1.277 -0.128,-0.441 -0.196,-0.906 -0.196,-1.385 0,-0.68 0.137,-1.33 0.385,-1.924 0.258,-0.617 0.636,-1.172 1.104,-1.636 0.469,-0.466 1.029,-0.841 1.65,-1.096 0.6,-0.247 1.256,-0.383 1.943,-0.383 0.686,0 1.343,0.136 1.942,0.383 0.621,0.255 1.182,0.63 1.651,1.096zm5.619 -10.298l0 -6.143 -0.001 -0.282c0.001,-1.235 -0.247,-2.415 -0.697,-3.492 -0.467,-1.118 -1.154,-2.126 -2.005,-2.97 -0.848,-0.842 -1.863,-1.521 -2.99,-1.985 -1.083,-0.445 -2.272,-0.691 -3.519,-0.691 -1.247,0 -2.436,0.246 -3.519,0.691 -1.127,0.464 -2.142,1.143 -2.99,1.985 -0.85,0.843 -1.536,1.85 -2.003,2.968 -0.449,1.075 -0.698,2.255 -0.698,3.494l0 6.425 3.249 0 0 -6.145 -0.003 0 0 -0.28c0.001,-0.801 0.163,-1.565 0.454,-2.26 0.303,-0.722 0.746,-1.373 1.294,-1.917 0.551,-0.546 1.209,-0.987 1.938,-1.287 0.703,-0.29 1.473,-0.451 2.278,-0.451 0.805,0 1.575,0.161 2.278,0.451 0.729,0.3 1.387,0.741 1.938,1.287 0.549,0.545 0.993,1.197 1.296,1.92 0.291,0.697 0.453,1.46 0.453,2.257l0 6.425 3.247 0zm-5.008 0l0 -6.425c0,-0.567 -0.114,-1.106 -0.318,-1.597 -0.214,-0.51 -0.527,-0.97 -0.915,-1.355 -0.387,-0.383 -0.85,-0.693 -1.365,-0.905 -0.494,-0.203 -1.036,-0.315 -1.606,-0.315 -0.57,0 -1.112,0.112 -1.606,0.315 -0.515,0.212 -0.979,0.522 -1.365,0.905 -0.389,0.386 -0.703,0.846 -0.917,1.358 -0.192,0.459 -0.304,0.961 -0.317,1.488l0 0.106 -0.002 6.425 8.411 0z"/>
 </g>
</svg>
