<?xml version="1.0" encoding="UTF-8"?>
<!DOCTYPE svg PUBLIC "-//W3C//DTD SVG 1.1//EN" "http://www.w3.org/Graphics/SVG/1.1/DTD/svg11.dtd">
<!-- Creator: CorelDRAW 2017 -->
<svg xmlns="http://www.w3.org/2000/svg" xml:space="preserve" width="82px" height="82px" version="1.1" style="shape-rendering:geometricPrecision; text-rendering:geometricPrecision; image-rendering:optimizeQuality; fill-rule:evenodd; clip-rule:evenodd"
viewBox="0 0 82 82"
 xmlns:xlink="http://www.w3.org/1999/xlink">
 <defs>
  <style type="text/css">
   <![CDATA[
    .str0 {stroke:#205FAD;stroke-width:2;stroke-miterlimit:22.9256}
    .fil0 {fill:#205FAD}
    .fil2 {fill:white}
    .fil3 {fill:#205FAD;fill-rule:nonzero}
    .fil1 {fill:#FFE875;fill-rule:nonzero}
   ]]>
  </style>
 </defs>
 <g id="Слой_x0020_1">
  <metadata id="CorelCorpID_0Corel-Layer"/>
  <path class="fil0" d="M38.756 81c-20.852,0 -37.756,-16.578 -37.756,-37.028 0,-20.449 16.904,-37.027 37.756,-37.027 20.852,0 37.756,16.578 37.756,37.027 0,20.45 -16.904,37.028 -37.756,37.028z"/>
  <path class="fil1" d="M25.883 53.22l5.557 -17.969 6.397 0 -5.856 18.932 -6.396 0 0.298 -0.963zm15.981 1.458c-1.785,0 -3.276,-0.279 -4.535,-0.684 -1.254,-0.403 -2.27,-0.928 -3.115,-1.422l-0.68 -0.399 3.113 -4.663 0.618 0.339c0.262,0.144 0.447,0.251 0.634,0.359 1.097,0.636 2.161,1.252 4.186,1.252 0.332,0 0.647,-0.038 0.902,-0.143 0.218,-0.091 0.409,-0.241 0.548,-0.478 0.147,-0.248 0.142,-0.425 0.01,-0.582 -0.279,-0.331 -0.894,-0.703 -1.762,-1.185l-0.038 -0.023 -0.943 -0.601c-1.503,-1.007 -2.589,-2.01 -3.141,-3.22 -0.574,-1.256 -0.556,-2.663 0.187,-4.418 0.507,-1.195 1.443,-2.235 2.819,-2.949 1.197,-0.622 2.726,-0.993 4.588,-0.993 1.233,0 2.428,0.236 3.501,0.599 1.285,0.433 2.407,1.055 3.219,1.671l0.631 0.478 -3.632 4.177 -0.574 -0.455c-0.622,-0.492 -1.184,-0.861 -1.727,-1.101 -0.504,-0.223 -0.999,-0.335 -1.526,-0.335 -0.387,0 -0.717,0.066 -0.97,0.176 -0.206,0.091 -0.347,0.201 -0.405,0.314 -0.107,0.206 -0.094,0.374 0.019,0.531 0.219,0.305 0.679,0.635 1.328,1.029l1.109 0.693c1.743,1.077 2.861,2.202 3.461,3.339 0.697,1.323 0.705,2.639 0.181,3.908 -0.805,1.949 -2.011,3.149 -3.437,3.866 -1.398,0.703 -2.972,0.92 -4.569,0.92zm-4.066 -2.102c1.12,0.36 2.455,0.608 4.066,0.608 1.391,0 2.738,-0.177 3.878,-0.751 1.113,-0.559 2.064,-1.519 2.718,-3.101 0.358,-0.867 0.353,-1.765 -0.122,-2.665 -0.478,-0.907 -1.419,-1.835 -2.919,-2.763l-1.098 -0.686c-0.816,-0.496 -1.42,-0.944 -1.773,-1.437 -0.46,-0.641 -0.528,-1.292 -0.133,-2.06 0.215,-0.418 0.614,-0.77 1.143,-1.002 0.444,-0.195 0.988,-0.311 1.589,-0.311 0.747,0 1.445,0.157 2.151,0.469 0.483,0.214 0.965,0.5 1.469,0.859l1.623 -1.867c-0.6,-0.369 -1.324,-0.719 -2.127,-0.99 -0.928,-0.313 -1.955,-0.517 -3.008,-0.517 -1.604,0 -2.894,0.306 -3.88,0.817 -1.043,0.542 -1.747,1.318 -2.123,2.203 -0.567,1.341 -0.602,2.369 -0.205,3.24 0.419,0.917 1.329,1.735 2.612,2.595l0.891 0.57c1.003,0.557 1.735,1.011 2.167,1.525 0.583,0.693 0.655,1.389 0.133,2.274 -0.32,0.543 -0.764,0.89 -1.274,1.102 -0.474,0.196 -0.984,0.266 -1.491,0.266 -2.428,0 -3.67,-0.715 -4.947,-1.455l-1.455 2.179c0.612,0.323 1.31,0.64 2.115,0.898zm23.319 0.895l-0.096 -1.885 -4.8 -0.004 -1.231 2.601 -6.974 0 10.285 -18.899 7.558 0 1.742 18.899 -6.448 0 -0.036 -0.712zm1.385 -2.663l0.096 1.881 3.342 0 -1.467 -15.911 -5.266 0 -8.659 15.911 3.473 0 1.228 -2.595 7.217 0.005 0.036 0.709zm-1.937 -7.629l-0.024 -0.641c-0.286,0.621 -0.55,1.197 -0.702,1.548l-1.304 2.787 2.232 0 -0.202 -3.694zm1.458 -2.457c0.001,0.79 0.029,1.66 0.059,2.39l0.288 5.255 -6.205 0 2.284 -4.875c0.235,-0.543 0.518,-1.159 0.812,-1.798 0.531,-1.153 1.097,-2.383 1.263,-2.874l0.174 -0.514 1.443 0 -0.068 0.808c-0.038,0.457 -0.052,1.021 -0.05,1.608zm-37.125 -3.973l-4.108 7.016 -0.002 0c-0.207,0.364 -0.366,0.638 -0.514,0.895 -0.76,1.317 -1.23,2.131 -1.463,3.05l-0.144 0.569 -1.456 0 0.038 -0.782c0.048,-0.965 -0.028,-2.11 -0.091,-3.078 -0.034,-0.501 -0.063,-0.956 -0.072,-1.369l-0.432 -6.301 -4.416 0c0.704,0.634 1.156,1.541 1.348,2.728l0.006 0.035 1.503 13.177 3.864 0 9.216 -15.94 -3.277 0zm-5.429 6.276l4.549 -7.769 6.766 0 -10.943 18.927 -6.105 0 -1.655 -14.508c-0.142,-0.845 -0.447,-1.463 -0.911,-1.859 -0.468,-0.4 -1.132,-0.597 -1.988,-0.597l-0.904 0 0.348 -1.963 9.45 0 0.526 7.695 0 0.038c0.006,0.325 0.038,0.805 0.073,1.336l0.005 0.075 0.274 -0.475c0.169,-0.294 0.352,-0.612 0.512,-0.892l0.003 -0.008zm13.094 -6.28l-4.931 15.944 3.226 0 4.931 -15.944 -3.226 0z"/>
  <path class="fil2 str0" d="M68.766 1c6.757,0 12.234,5.371 12.234,11.998 0,6.626 -5.477,11.997 -12.234,11.997 -6.756,0 -12.234,-5.371 -12.234,-11.997 0,-6.627 5.478,-11.998 12.234,-11.998z"/>
  <path class="fil3" d="M69.892 17.359c0,0.305 -0.126,0.581 -0.33,0.781l-0.002 0c-0.203,0.2 -0.484,0.323 -0.794,0.323 -0.31,0 -0.591,-0.123 -0.794,-0.323l-0.002 0c-0.204,-0.2 -0.329,-0.476 -0.329,-0.781 0,-0.303 0.125,-0.579 0.329,-0.779l0 -0.001c0.204,-0.2 0.485,-0.323 0.796,-0.323 0.31,0 0.591,0.123 0.794,0.323l0.002 0c0.204,0.2 0.33,0.475 0.33,0.78zm-1.126 -1.731c-0.213,0 -0.406,-0.085 -0.546,-0.222 -0.14,-0.137 -0.226,-0.327 -0.226,-0.536 0,-0.657 0.236,-1.157 0.577,-1.568 0.318,-0.384 0.712,-0.67 1.081,-0.938 0.626,-0.456 1.167,-0.849 1.167,-1.585 0,-0.509 -0.202,-0.938 -0.548,-1.238 -0.36,-0.312 -0.881,-0.494 -1.505,-0.494 -0.612,0 -1.128,0.205 -1.486,0.556 -0.358,0.351 -0.567,0.857 -0.567,1.457 0,0.21 -0.086,0.399 -0.226,0.536 -0.14,0.137 -0.333,0.222 -0.546,0.222 -0.212,0 -0.404,-0.085 -0.545,-0.222l-0.001 -0.001c-0.14,-0.139 -0.227,-0.327 -0.227,-0.535 0,-1.016 0.38,-1.897 1.022,-2.526 0.641,-0.629 1.54,-1.002 2.576,-1.002 1.029,0 1.922,0.338 2.562,0.909 0.65,0.581 1.036,1.396 1.036,2.338 0,0.752 -0.253,1.313 -0.617,1.766 -0.343,0.428 -0.774,0.741 -1.177,1.034 -0.554,0.402 -1.031,0.75 -1.031,1.291 0,0.208 -0.087,0.397 -0.227,0.534l-0.001 0.002c-0.14,0.137 -0.333,0.222 -0.545,0.222z"/>
 </g>
</svg>
