<?xml version="1.0" encoding="UTF-8"?>
<!DOCTYPE svg PUBLIC "-//W3C//DTD SVG 1.1//EN" "http://www.w3.org/Graphics/SVG/1.1/DTD/svg11.dtd">
<!-- Creator: CorelDRAW 2017 -->
<svg xmlns="http://www.w3.org/2000/svg" xml:space="preserve" width="82px" height="82px" version="1.1" style="shape-rendering:geometricPrecision; text-rendering:geometricPrecision; image-rendering:optimizeQuality; fill-rule:evenodd; clip-rule:evenodd"
viewBox="0 0 82 82"
 xmlns:xlink="http://www.w3.org/1999/xlink">
 <defs>
  <style type="text/css">
   <![CDATA[
    .str0 {stroke:#205FAD;stroke-width:2;stroke-miterlimit:22.9256}
    .fil0 {fill:#205FAD}
    .fil1 {fill:#FFE875}
    .fil2 {fill:white}
    .fil3 {fill:#205FAD;fill-rule:nonzero}
   ]]>
  </style>
 </defs>
 <g id="Слой_x0020_1">
  <metadata id="CorelCorpID_0Corel-Layer"/>
  <path class="fil0" d="M38.624 81c-20.779,0 -37.624,-16.825 -37.624,-37.579 0,-20.754 16.845,-37.579 37.624,-37.579 20.779,0 37.623,16.825 37.623,37.579 0,20.754 -16.844,37.579 -37.623,37.579z"/>
  <path class="fil1" d="M37.702 59.59l-18.569 0c-0.494,0 -0.967,-0.098 -1.398,-0.277 -0.449,-0.186 -0.852,-0.458 -1.189,-0.795 -0.088,-0.09 -0.169,-0.178 -0.249,-0.275 -0.041,-0.051 -0.079,-0.101 -0.115,-0.149 -0.034,-0.046 -0.07,-0.097 -0.106,-0.153 -0.023,-0.021 -0.103,-0.164 -0.125,-0.204 -0.156,-0.271 -0.277,-0.563 -0.358,-0.871 -0.079,-0.299 -0.121,-0.612 -0.121,-0.932l0 -21.995c0,-1.008 0.411,-1.922 1.074,-2.584 0.663,-0.662 1.578,-1.073 2.587,-1.073l18.569 0 0.913 0 3.28 0 0 0.016 16.598 0c0.334,0 0.66,0.046 0.972,0.132 0.32,0.088 0.623,0.219 0.901,0.385 0.192,0.096 0.573,0.399 0.724,0.566 0.333,0.335 0.603,0.735 0.786,1.177 0.179,0.431 0.278,0.904 0.278,1.397l0 21.995c0,1.007 -0.411,1.921 -1.074,2.583 -0.662,0.663 -1.578,1.073 -2.587,1.073l-16.54 0 -1.541 0 -2.71 0 0 -0.016zm3.154 -25.564c0.471,0 0.936,0.04 1.391,0.118 0.465,0.078 0.916,0.196 1.35,0.349 0.428,0.151 0.841,0.336 1.233,0.552 0.303,0.167 0.596,0.354 0.878,0.56 0.282,-0.206 0.575,-0.393 0.878,-0.56 0.392,-0.216 0.805,-0.401 1.233,-0.552 0.434,-0.153 0.885,-0.271 1.348,-0.349 0.457,-0.078 0.922,-0.118 1.393,-0.118 0.548,0 1.086,0.054 1.608,0.157 0.532,0.105 1.048,0.263 1.542,0.468 0.503,0.207 0.98,0.464 1.427,0.762 0.451,0.301 0.87,0.645 1.251,1.025 0.379,0.377 0.724,0.796 1.027,1.25 0.299,0.446 0.555,0.924 0.763,1.425 0.205,0.494 0.363,1.01 0.468,1.541 0.103,0.521 0.158,1.058 0.158,1.606 0,0.548 -0.055,1.086 -0.158,1.606 -0.105,0.532 -0.263,1.048 -0.468,1.541 -0.208,0.502 -0.464,0.979 -0.763,1.425 -0.301,0.451 -0.646,0.869 -1.026,1.249 -0.382,0.381 -0.801,0.725 -1.252,1.027 -0.447,0.298 -0.924,0.554 -1.427,0.762 -0.494,0.204 -1.01,0.362 -1.542,0.467 -0.522,0.103 -1.06,0.158 -1.608,0.158 -0.471,0 -0.936,-0.041 -1.391,-0.118 -0.465,-0.079 -0.916,-0.197 -1.35,-0.35 -0.428,-0.151 -0.841,-0.336 -1.233,-0.552 -0.303,-0.166 -0.596,-0.354 -0.878,-0.559 -0.282,0.205 -0.575,0.393 -0.878,0.559 -0.392,0.216 -0.805,0.401 -1.233,0.552 -0.434,0.153 -0.885,0.271 -1.348,0.35 -0.457,0.077 -0.922,0.118 -1.393,0.118 -0.548,0 -1.086,-0.055 -1.608,-0.158 -0.532,-0.105 -1.049,-0.263 -1.542,-0.467 -0.503,-0.208 -0.981,-0.464 -1.427,-0.762 -0.451,-0.302 -0.87,-0.646 -1.251,-1.025 -0.382,-0.382 -0.726,-0.8 -1.028,-1.251 -0.298,-0.446 -0.555,-0.923 -0.762,-1.425 -0.205,-0.493 -0.363,-1.009 -0.468,-1.541 -0.104,-0.52 -0.158,-1.058 -0.158,-1.606 0,-0.548 0.054,-1.085 0.158,-1.606 0.105,-0.531 0.263,-1.047 0.468,-1.541 0.207,-0.501 0.464,-0.979 0.763,-1.425 0.303,-0.454 0.648,-0.873 1.026,-1.25 0.382,-0.38 0.801,-0.724 1.252,-1.025 0.446,-0.298 0.924,-0.555 1.427,-0.762 0.493,-0.205 1.01,-0.363 1.542,-0.468 0.522,-0.103 1.06,-0.157 1.608,-0.157zm6.234 2.848c0.235,0.272 0.455,0.561 0.654,0.865 0.286,0.432 0.531,0.893 0.731,1.374 0.204,0.493 0.363,1.01 0.468,1.541 0.103,0.521 0.157,1.058 0.157,1.606 0,0.548 -0.054,1.085 -0.157,1.606 -0.105,0.532 -0.264,1.048 -0.468,1.541 -0.199,0.48 -0.444,0.94 -0.731,1.375 -0.2,0.303 -0.419,0.593 -0.654,0.865 0.154,0.099 0.313,0.192 0.478,0.279 0.293,0.154 0.599,0.287 0.917,0.395 0.33,0.113 0.671,0.2 1.019,0.257 0.339,0.055 0.692,0.085 1.056,0.085 0.43,0 0.851,-0.042 1.254,-0.122 0.418,-0.082 0.82,-0.205 1.199,-0.362 0.389,-0.161 0.76,-0.36 1.106,-0.591 0.347,-0.231 0.673,-0.5 0.974,-0.8 0.592,-0.592 1.07,-1.298 1.393,-2.077 0.157,-0.38 0.279,-0.781 0.362,-1.198 0.08,-0.404 0.122,-0.823 0.122,-1.253 0,-0.43 -0.042,-0.849 -0.122,-1.253 -0.083,-0.416 -0.205,-0.817 -0.362,-1.197 -0.161,-0.389 -0.36,-0.76 -0.592,-1.105 -0.232,-0.346 -0.501,-0.672 -0.801,-0.972 -0.298,-0.299 -0.624,-0.567 -0.973,-0.801 -0.347,-0.231 -0.717,-0.43 -1.107,-0.591 -0.38,-0.157 -0.782,-0.279 -1.199,-0.362 -0.404,-0.079 -0.824,-0.122 -1.254,-0.122 -0.364,0 -0.717,0.03 -1.056,0.085 -0.348,0.058 -0.689,0.144 -1.019,0.257 -0.318,0.108 -0.624,0.241 -0.917,0.396 -0.165,0.086 -0.324,0.179 -0.478,0.279zm-2.764 10.773c-0.236,-0.272 -0.455,-0.562 -0.655,-0.865 -0.285,-0.433 -0.53,-0.893 -0.73,-1.375 -0.204,-0.493 -0.363,-1.009 -0.468,-1.541 -0.103,-0.52 -0.158,-1.058 -0.158,-1.606 0,-0.548 0.055,-1.085 0.158,-1.606 0.105,-0.531 0.264,-1.047 0.468,-1.541 0.2,-0.481 0.445,-0.942 0.73,-1.374 0.2,-0.304 0.419,-0.593 0.655,-0.865 -0.154,-0.1 -0.314,-0.193 -0.478,-0.279 -0.293,-0.155 -0.6,-0.288 -0.917,-0.396 -0.33,-0.113 -0.671,-0.199 -1.02,-0.257 -0.338,-0.055 -0.691,-0.085 -1.055,-0.085 -0.431,0 -0.85,0.043 -1.254,0.122 -0.418,0.083 -0.82,0.205 -1.199,0.362 -0.39,0.161 -0.76,0.36 -1.107,0.591 -0.349,0.234 -0.676,0.502 -0.973,0.799 -0.593,0.594 -1.07,1.299 -1.393,2.079 -0.157,0.38 -0.28,0.781 -0.362,1.197 -0.08,0.404 -0.122,0.823 -0.122,1.253 0,0.43 0.042,0.85 0.122,1.253 0.082,0.417 0.205,0.818 0.362,1.198 0.161,0.388 0.36,0.759 0.592,1.104 0.232,0.347 0.501,0.673 0.801,0.973 0.593,0.592 1.299,1.068 2.08,1.391 0.379,0.157 0.781,0.28 1.199,0.362 0.403,0.08 0.823,0.122 1.254,0.122 0.364,0 0.717,-0.03 1.056,-0.085 0.348,-0.057 0.689,-0.144 1.019,-0.257 0.317,-0.108 0.624,-0.241 0.917,-0.395 0.164,-0.087 0.324,-0.18 0.478,-0.279zm1.382 -9.573c-0.178,0.204 -0.343,0.421 -0.493,0.648 -0.228,0.342 -0.424,0.707 -0.581,1.088 -0.158,0.38 -0.28,0.781 -0.363,1.197 -0.079,0.404 -0.121,0.823 -0.121,1.253 0,0.43 0.042,0.85 0.121,1.253 0.083,0.417 0.205,0.818 0.363,1.198 0.157,0.381 0.353,0.745 0.581,1.087 0.15,0.227 0.315,0.444 0.493,0.649 0.178,-0.205 0.342,-0.422 0.493,-0.649 0.228,-0.342 0.423,-0.706 0.581,-1.087 0.157,-0.38 0.28,-0.781 0.362,-1.198 0.08,-0.403 0.122,-0.822 0.122,-1.253 0,-0.43 -0.042,-0.849 -0.122,-1.253 -0.082,-0.416 -0.205,-0.817 -0.362,-1.197 -0.158,-0.381 -0.353,-0.746 -0.581,-1.088 -0.15,-0.227 -0.315,-0.444 -0.493,-0.648zm-5.068 19.703l1.313 0 0.483 0 -0.003 0.015 16.06 0c0.508,0 0.968,-0.206 1.302,-0.538 0.333,-0.332 0.542,-0.792 0.543,-1.297l-0.001 -22.002c0,-0.508 -0.207,-0.969 -0.541,-1.302 -0.171,-0.171 -0.374,-0.308 -0.598,-0.401 -0.217,-0.089 -0.455,-0.139 -0.705,-0.139l-13.765 -0.001 -1.668 0.001 -1.165 0 -1.491 0 -2.098 0 -0.604 0 -1.192 0 0.003 -0.016 -17.38 0c-0.508,0 -0.968,0.206 -1.302,0.538 -0.333,0.332 -0.541,0.791 -0.543,1.297l0.001 22.002c0,0.25 0.05,0.488 0.139,0.704 0.094,0.225 0.231,0.428 0.4,0.597 0.172,0.171 0.376,0.309 0.601,0.402 0.216,0.089 0.454,0.139 0.704,0.139 4.584,0 9.2,-0.053 13.78,0.001l2.756 -0.001 0 0.001 2.033 0 0.956 0 1.982 0zm-20.084 -7.388c-0.165,-0.164 -0.267,-0.391 -0.267,-0.641l0 -1.375c0,-0.249 0.102,-0.476 0.267,-0.641 0.164,-0.165 0.391,-0.266 0.641,-0.266 0.251,0 0.478,0.102 0.643,0.267 0.164,0.164 0.266,0.391 0.266,0.64l0 1.375c0,0.249 -0.102,0.476 -0.266,0.641 -0.165,0.164 -0.392,0.266 -0.643,0.266 -0.249,0 -0.476,-0.102 -0.641,-0.266zm1.797 -0.641l0 -1.375c0,-0.249 0.102,-0.476 0.267,-0.64 0.165,-0.165 0.392,-0.267 0.642,-0.267 0.25,0 0.478,0.101 0.642,0.266 0.164,0.165 0.266,0.392 0.266,0.641l0 1.375c0,0.25 -0.102,0.477 -0.266,0.641 -0.164,0.164 -0.392,0.266 -0.642,0.266 -0.251,0 -0.478,-0.102 -0.642,-0.266 -0.165,-0.165 -0.267,-0.392 -0.267,-0.641zm2.064 0l0 -1.375c0,-0.25 0.102,-0.477 0.267,-0.641 0.164,-0.165 0.392,-0.266 0.642,-0.266 0.25,0 0.477,0.102 0.642,0.266 0.165,0.164 0.267,0.391 0.267,0.641l0 1.375c0,0.249 -0.102,0.476 -0.267,0.64 -0.166,0.166 -0.392,0.267 -0.642,0.267 -0.25,0 -0.478,-0.101 -0.642,-0.266 -0.164,-0.165 -0.267,-0.392 -0.267,-0.641zm2.065 0l0 -1.375c0,-0.249 0.102,-0.476 0.266,-0.64 0.165,-0.166 0.392,-0.267 0.642,-0.267 0.251,0 0.477,0.102 0.642,0.266 0.165,0.165 0.267,0.392 0.267,0.641l-0.001 1.375c0.001,0.25 -0.101,0.478 -0.265,0.641 -0.164,0.164 -0.392,0.266 -0.643,0.266 -0.249,0 -0.476,-0.101 -0.641,-0.266 -0.165,-0.165 -0.267,-0.392 -0.267,-0.641zm-5.285 3.216l12.387 0c0.249,0 0.476,0.102 0.641,0.266 0.166,0.166 0.268,0.393 0.268,0.642 0,0.25 -0.102,0.477 -0.267,0.641 -0.165,0.164 -0.392,0.266 -0.642,0.266l-12.387 0c-0.25,0 -0.477,-0.102 -0.642,-0.266 -0.164,-0.165 -0.266,-0.392 -0.266,-0.641 0,-0.251 0.102,-0.478 0.266,-0.642 0.166,-0.164 0.393,-0.266 0.642,-0.266z"/>
  <path class="fil2 str0" d="M68.809 1c6.733,0 12.191,5.452 12.191,12.177 0,6.724 -5.458,12.176 -12.191,12.176 -6.733,0 -12.191,-5.452 -12.191,-12.176 0,-6.725 5.458,-12.177 12.191,-12.177z"/>
  <path class="fil3" d="M69.931 17.603c0,0.31 -0.126,0.59 -0.329,0.792l-0.001 0c-0.203,0.203 -0.483,0.328 -0.792,0.328 -0.308,0 -0.588,-0.125 -0.791,-0.328l-0.002 0c-0.203,-0.202 -0.329,-0.482 -0.329,-0.792 0,-0.308 0.126,-0.588 0.329,-0.79l0 -0.002c0.203,-0.203 0.483,-0.328 0.793,-0.328 0.309,0 0.589,0.125 0.792,0.328l0.001 0c0.203,0.203 0.329,0.483 0.329,0.792zm-1.122 -1.757c-0.212,0 -0.405,-0.086 -0.544,-0.226 -0.139,-0.139 -0.226,-0.331 -0.226,-0.543 0,-0.667 0.236,-1.174 0.576,-1.592 0.316,-0.39 0.709,-0.68 1.077,-0.952 0.624,-0.462 1.163,-0.861 1.163,-1.608 0,-0.517 -0.201,-0.952 -0.546,-1.257 -0.359,-0.317 -0.879,-0.501 -1.5,-0.501 -0.61,0 -1.124,0.208 -1.481,0.564 -0.356,0.357 -0.564,0.87 -0.564,1.479 0,0.213 -0.087,0.405 -0.226,0.544 -0.139,0.139 -0.332,0.225 -0.544,0.225 -0.211,0 -0.403,-0.086 -0.543,-0.225l-0.002 -0.002c-0.139,-0.14 -0.225,-0.331 -0.225,-0.542 0,-1.032 0.378,-1.925 1.018,-2.564 0.639,-0.638 1.534,-1.017 2.567,-1.017 1.025,0 1.915,0.343 2.553,0.923 0.648,0.589 1.032,1.416 1.032,2.373 0,0.763 -0.251,1.332 -0.614,1.792 -0.343,0.435 -0.772,0.752 -1.173,1.049 -0.552,0.409 -1.028,0.761 -1.028,1.311 0,0.211 -0.086,0.403 -0.225,0.542l-0.002 0.002c-0.139,0.138 -0.332,0.225 -0.543,0.225z"/>
 </g>
</svg>
