<?xml version="1.0" encoding="UTF-8"?>
<!DOCTYPE svg PUBLIC "-//W3C//DTD SVG 1.1//EN" "http://www.w3.org/Graphics/SVG/1.1/DTD/svg11.dtd">
<!-- Creator: CorelDRAW 2017 -->
<svg xmlns="http://www.w3.org/2000/svg" xml:space="preserve" width="82px" height="82px" version="1.1" style="shape-rendering:geometricPrecision; text-rendering:geometricPrecision; image-rendering:optimizeQuality; fill-rule:evenodd; clip-rule:evenodd"
viewBox="0 0 82 82"
 xmlns:xlink="http://www.w3.org/1999/xlink">
 <defs>
  <style type="text/css">
   <![CDATA[
    .str0 {stroke:#205FAD;stroke-width:2;stroke-miterlimit:22.9256}
    .fil0 {fill:#205FAD}
    .fil1 {fill:white}
    .fil2 {fill:#205FAD;fill-rule:nonzero}
    .fil3 {fill:#FFE875;fill-rule:nonzero}
   ]]>
  </style>
 </defs>
 <g id="Слой_x0020_1">
  <metadata id="CorelCorpID_0Corel-Layer"/>
  <path class="fil0" d="M38.693 81c-20.817,0 -37.693,-16.741 -37.693,-37.392 0,-20.651 16.876,-37.391 37.693,-37.391 20.817,0 37.693,16.74 37.693,37.391 0,20.651 -16.876,37.392 -37.693,37.392z"/>
  <path class="fil1 str0" d="M68.787 1c6.745,0 12.213,5.424 12.213,12.116 0,6.691 -5.468,12.115 -12.213,12.115 -6.745,0 -12.214,-5.424 -12.214,-12.115 0,-6.692 5.469,-12.116 12.214,-12.116z"/>
  <path class="fil2" d="M69.911 17.52c0,0.308 -0.126,0.587 -0.33,0.789l-0.001 0c-0.204,0.201 -0.484,0.326 -0.793,0.326 -0.309,0 -0.59,-0.125 -0.793,-0.326l-0.002 0c-0.203,-0.202 -0.329,-0.481 -0.329,-0.789 0,-0.306 0.126,-0.585 0.329,-0.786l0 -0.002c0.203,-0.201 0.484,-0.327 0.795,-0.327 0.309,0 0.589,0.126 0.793,0.327l0.001 0c0.204,0.202 0.33,0.481 0.33,0.788zm-1.124 -1.748c-0.213,0 -0.406,-0.086 -0.546,-0.225 -0.139,-0.138 -0.225,-0.329 -0.225,-0.54 0,-0.664 0.236,-1.169 0.576,-1.584 0.317,-0.388 0.71,-0.677 1.079,-0.947 0.626,-0.46 1.165,-0.857 1.165,-1.601 0,-0.514 -0.201,-0.947 -0.547,-1.25 -0.359,-0.315 -0.88,-0.499 -1.502,-0.499 -0.612,0 -1.126,0.207 -1.484,0.561 -0.357,0.355 -0.566,0.866 -0.566,1.472 0,0.212 -0.086,0.403 -0.225,0.541 -0.14,0.138 -0.333,0.224 -0.546,0.224 -0.211,0 -0.404,-0.085 -0.544,-0.224l-0.001 -0.001c-0.14,-0.14 -0.226,-0.33 -0.226,-0.54 0,-1.026 0.379,-1.916 1.02,-2.551 0.64,-0.636 1.537,-1.012 2.572,-1.012 1.026,0 1.918,0.342 2.557,0.918 0.65,0.587 1.034,1.41 1.034,2.361 0,0.76 -0.252,1.326 -0.615,1.783 -0.343,0.433 -0.773,0.749 -1.175,1.044 -0.553,0.407 -1.03,0.758 -1.03,1.305 0,0.21 -0.087,0.4 -0.226,0.539l-0.001 0.002c-0.14,0.138 -0.333,0.224 -0.544,0.224z"/>
  <path class="fil3" d="M53.771 38.818l2.003 1.551 2.61 -0.839 1.455 2.306 2.739 0.096 0.571 2.658 2.541 1.02 -0.38 2.695 2.038 1.822 -1.285 2.401 1.285 2.402 -2.038 1.822 0.38 2.694 -2.54 1.02 -0.572 2.658 -2.739 0.097 -1.454 2.307 -2.611 -0.84 -2.16 1.672 -2.161 -1.672 -2.609 0.839 -1.455 -2.306 -2.739 -0.097 -0.572 -2.658 -2.541 -1.02 0.38 -2.694 -2.038 -1.822 1.286 -2.402 -1.286 -2.401 2.038 -1.822 -0.38 -2.694 2.541 -1.02 0.572 -2.659 2.739 -0.096 1.455 -2.306 2.609 0.839 2.161 -1.672 0.157 0.121zm-2.73 20.41l-5.779 -5.731 3.842 -3.811 2.572 2.55 7.071 -7.014 3.841 3.811c-3.636,3.609 -7.275,7.217 -10.912,10.825l-0.635 -0.63zm-3.236 -5.731l3.871 3.84 8.371 -8.304 -1.3 -1.289c-2.357,2.338 -4.716,4.675 -7.072,7.013l-2.57 -2.55 -1.3 1.29zm-12.922 -8.741l0 1.609 -0.038 0c-0.043,0.142 -0.121,0.27 -0.225,0.373 -0.163,0.161 -0.387,0.261 -0.633,0.261 -0.248,0 -0.472,-0.1 -0.634,-0.26 -0.162,-0.162 -0.262,-0.384 -0.262,-0.628l0 -1.355c0,-0.245 0.1,-0.468 0.262,-0.628 0.163,-0.161 0.387,-0.261 0.634,-0.261 0.247,0 0.471,0.1 0.633,0.261 0.162,0.162 0.263,0.384 0.263,0.628zm-3.577 -0.628c0.163,-0.161 0.386,-0.261 0.633,-0.261 0.247,0 0.471,0.1 0.634,0.261 0.161,0.16 0.262,0.383 0.262,0.628l0 1.355c0,0.245 -0.101,0.467 -0.262,0.628 -0.163,0.161 -0.387,0.26 -0.634,0.26 -0.247,0 -0.472,-0.1 -0.633,-0.26 -0.163,-0.161 -0.263,-0.384 -0.263,-0.628l0 -1.355c0,-0.245 0.1,-0.468 0.263,-0.628zm-0.518 0.628l0 1.355c0,0.244 -0.101,0.466 -0.263,0.627 -0.162,0.161 -0.386,0.261 -0.633,0.261 -0.248,0 -0.472,-0.1 -0.634,-0.26 -0.162,-0.161 -0.262,-0.384 -0.262,-0.628l0 -1.355c0,-0.245 0.1,-0.468 0.262,-0.628 0.163,-0.161 0.387,-0.261 0.634,-0.261 0.246,0 0.47,0.1 0.632,0.261 0.163,0.162 0.264,0.384 0.264,0.628zm-2.048 0l0 1.355c0,0.244 -0.1,0.466 -0.263,0.627 -0.161,0.161 -0.385,0.261 -0.633,0.261 -0.247,0 -0.471,-0.1 -0.633,-0.26 -0.162,-0.161 -0.263,-0.384 -0.263,-0.628l0 -1.355c0,-0.245 0.101,-0.468 0.263,-0.628 0.163,-0.161 0.387,-0.261 0.633,-0.261 0.246,0 0.47,0.1 0.633,0.261 0.163,0.162 0.263,0.384 0.263,0.628zm-4.522 1.355l0 -1.355c0,-0.245 0.101,-0.468 0.263,-0.628 0.163,-0.161 0.387,-0.261 0.633,-0.261 0.248,0 0.472,0.1 0.634,0.261 0.162,0.161 0.262,0.383 0.262,0.628l0 1.355c0,0.245 -0.1,0.467 -0.262,0.628 -0.163,0.16 -0.387,0.26 -0.634,0.26 -0.247,0 -0.471,-0.1 -0.633,-0.26 -0.162,-0.161 -0.263,-0.384 -0.263,-0.628zm-2.047 0l0 -1.355c0,-0.245 0.101,-0.468 0.263,-0.628 0.163,-0.161 0.387,-0.261 0.633,-0.261 0.246,0 0.47,0.1 0.633,0.261 0.163,0.162 0.263,0.384 0.263,0.628l0 1.355c0,0.244 -0.101,0.466 -0.263,0.627 -0.161,0.161 -0.386,0.261 -0.633,0.261 -0.247,0 -0.471,-0.1 -0.633,-0.26 -0.162,-0.161 -0.263,-0.384 -0.263,-0.628zm-2.047 0l0 -1.355c0,-0.245 0.1,-0.468 0.262,-0.628 0.163,-0.161 0.387,-0.261 0.634,-0.261 0.246,0 0.47,0.1 0.632,0.261 0.163,0.162 0.264,0.384 0.264,0.628l0 1.355c0,0.244 -0.101,0.466 -0.263,0.627 -0.162,0.161 -0.386,0.261 -0.633,0.261 -0.247,0 -0.472,-0.1 -0.634,-0.26 -0.162,-0.161 -0.262,-0.384 -0.262,-0.628zm-1.785 0.628c-0.162,-0.161 -0.262,-0.383 -0.262,-0.628l0 -1.355c0,-0.245 0.1,-0.468 0.262,-0.628 0.163,-0.161 0.387,-0.261 0.634,-0.261 0.247,0 0.471,0.1 0.633,0.261 0.162,0.16 0.263,0.383 0.263,0.628l0 1.355c0,0.244 -0.101,0.466 -0.263,0.627 -0.162,0.161 -0.386,0.261 -0.633,0.261 -0.248,0 -0.472,-0.1 -0.634,-0.26zm4.942 -8.287l1.151 0c0.129,0 0.247,-0.053 0.331,-0.137 0.085,-0.084 0.138,-0.2 0.138,-0.329l0 -0.465 -0.469 0c-0.246,0 -0.47,-0.1 -0.632,-0.26 -0.163,-0.161 -0.264,-0.383 -0.264,-0.629 0,-0.244 0.1,-0.466 0.263,-0.627 0.163,-0.162 0.387,-0.262 0.633,-0.262l0.469 0 0 -0.465c0,-0.129 -0.052,-0.245 -0.136,-0.329 -0.085,-0.083 -0.203,-0.136 -0.333,-0.136l-1.151 0 0 3.639zm-3.412 -0.931l0 0.465c0,0.129 0.053,0.245 0.137,0.33 0.085,0.083 0.202,0.136 0.332,0.136l1.151 0 0 -3.639 -1.151 0c-0.13,0 -0.247,0.053 -0.332,0.136 -0.085,0.084 -0.137,0.2 -0.137,0.329l0 0.466 0.469 0c0.246,-0.001 0.47,0.099 0.632,0.26 0.163,0.16 0.263,0.383 0.263,0.628 0,0.246 -0.1,0.468 -0.262,0.629 -0.162,0.16 -0.386,0.26 -0.633,0.26l-0.469 0zm6.824 -2.243l0 2.708c0,0.619 -0.253,1.18 -0.663,1.586 -0.41,0.405 -0.975,0.657 -1.598,0.657l-4.094 0c-0.623,0 -1.188,-0.252 -1.598,-0.658 -0.409,-0.405 -0.663,-0.966 -0.663,-1.585l0 -2.708c0,-0.617 0.254,-1.178 0.663,-1.584 0.409,-0.407 0.974,-0.658 1.598,-0.658l4.094 0c0.623,0 1.188,0.251 1.597,0.657 0.41,0.407 0.664,0.968 0.664,1.585zm-7.72 14.005l12.284 0c0.247,0 0.471,0.1 0.633,0.261 0.162,0.162 0.263,0.384 0.263,0.628 0,0.246 -0.101,0.468 -0.263,0.628 -0.162,0.161 -0.386,0.261 -0.633,0.261l-12.284 0c-0.248,0 -0.472,-0.1 -0.634,-0.261 -0.162,-0.161 -0.262,-0.383 -0.262,-0.628 0,-0.245 0.1,-0.467 0.262,-0.628 0.162,-0.161 0.386,-0.261 0.634,-0.261zm19.795 6.518l-21.843 0c-0.331,0 -0.654,-0.046 -0.963,-0.13 -0.316,-0.087 -0.616,-0.215 -0.892,-0.379 -0.018,-0.01 -0.036,-0.024 -0.053,-0.032 -0.091,-0.056 -0.177,-0.114 -0.258,-0.174 -0.088,-0.066 -0.169,-0.132 -0.243,-0.198 -0.054,-0.047 -0.104,-0.093 -0.149,-0.139l-0.004 -0.003c-0.073,-0.072 -0.147,-0.153 -0.222,-0.243 -0.072,-0.085 -0.139,-0.173 -0.201,-0.263 -0.017,-0.016 -0.07,-0.105 -0.085,-0.128 -0.18,-0.283 -0.321,-0.591 -0.415,-0.917 -0.091,-0.318 -0.141,-0.651 -0.141,-0.992l0 -21.663c0,-0.992 0.407,-1.891 1.064,-2.542 0.656,-0.652 1.563,-1.056 2.562,-1.056l36.853 0c0.504,0 0.985,0.104 1.424,0.29 0.454,0.193 0.862,0.476 1.198,0.826l0.068 0.073c0.042,0.046 0.085,0.095 0.127,0.147 0.045,0.056 0.085,0.107 0.119,0.155l0.102 0.145c0.067,0.108 0.133,0.213 0.19,0.326 0.129,0.249 0.229,0.515 0.297,0.793 0.066,0.273 0.101,0.556 0.101,0.843l0 8.693 -1.792 0 0 -8.693c0,-0.247 -0.05,-0.482 -0.139,-0.695 -0.093,-0.223 -0.23,-0.424 -0.399,-0.592 -0.17,-0.168 -0.372,-0.303 -0.596,-0.395 -0.215,-0.089 -0.451,-0.138 -0.7,-0.138l-36.853 0c-0.505,0 -0.963,0.203 -1.294,0.531 -0.332,0.328 -0.539,0.781 -0.54,1.281l0 21.671c0,0.247 0.05,0.482 0.139,0.695 0.093,0.222 0.228,0.422 0.396,0.589 0.072,0.07 0.136,0.123 0.215,0.183 0.075,0.052 0.136,0.091 0.215,0.136 0.131,0.07 0.273,0.125 0.421,0.162 0.143,0.035 0.293,0.055 0.448,0.055l22.099 0 0 1.778 -0.256 0zm16.561 -13.606l-1.715 -1.328 -1.823 1.411 -2.196 -0.706 -1.224 1.942 -2.311 0.082 -0.482 2.244 -2.143 0.86 0.321 2.27 -1.715 1.534 1.084 2.024 -1.084 2.026 1.715 1.533 -0.321 2.27 2.143 0.86 0.482 2.244 2.311 0.081 1.223 1.943 2.197 -0.706 1.823 1.411 1.822 -1.411 2.197 0.706 1.225 -1.943 2.309 -0.081 0.483 -2.244 2.142 -0.86 -0.32 -2.27 1.715 -1.533 -1.084 -2.026 1.084 -2.024 -1.715 -1.534 0.32 -2.27 -2.142 -0.86 -0.483 -2.244 -2.309 -0.082 -1.225 -1.942 -2.196 0.706 -0.108 -0.083z"/>
 </g>
</svg>
