<?xml version="1.0" encoding="UTF-8"?>
<!DOCTYPE svg PUBLIC "-//W3C//DTD SVG 1.1//EN" "http://www.w3.org/Graphics/SVG/1.1/DTD/svg11.dtd">
<!-- Creator: CorelDRAW 2017 -->
<svg xmlns="http://www.w3.org/2000/svg" xml:space="preserve" width="82px" height="82px" version="1.1" style="shape-rendering:geometricPrecision; text-rendering:geometricPrecision; image-rendering:optimizeQuality; fill-rule:evenodd; clip-rule:evenodd"
viewBox="0 0 82 82"
 xmlns:xlink="http://www.w3.org/1999/xlink">
 <defs>
  <style type="text/css">
   <![CDATA[
    .str0 {stroke:#205FAD;stroke-width:2;stroke-miterlimit:22.9256}
    .fil0 {fill:#205FAD}
    .fil2 {fill:white}
    .fil3 {fill:#205FAD;fill-rule:nonzero}
    .fil1 {fill:#FFE875;fill-rule:nonzero}
   ]]>
  </style>
 </defs>
 <g id="Слой_x0020_1">
  <metadata id="CorelCorpID_0Corel-Layer"/>
  <path class="fil0" d="M38.693 81c-20.817,0 -37.693,-16.806 -37.693,-37.535 0,-20.731 16.876,-37.536 37.693,-37.536 20.817,0 37.693,16.805 37.693,37.536 0,20.729 -16.876,37.535 -37.693,37.535z"/>
  <g id="_979595056">
   <polygon class="fil1" points="22.862,52.551 21.712,51.407 28.855,44.294 30.006,45.438 "/>
   <polygon class="fil1" points="36.361,44.622 21.677,59.242 22.827,60.387 36.361,46.912 "/>
   <polygon class="fil1" points="41.128,49.965 45.674,45.438 44.525,44.294 41.128,47.676 "/>
   <polygon class="fil1" points="36.361,52.421 23.82,64.911 24.969,66.055 36.361,54.711 "/>
   <polygon class="fil1" points="41.128,57.765 53.507,45.438 52.358,44.294 41.128,55.475 "/>
   <polygon class="fil1" points="36.361,60.222 31.653,64.911 32.802,66.055 36.361,62.512 "/>
   <polygon class="fil1" points="41.128,65.564 55.648,51.107 54.498,49.963 41.128,63.276 "/>
   <polygon class="fil1" points="48.471,66.055 47.321,64.911 54.559,57.705 55.708,58.85 "/>
   <polygon class="fil1" points="47.575,30.685 47.575,39.678 29.811,39.678 29.811,30.685 28.185,30.685 28.185,41.297 49.201,41.297 49.201,30.685 "/>
   <path class="fil1" d="M28.483 29.745l20.42 0 0 -1.766 -20.42 0 0 1.766zm22.046 1.619l-23.672 0 0 -5.005 23.672 0 0 5.005z"/>
   <polygon class="fil1" points="40.318,45.135 40.318,64.44 37.066,64.44 37.066,45.135 35.44,45.135 35.44,66.059 41.944,66.059 41.944,45.135 "/>
   <path class="fil1" d="M33.595 20.584c-0.913,0 -1.658,0.74 -1.658,1.649 0,0.911 0.745,1.65 1.658,1.65 0.551,0 2.093,-0.77 3.549,-1.65 -1.456,-0.878 -2.998,-1.649 -3.549,-1.649zm0 4.919c-1.81,0 -3.284,-1.467 -3.284,-3.27 0,-1.801 1.474,-3.268 3.284,-3.268 1.532,0 4.862,2.162 5.515,2.595l1.013 0.673 -1.013 0.673c-0.653,0.433 -3.983,2.597 -5.515,2.597z"/>
   <path class="fil1" d="M40.242 22.233c1.456,0.88 2.998,1.65 3.55,1.65 0.912,0 1.655,-0.739 1.655,-1.65 0,-0.909 -0.743,-1.649 -1.655,-1.649 -0.552,0 -2.096,0.771 -3.55,1.649zm3.55 3.27c-1.535,0 -4.865,-2.164 -5.518,-2.597l-1.011 -0.673 1.013 -0.673c0.651,-0.433 3.983,-2.595 5.516,-2.595 1.809,0 3.281,1.467 3.281,3.268 0,1.803 -1.472,3.27 -3.281,3.27z"/>
   <polygon class="fil1" points="55.78,66.341 21.604,66.341 21.604,45.066 23.23,45.066 23.23,64.722 54.154,64.722 54.154,45.066 55.78,45.066 "/>
   <path class="fil1" d="M21.072 43.809l35.241 0 0 -2.57 -35.241 0 0 2.57zm36.868 1.62l-38.494 0 0 -5.809 38.494 0 0 5.809z"/>
  </g>
  <path class="fil2 str0" d="M68.787 1c6.745,0 12.213,5.445 12.213,12.162 0,6.717 -5.468,12.162 -12.213,12.162 -6.745,0 -12.214,-5.445 -12.214,-12.162 0,-6.717 5.469,-12.162 12.214,-12.162z"/>
  <path class="fil3" d="M69.911 17.584c0,0.309 -0.126,0.589 -0.33,0.791l-0.001 0c-0.204,0.202 -0.484,0.328 -0.793,0.328 -0.309,0 -0.59,-0.126 -0.793,-0.328l-0.002 0c-0.203,-0.202 -0.329,-0.482 -0.329,-0.791 0,-0.308 0.126,-0.587 0.329,-0.79l0 -0.002c0.203,-0.202 0.484,-0.327 0.795,-0.327 0.309,0 0.589,0.125 0.793,0.327l0.001 0c0.204,0.203 0.33,0.483 0.33,0.792zm-1.124 -1.756c-0.213,0 -0.406,-0.086 -0.546,-0.225 -0.139,-0.139 -0.225,-0.331 -0.225,-0.543 0,-0.666 0.236,-1.173 0.576,-1.59 0.317,-0.389 0.71,-0.679 1.079,-0.951 0.626,-0.461 1.165,-0.859 1.165,-1.606 0,-0.516 -0.201,-0.951 -0.547,-1.255 -0.359,-0.316 -0.88,-0.501 -1.502,-0.501 -0.612,0 -1.126,0.208 -1.484,0.564 -0.357,0.356 -0.566,0.868 -0.566,1.477 0,0.212 -0.086,0.404 -0.225,0.543 -0.14,0.139 -0.333,0.225 -0.546,0.225 -0.211,0 -0.404,-0.086 -0.544,-0.225l-0.001 -0.001c-0.14,-0.14 -0.226,-0.332 -0.226,-0.542 0,-1.03 0.379,-1.923 1.02,-2.561 0.64,-0.638 1.537,-1.015 2.572,-1.015 1.026,0 1.918,0.342 2.557,0.921 0.65,0.589 1.034,1.415 1.034,2.37 0,0.762 -0.252,1.331 -0.615,1.79 -0.343,0.434 -0.773,0.751 -1.175,1.048 -0.553,0.408 -1.03,0.76 -1.03,1.309 0,0.211 -0.087,0.403 -0.226,0.542l-0.001 0.001c-0.14,0.139 -0.333,0.225 -0.544,0.225z"/>
 </g>
</svg>
