<?xml version="1.0" encoding="UTF-8"?>
<!DOCTYPE svg PUBLIC "-//W3C//DTD SVG 1.1//EN" "http://www.w3.org/Graphics/SVG/1.1/DTD/svg11.dtd">
<!-- Creator: CorelDRAW 2017 -->
<svg xmlns="http://www.w3.org/2000/svg" xml:space="preserve" width="82px" height="82px" version="1.1" style="shape-rendering:geometricPrecision; text-rendering:geometricPrecision; image-rendering:optimizeQuality; fill-rule:evenodd; clip-rule:evenodd"
viewBox="0 0 82 82"
 xmlns:xlink="http://www.w3.org/1999/xlink">
 <defs>
  <style type="text/css">
   <![CDATA[
    .str0 {stroke:#205FAD;stroke-width:2;stroke-miterlimit:22.9256}
    .fil0 {fill:#205FAD}
    .fil2 {fill:white}
    .fil3 {fill:#205FAD;fill-rule:nonzero}
    .fil1 {fill:#FFE875;fill-rule:nonzero}
   ]]>
  </style>
 </defs>
 <g id="Слой_x0020_1">
  <metadata id="CorelCorpID_0Corel-Layer"/>
  <path class="fil0" d="M38.623 81c-20.779,0 -37.623,-16.901 -37.623,-37.75 0,-20.848 16.844,-37.749 37.623,-37.749 20.778,0 37.622,16.901 37.622,37.749 0,20.849 -16.844,37.75 -37.622,37.75z"/>
  <path class="fil1" d="M20.674 41.527c0.095,-0.596 0.218,-1.185 0.369,-1.765 0.226,-0.871 0.514,-1.719 0.859,-2.538l1.795 0.759c-0.307,0.729 -0.565,1.488 -0.768,2.269 -0.108,0.417 -0.201,0.842 -0.277,1.275l3.656 0 0 1.962 -14.666 0 0 -1.962 9.032 0zm-5.121 6.867l5.303 0c-0.056,-0.265 -0.107,-0.531 -0.152,-0.798 -0.115,-0.682 -0.193,-1.38 -0.232,-2.091l1.947 -0.108c0.035,0.633 0.106,1.26 0.209,1.877 0.064,0.381 0.14,0.754 0.228,1.12l6.385 0 0 1.962 -13.688 0 0 -1.962zm1.956 -14.715l6.364 0c1.658,-2.339 3.841,-4.277 6.375,-5.641 2.344,-1.262 4.987,-2.034 7.792,-2.181l0 -1.988 -1.956 0 0 -1.961 5.866 0 0 1.961 -1.955 0 0 1.988c3.653,0.19 7.027,1.439 9.822,3.447l1.506 -1.511 -1.265 -1.268 1.383 -1.387 3.911 3.924 -1.383 1.387 -1.264 -1.269 -1.351 1.356c0.273,0.244 0.54,0.495 0.798,0.755 3.362,3.372 5.441,8.033 5.441,13.179 0,5.147 -2.079,9.807 -5.441,13.179 -3.361,3.373 -8.005,5.46 -13.135,5.46 -3.581,0 -6.93,-1.022 -9.773,-2.79 -2.935,-1.827 -5.327,-4.451 -6.871,-7.57l1.749 -0.866c1.382,2.792 3.521,5.14 6.146,6.773 2.538,1.579 5.535,2.491 8.749,2.491 4.59,0 8.746,-1.867 11.753,-4.884 3.007,-3.018 4.868,-7.188 4.868,-11.793 0,-4.605 -1.861,-8.775 -4.868,-11.792 -3.007,-3.018 -7.163,-4.884 -11.753,-4.884 -2.84,0 -5.512,0.712 -7.845,1.968 -1.847,0.994 -3.484,2.328 -4.83,3.917l5.832 0 0 1.962 -14.665 0 0 -1.962zm19.522 14.171l-2.211 2.218 -1.382 -1.387 2.212 -2.219c-0.345,-0.585 -0.544,-1.266 -0.544,-1.992 0,-1.08 0.439,-2.061 1.148,-2.773 0.705,-0.711 1.684,-1.151 2.763,-1.151 0.724,0 1.402,0.199 1.985,0.545l7.101 -7.124 1.382 1.387 -7.101 7.124c0.346,0.585 0.544,1.267 0.544,1.992 0,1.083 -0.438,2.065 -1.145,2.774 -0.02,0.021 -0.041,0.04 -0.062,0.057 -0.703,0.677 -1.656,1.093 -2.704,1.093 -0.724,0 -1.404,-0.199 -1.986,-0.544zm3.369 -1.993c0.354,-0.354 0.573,-0.845 0.573,-1.387 0,-0.545 -0.218,-1.036 -0.569,-1.388l-0.004 -0.004c-0.351,-0.352 -0.84,-0.57 -1.383,-0.57 -0.54,0 -1.029,0.22 -1.382,0.574l-0.004 0c-0.352,0.352 -0.569,0.844 -0.569,1.388 0,0.524 0.202,0.999 0.53,1.348l0.043 0.039c0.353,0.355 0.842,0.575 1.382,0.575 0.521,0 0.994,-0.203 1.344,-0.533l0.039 -0.042z"/>
  <path class="fil2 str0" d="M68.81 1c6.732,0 12.19,5.476 12.19,12.232 0,6.755 -5.458,12.231 -12.19,12.231 -6.733,0 -12.191,-5.476 -12.191,-12.231 0,-6.756 5.458,-12.232 12.191,-12.232z"/>
  <path class="fil3" d="M69.931 17.679c0,0.31 -0.125,0.592 -0.328,0.795l-0.002 0c-0.203,0.204 -0.483,0.33 -0.791,0.33 -0.309,0 -0.589,-0.126 -0.792,-0.33l-0.002 0c-0.203,-0.203 -0.328,-0.485 -0.328,-0.795 0,-0.31 0.125,-0.591 0.328,-0.795l0 -0.001c0.203,-0.204 0.484,-0.33 0.794,-0.33 0.308,0 0.588,0.126 0.791,0.33l0.002 0c0.203,0.203 0.328,0.485 0.328,0.796zm-1.121 -1.766c-0.213,0 -0.405,-0.086 -0.545,-0.226 -0.139,-0.14 -0.225,-0.333 -0.225,-0.547 0,-0.669 0.236,-1.179 0.575,-1.599 0.317,-0.391 0.71,-0.682 1.077,-0.956 0.624,-0.464 1.163,-0.865 1.163,-1.615 0,-0.519 -0.201,-0.957 -0.546,-1.262 -0.358,-0.319 -0.878,-0.504 -1.499,-0.504 -0.611,0 -1.124,0.209 -1.481,0.566 -0.357,0.359 -0.565,0.874 -0.565,1.486 0,0.214 -0.086,0.407 -0.226,0.547 -0.138,0.139 -0.331,0.226 -0.544,0.226 -0.211,0 -0.403,-0.087 -0.542,-0.226l-0.002 -0.002c-0.14,-0.14 -0.225,-0.333 -0.225,-0.545 0,-1.036 0.378,-1.934 1.018,-2.575 0.639,-0.642 1.534,-1.022 2.567,-1.022 1.024,0 1.914,0.345 2.552,0.927 0.649,0.592 1.033,1.423 1.033,2.384 0,0.767 -0.252,1.338 -0.614,1.8 -0.343,0.437 -0.772,0.755 -1.174,1.054 -0.552,0.41 -1.028,0.764 -1.028,1.316 0,0.212 -0.086,0.405 -0.225,0.545l-0.002 0.002c-0.139,0.139 -0.331,0.226 -0.542,0.226z"/>
 </g>
</svg>
