<?xml version="1.0" encoding="UTF-8"?>
<!DOCTYPE svg PUBLIC "-//W3C//DTD SVG 1.1//EN" "http://www.w3.org/Graphics/SVG/1.1/DTD/svg11.dtd">
<!-- Creator: CorelDRAW 2017 -->
<svg xmlns="http://www.w3.org/2000/svg" xml:space="preserve" width="82px" height="82px" version="1.1" style="shape-rendering:geometricPrecision; text-rendering:geometricPrecision; image-rendering:optimizeQuality; fill-rule:evenodd; clip-rule:evenodd"
viewBox="0 0 82 82"
 xmlns:xlink="http://www.w3.org/1999/xlink">
 <defs>
  <style type="text/css">
   <![CDATA[
    .str0 {stroke:#205FAD;stroke-width:2;stroke-miterlimit:22.9256}
    .fil0 {fill:#205FAD}
    .fil2 {fill:white}
    .fil3 {fill:#205FAD;fill-rule:nonzero}
    .fil1 {fill:#FFE875;fill-rule:nonzero}
   ]]>
  </style>
 </defs>
 <g id="Слой_x0020_1">
  <metadata id="CorelCorpID_0Corel-Layer"/>
  <path class="fil0" d="M38.693 81c-20.817,0 -37.693,-16.741 -37.693,-37.392 0,-20.651 16.876,-37.391 37.693,-37.391 20.817,0 37.693,16.74 37.693,37.391 0,20.651 -16.876,37.392 -37.693,37.392z"/>
  <path class="fil1" d="M33.111 64.865c-3.79,0 -6.872,-3.059 -6.872,-6.818l1.492 0c0,2.943 2.413,5.338 5.38,5.338l0 1.48zm4.747 -42.112c0,-0.106 -0.044,-0.198 -0.133,-0.272 -0.088,-0.077 -0.22,-0.153 -0.396,-0.232l0 0.959c0.352,-0.059 0.529,-0.21 0.529,-0.455zm-1.564 -2.34c0,0.114 0.041,0.207 0.12,0.279 0.078,0.073 0.207,0.149 0.383,0.225l0 -0.906c-0.335,0.05 -0.503,0.184 -0.503,0.402zm2.733 2.281c0,0.411 -0.148,0.739 -0.447,0.987 -0.297,0.247 -0.715,0.396 -1.251,0.446l0 0.79 -0.532 0 0 -0.775c-0.633,-0.013 -1.188,-0.124 -1.664,-0.332l0 -1.017c0.226,0.109 0.496,0.207 0.814,0.292 0.318,0.086 0.601,0.134 0.85,0.151l0 -1.196 -0.261 -0.101c-0.513,-0.198 -0.877,-0.417 -1.09,-0.653 -0.214,-0.236 -0.32,-0.526 -0.32,-0.873 0,-0.373 0.145,-0.679 0.44,-0.919 0.294,-0.241 0.705,-0.387 1.231,-0.439l0 -0.59 0.532 0 0 0.574c0.593,0.027 1.13,0.145 1.609,0.356l-0.365 0.902c-0.405,-0.163 -0.819,-0.264 -1.244,-0.301l0 1.137c0.505,0.193 0.865,0.361 1.078,0.503 0.214,0.139 0.371,0.296 0.47,0.465 0.101,0.17 0.15,0.369 0.15,0.593zm-7.805 8.261c0,-0.107 -0.043,-0.199 -0.132,-0.273 -0.088,-0.077 -0.22,-0.153 -0.396,-0.231l0 0.958c0.352,-0.059 0.528,-0.209 0.528,-0.454zm-1.563 -2.341c0,0.114 0.041,0.208 0.119,0.28 0.079,0.072 0.207,0.148 0.384,0.225l0 -0.906c-0.335,0.05 -0.503,0.183 -0.503,0.401zm2.733 2.282c0,0.41 -0.148,0.738 -0.447,0.987 -0.297,0.247 -0.715,0.395 -1.251,0.445l0 0.791 -0.532 0 0 -0.775c-0.633,-0.013 -1.188,-0.125 -1.664,-0.332l0 -1.018c0.226,0.109 0.496,0.208 0.814,0.293 0.318,0.085 0.601,0.133 0.85,0.15l0 -1.196 -0.261 -0.1c-0.513,-0.199 -0.877,-0.417 -1.09,-0.653 -0.214,-0.236 -0.32,-0.526 -0.32,-0.874 0,-0.373 0.145,-0.679 0.44,-0.919 0.294,-0.24 0.705,-0.386 1.231,-0.439l0 -0.589 0.532 0 0 0.574c0.592,0.026 1.13,0.144 1.609,0.356l-0.365 0.902c-0.405,-0.164 -0.819,-0.265 -1.244,-0.302l0 1.138c0.505,0.192 0.865,0.36 1.078,0.502 0.214,0.14 0.371,0.297 0.47,0.465 0.101,0.17 0.15,0.369 0.15,0.594zm4.479 -13.267c-2.3,0 -4.173,1.859 -4.173,4.14 0,0.63 0.143,1.228 0.398,1.763 -0.549,-0.241 -1.136,-0.415 -1.748,-0.512 -0.092,-0.402 -0.142,-0.821 -0.142,-1.251 0,-3.098 2.541,-5.62 5.665,-5.62 3.124,0 5.665,2.522 5.665,5.62 0,3.098 -2.541,5.62 -5.665,5.62l-0.037 -0.001c-0.226,-0.567 -0.525,-1.098 -0.884,-1.581 0.297,0.066 0.605,0.102 0.921,0.102 2.301,0 4.173,-1.858 4.173,-4.14 0,-2.281 -1.872,-4.14 -4.173,-4.14zm-6.635 8.202c-2.301,0 -4.173,1.858 -4.173,4.139 0,2.282 1.872,4.14 4.173,4.14 2.3,0 4.173,-1.858 4.173,-4.14 0,-2.281 -1.873,-4.139 -4.173,-4.139zm0 9.759c-3.124,0 -5.665,-2.522 -5.665,-5.62 0,-3.098 2.541,-5.62 5.665,-5.62 3.124,0 5.664,2.522 5.664,5.62 0,3.098 -2.54,5.62 -5.664,5.62zm10.035 0.152c0.616,0 1.118,0.497 1.118,1.109 0,0.611 -0.502,1.109 -1.118,1.109 -0.618,0 -1.119,-0.498 -1.119,-1.109 0,-0.612 0.501,-1.109 1.119,-1.109zm-3.156 2.218c-0.616,0 -1.119,-0.498 -1.119,-1.109 0,-0.612 0.503,-1.109 1.119,-1.109 0.263,0 0.504,0.09 0.696,0.241 -0.098,0.271 -0.151,0.563 -0.151,0.868 0,0.304 0.053,0.596 0.151,0.868 -0.191,0.151 -0.433,0.241 -0.696,0.241zm3.902 2.36l0 -0.988c1.077,-0.319 1.865,-1.31 1.865,-2.481 0,-1.428 -1.172,-2.59 -2.611,-2.59 -0.595,0 -1.144,0.199 -1.583,0.532 -0.437,-0.333 -0.98,-0.532 -1.573,-0.532 -1.439,0 -2.61,1.162 -2.61,2.59 0,1.171 0.787,2.162 1.864,2.481l0 0.988 -13.537 0 0 4.087 1.491 0 0 -2.607 28.74 0 0 2.607 1.492 0 0 -4.087 -13.538 0zm-3.156 0l0 -0.989c0.303,-0.091 0.582,-0.236 0.827,-0.422 0.248,0.188 0.531,0.333 0.837,0.424l0 0.987 -1.664 0zm-10.9 4.797l23.464 0 0 -1.026 -23.464 0 0 1.026zm24.955 1.478l-1.067 0c1.296,3.095 3.773,9.355 3.773,11.945 0,5.413 -4.44,9.816 -9.896,9.816l-12.068 0c-5.455,0 -9.894,-4.403 -9.894,-9.816 0,-2.59 2.478,-8.85 3.773,-11.945l-1.067 0 0 -3.985 26.446 0 0 3.985zm-2.683 0l-21.081 0c-1.426,3.364 -3.896,9.663 -3.896,11.945 0,4.596 3.768,8.336 8.402,8.336l12.068 0c4.633,0 8.404,-3.74 8.404,-8.336 0,-2.282 -2.47,-8.581 -3.897,-11.945zm-4.96 18.27l0 -1.48c2.969,0 5.382,-2.395 5.382,-5.338l1.492 0c0,3.759 -3.083,6.818 -6.874,6.818z"/>
  <path class="fil2 str0" d="M68.787 1c6.745,0 12.213,5.424 12.213,12.116 0,6.691 -5.468,12.115 -12.213,12.115 -6.745,0 -12.214,-5.424 -12.214,-12.115 0,-6.692 5.469,-12.116 12.214,-12.116z"/>
  <path class="fil3" d="M69.911 17.52c0,0.308 -0.126,0.587 -0.33,0.789l-0.001 0c-0.204,0.201 -0.484,0.326 -0.793,0.326 -0.309,0 -0.59,-0.125 -0.793,-0.326l-0.002 0c-0.203,-0.202 -0.329,-0.481 -0.329,-0.789 0,-0.306 0.126,-0.585 0.329,-0.786l0 -0.002c0.203,-0.201 0.484,-0.327 0.795,-0.327 0.309,0 0.589,0.126 0.793,0.327l0.001 0c0.204,0.202 0.33,0.481 0.33,0.788zm-1.124 -1.748c-0.213,0 -0.406,-0.086 -0.546,-0.225 -0.139,-0.138 -0.225,-0.329 -0.225,-0.54 0,-0.664 0.236,-1.169 0.576,-1.584 0.317,-0.388 0.71,-0.677 1.079,-0.947 0.626,-0.46 1.165,-0.857 1.165,-1.601 0,-0.514 -0.201,-0.947 -0.547,-1.25 -0.359,-0.315 -0.88,-0.499 -1.502,-0.499 -0.612,0 -1.126,0.207 -1.484,0.561 -0.357,0.355 -0.566,0.866 -0.566,1.472 0,0.212 -0.086,0.403 -0.225,0.541 -0.14,0.138 -0.333,0.224 -0.546,0.224 -0.211,0 -0.404,-0.085 -0.544,-0.224l-0.001 -0.001c-0.14,-0.14 -0.226,-0.33 -0.226,-0.54 0,-1.026 0.379,-1.916 1.02,-2.551 0.64,-0.636 1.537,-1.012 2.572,-1.012 1.026,0 1.918,0.342 2.557,0.918 0.65,0.587 1.034,1.41 1.034,2.361 0,0.76 -0.252,1.326 -0.615,1.783 -0.343,0.433 -0.773,0.749 -1.175,1.044 -0.553,0.407 -1.03,0.758 -1.03,1.305 0,0.21 -0.087,0.4 -0.226,0.539l-0.001 0.002c-0.14,0.138 -0.333,0.224 -0.544,0.224z"/>
 </g>
</svg>
