<?xml version="1.0" encoding="UTF-8"?>
<!DOCTYPE svg PUBLIC "-//W3C//DTD SVG 1.1//EN" "http://www.w3.org/Graphics/SVG/1.1/DTD/svg11.dtd">
<!-- Creator: CorelDRAW 2017 -->
<svg xmlns="http://www.w3.org/2000/svg" xml:space="preserve" width="82px" height="82px" version="1.1" style="shape-rendering:geometricPrecision; text-rendering:geometricPrecision; image-rendering:optimizeQuality; fill-rule:evenodd; clip-rule:evenodd"
viewBox="0 0 82 82"
 xmlns:xlink="http://www.w3.org/1999/xlink">
 <defs>
  <style type="text/css">
   <![CDATA[
    .str0 {stroke:#205FAD;stroke-width:2;stroke-miterlimit:22.9256}
    .fil0 {fill:#205FAD}
    .fil1 {fill:white}
    .fil2 {fill:#205FAD;fill-rule:nonzero}
    .fil3 {fill:#FFE875;fill-rule:nonzero}
   ]]>
  </style>
 </defs>
 <g id="Слой_x0020_1">
  <metadata id="CorelCorpID_0Corel-Layer"/>
  <path class="fil0" d="M38.623 81c-20.779,0 -37.623,-16.901 -37.623,-37.749 0,-20.849 16.844,-37.75 37.623,-37.75 20.778,0 37.622,16.901 37.622,37.75 0,20.848 -16.844,37.749 -37.622,37.749z"/>
  <path class="fil1 str0" d="M68.81 1c6.732,0 12.19,5.476 12.19,12.232 0,6.755 -5.458,12.231 -12.19,12.231 -6.733,0 -12.191,-5.476 -12.191,-12.231 0,-6.756 5.458,-12.232 12.191,-12.232z"/>
  <path class="fil2" d="M69.931 17.679c0,0.31 -0.125,0.592 -0.328,0.795l-0.002 0c-0.203,0.204 -0.483,0.33 -0.791,0.33 -0.309,0 -0.589,-0.126 -0.792,-0.33l-0.002 0c-0.203,-0.203 -0.328,-0.485 -0.328,-0.795 0,-0.31 0.125,-0.591 0.328,-0.795l0 -0.001c0.203,-0.204 0.484,-0.33 0.794,-0.33 0.308,0 0.588,0.126 0.791,0.33l0.002 0c0.203,0.203 0.328,0.485 0.328,0.796zm-1.121 -1.766c-0.213,0 -0.405,-0.086 -0.545,-0.226 -0.139,-0.14 -0.225,-0.333 -0.225,-0.547 0,-0.669 0.236,-1.179 0.575,-1.599 0.317,-0.391 0.71,-0.682 1.077,-0.956 0.624,-0.464 1.163,-0.865 1.163,-1.615 0,-0.519 -0.201,-0.957 -0.546,-1.262 -0.358,-0.319 -0.878,-0.504 -1.499,-0.504 -0.611,0 -1.124,0.209 -1.481,0.566 -0.357,0.359 -0.565,0.874 -0.565,1.486 0,0.214 -0.086,0.407 -0.226,0.547 -0.138,0.139 -0.331,0.226 -0.544,0.226 -0.211,0 -0.403,-0.087 -0.542,-0.226l-0.002 -0.002c-0.14,-0.14 -0.225,-0.333 -0.225,-0.545 0,-1.036 0.378,-1.934 1.018,-2.575 0.639,-0.642 1.534,-1.022 2.567,-1.022 1.024,0 1.914,0.345 2.552,0.927 0.649,0.592 1.033,1.423 1.033,2.384 0,0.767 -0.252,1.338 -0.614,1.8 -0.343,0.437 -0.772,0.755 -1.174,1.054 -0.552,0.41 -1.028,0.764 -1.028,1.316 0,0.212 -0.086,0.405 -0.225,0.545l-0.002 0.002c-0.139,0.139 -0.331,0.226 -0.542,0.226z"/>
  <path class="fil3" d="M46.579 34.69c-0.22,0.46 -0.463,0.9 -0.724,1.317 -0.266,0.425 -0.553,0.829 -0.856,1.207 -0.307,0.383 -0.632,0.741 -0.97,1.07 -0.394,0.384 -0.807,0.731 -1.234,1.035 -0.428,0.304 -0.87,0.568 -1.32,0.786 -0.443,0.214 -0.895,0.384 -1.349,0.505 -0.448,0.12 -0.9,0.193 -1.35,0.215l-0.089 -0.001c-0.452,-0.023 -0.904,-0.097 -1.351,-0.217 -0.454,-0.122 -0.906,-0.293 -1.351,-0.509 -0.45,-0.218 -0.892,-0.483 -1.32,-0.788 -0.427,-0.306 -0.84,-0.654 -1.233,-1.038 -0.338,-0.33 -0.663,-0.689 -0.969,-1.071 -0.303,-0.379 -0.589,-0.782 -0.855,-1.207 -0.26,-0.416 -0.502,-0.855 -0.721,-1.314 -0.215,-0.449 -0.407,-0.915 -0.574,-1.394l-0.02 -0.058 -0.06 0.005c-0.123,0.01 -0.247,0.009 -0.37,-0.003 -0.125,-0.012 -0.247,-0.035 -0.363,-0.068 -0.118,-0.033 -0.233,-0.077 -0.343,-0.131 -0.112,-0.053 -0.217,-0.117 -0.315,-0.188l-0.219 -0.159 0.011 -0.011c-0.061,-0.058 -0.119,-0.119 -0.172,-0.182 -0.066,-0.079 -0.127,-0.165 -0.182,-0.255 -0.07,-0.116 -0.13,-0.24 -0.178,-0.371 -0.046,-0.126 -0.08,-0.258 -0.101,-0.396l-0.598 -3.856c-0.022,-0.135 -0.029,-0.273 -0.023,-0.409 0.005,-0.138 0.025,-0.275 0.057,-0.406 0.033,-0.136 0.079,-0.266 0.135,-0.387 0.058,-0.123 0.128,-0.242 0.209,-0.354 0.055,-0.076 0.115,-0.148 0.18,-0.216 0.065,-0.067 0.135,-0.131 0.207,-0.189 0.072,-0.057 0.149,-0.11 0.23,-0.159 0.083,-0.048 0.166,-0.091 0.249,-0.127l0.056 -0.023 -0.032 -0.195c-0.015,-0.1 -0.028,-0.191 -0.038,-0.274 -0.01,-0.094 -0.02,-0.188 -0.027,-0.281 -0.007,-0.081 -0.012,-0.171 -0.016,-0.27 -0.004,-0.102 -0.006,-0.193 -0.006,-0.27l0 -1.418c0,-0.474 0.047,-0.939 0.136,-1.389 0.092,-0.461 0.228,-0.907 0.404,-1.331 0.18,-0.433 0.402,-0.847 0.66,-1.234 0.263,-0.393 0.561,-0.757 0.889,-1.086 0.33,-0.331 0.693,-0.63 1.082,-0.892 0.387,-0.26 0.799,-0.483 1.231,-0.664 0.424,-0.177 0.868,-0.314 1.327,-0.406 0.449,-0.09 0.912,-0.137 1.385,-0.137l0.118 0 0.023 -0.039c0.101,-0.173 0.236,-0.326 0.4,-0.457 0.162,-0.13 0.353,-0.238 0.571,-0.325 0.231,-0.092 0.489,-0.16 0.769,-0.203 0.275,-0.043 0.578,-0.062 0.903,-0.058 0.294,0.004 0.605,0.025 0.927,0.065 0.32,0.039 0.658,0.096 1.011,0.172 0.342,0.072 0.696,0.163 1.057,0.27 0.351,0.105 0.709,0.225 1.069,0.362l0.236 0.091 0.221 0.091 0.217 0.092 0.225 0.099 0.198 0.092c0.204,0.099 0.409,0.214 0.611,0.307 0.319,0.136 0.627,0.294 0.92,0.472 0.298,0.183 0.583,0.386 0.85,0.608 0.266,0.221 0.519,0.464 0.754,0.726 0.232,0.257 0.447,0.533 0.641,0.824 0.194,0.292 0.367,0.598 0.517,0.915 0.148,0.312 0.274,0.638 0.377,0.975 0.1,0.332 0.177,0.672 0.228,1.017 0.05,0.341 0.076,0.69 0.076,1.043l0 1.418c0,0.077 -0.002,0.168 -0.006,0.27 -0.004,0.099 -0.009,0.188 -0.016,0.27 -0.007,0.095 -0.017,0.191 -0.028,0.284 -0.01,0.085 -0.022,0.176 -0.038,0.272l-0.031 0.193 0.056 0.024c0.086,0.037 0.169,0.079 0.249,0.127 0.081,0.049 0.158,0.102 0.23,0.159 0.073,0.06 0.142,0.122 0.204,0.187 0.064,0.066 0.124,0.137 0.178,0.212l0.048 0.07c0.072,0.107 0.135,0.222 0.187,0.343 0.052,0.12 0.093,0.245 0.122,0.372 0.028,0.127 0.045,0.257 0.049,0.388 0.004,0.127 -0.004,0.258 -0.024,0.389l-0.597 3.856c-0.021,0.138 -0.056,0.271 -0.101,0.396 -0.047,0.129 -0.108,0.253 -0.178,0.369 -0.072,0.119 -0.156,0.229 -0.248,0.329 -0.091,0.1 -0.194,0.192 -0.306,0.274l-0.062 0.045 -0.003 0c-0.063,0.043 -0.129,0.083 -0.196,0.118 -0.091,0.048 -0.185,0.09 -0.281,0.124 -0.098,0.034 -0.197,0.061 -0.297,0.08 -0.097,0.019 -0.199,0.03 -0.303,0.035l-0.053 0.002 -0.017 0.05c-0.168,0.481 -0.361,0.948 -0.576,1.399zm-2.755 1.364c0.29,-0.372 0.563,-0.773 0.814,-1.2 0.243,-0.414 0.466,-0.852 0.663,-1.31 0.193,-0.449 0.361,-0.914 0.499,-1.391l0.002 -0.005c0.025,-0.1 0.068,-0.191 0.125,-0.272 0.057,-0.083 0.131,-0.155 0.216,-0.211 0.082,-0.055 0.177,-0.096 0.277,-0.118 0.095,-0.022 0.196,-0.026 0.301,-0.01l0.348 0.055c0.029,0.004 0.059,0.005 0.09,0.004 0.028,-0.001 0.057,-0.005 0.084,-0.012 0.03,-0.007 0.058,-0.017 0.083,-0.029 0.026,-0.012 0.052,-0.028 0.078,-0.046 0.024,-0.018 0.046,-0.038 0.066,-0.06 0.019,-0.02 0.037,-0.043 0.053,-0.069 0.014,-0.022 0.026,-0.048 0.037,-0.078 0.01,-0.027 0.018,-0.056 0.022,-0.085l0.596 -3.854c0.004,-0.031 0.006,-0.059 0.006,-0.082 0,-0.023 -0.004,-0.049 -0.009,-0.075 -0.005,-0.027 -0.012,-0.052 -0.02,-0.074 -0.01,-0.025 -0.022,-0.049 -0.035,-0.072l-0.024 -0.033c-0.014,-0.019 -0.03,-0.037 -0.049,-0.056 -0.017,-0.017 -0.037,-0.033 -0.06,-0.049 -0.021,-0.016 -0.044,-0.029 -0.069,-0.041 -0.021,-0.01 -0.043,-0.018 -0.068,-0.025 -0.019,-0.009 -0.362,-0.055 -0.411,-0.062l0 -0.002c-0.063,-0.01 -0.131,-0.02 -0.191,-0.04 -0.107,-0.035 -0.201,-0.088 -0.281,-0.155 -0.083,-0.072 -0.151,-0.157 -0.199,-0.251l-0.026 -0.051 0 -0.008c-0.034,-0.08 -0.055,-0.165 -0.062,-0.251 -0.008,-0.104 0.003,-0.211 0.037,-0.318l0.063 -0.209c0.021,-0.078 0.039,-0.145 0.052,-0.2l0.041 -0.196c0.015,-0.078 0.028,-0.149 0.038,-0.213l0.027 -0.208c0.008,-0.067 0.015,-0.135 0.02,-0.204 0.005,-0.08 0.009,-0.153 0.012,-0.217l0.003 -0.218 0 -1.418c0,-0.274 -0.02,-0.542 -0.058,-0.803 -0.039,-0.267 -0.098,-0.529 -0.175,-0.784 -0.078,-0.259 -0.174,-0.509 -0.287,-0.747 -0.115,-0.244 -0.248,-0.479 -0.395,-0.701 -0.151,-0.225 -0.317,-0.44 -0.497,-0.639 -0.181,-0.201 -0.377,-0.389 -0.586,-0.562 -0.168,-0.139 -0.348,-0.27 -0.536,-0.391 -0.185,-0.119 -0.377,-0.227 -0.575,-0.324l-0.158 -0.076c-0.253,-0.106 -0.498,-0.242 -0.746,-0.363l-0.19 -0.087 -0.202 -0.09 -0.2 -0.086 -0.196 -0.08 -0.203 -0.079c-0.316,-0.12 -0.63,-0.226 -0.94,-0.32 -0.313,-0.094 -0.619,-0.174 -0.913,-0.238 -0.301,-0.065 -0.592,-0.116 -0.87,-0.15 -0.282,-0.036 -0.545,-0.055 -0.784,-0.058 -0.157,-0.002 -0.305,0 -0.439,0.006 -0.13,0.005 -0.243,0.014 -0.338,0.026 -0.114,0.015 -0.21,0.038 -0.284,0.068 -0.055,0.023 -0.094,0.047 -0.115,0.074l-0.018 0.022 0.007 0.3 -0.039 0c-0.008,0.028 -0.018,0.056 -0.029,0.083 -0.041,0.101 -0.102,0.192 -0.177,0.267l-0.016 0.015c-0.072,0.069 -0.158,0.126 -0.253,0.165 -0.098,0.04 -0.204,0.063 -0.313,0.063l-0.75 0c-0.365,0 -0.721,0.036 -1.065,0.105 -0.355,0.071 -0.697,0.176 -1.022,0.312 -0.335,0.138 -0.651,0.309 -0.946,0.507 -0.274,0.184 -0.53,0.392 -0.766,0.621l-0.064 0.064c-0.254,0.256 -0.484,0.536 -0.684,0.836 -0.198,0.296 -0.368,0.614 -0.507,0.949 -0.135,0.327 -0.24,0.671 -0.311,1.027 -0.069,0.345 -0.105,0.703 -0.105,1.068l0 1.418 0.003 0.218c0.002,0.064 0.007,0.137 0.012,0.217 0.005,0.068 0.012,0.136 0.02,0.205 0.009,0.078 0.018,0.147 0.027,0.206l0.034 0.195c0.011,0.059 0.025,0.12 0.039,0.184 0.013,0.057 0.029,0.12 0.048,0.189 0.033,0.114 0.085,0.259 0.105,0.379 0.016,0.109 0.01,0.218 -0.015,0.32 -0.026,0.107 -0.073,0.206 -0.136,0.293 -0.064,0.085 -0.144,0.159 -0.237,0.216 -0.09,0.054 -0.192,0.092 -0.302,0.109l-0.351 0.053 -0.001 -0.003 -0.083 0.013c-0.029,0.005 -0.057,0.013 -0.082,0.023 -0.029,0.011 -0.055,0.025 -0.079,0.039 -0.023,0.014 -0.045,0.033 -0.067,0.053 -0.021,0.02 -0.04,0.042 -0.058,0.066 -0.018,0.025 -0.033,0.051 -0.046,0.078 -0.013,0.027 -0.023,0.054 -0.029,0.081 -0.008,0.031 -0.013,0.06 -0.014,0.088l0 0.002c-0.001,0.021 0,0.043 0.003,0.067l0.6 3.872c0.004,0.023 0.009,0.045 0.015,0.066 0.007,0.02 0.016,0.042 0.027,0.063l0.049 0.101 0.09 0.064c0.023,0.017 0.048,0.032 0.076,0.045 0.027,0.013 0.055,0.023 0.083,0.029 0.027,0.007 0.055,0.011 0.084,0.012 0.028,0.001 0.058,0 0.09,-0.005l0.548 -0.085c0.104,-0.024 0.208,-0.027 0.308,-0.012 0.104,0.015 0.204,0.052 0.294,0.105 0.089,0.052 0.169,0.122 0.233,0.206 0.062,0.081 0.11,0.175 0.139,0.279 0.139,0.488 0.306,0.959 0.497,1.409 0.195,0.461 0.418,0.904 0.664,1.326 0.25,0.428 0.523,0.834 0.816,1.212 0.296,0.383 0.612,0.738 0.942,1.062 0.32,0.312 0.654,0.594 0.997,0.844 0.343,0.25 0.693,0.464 1.045,0.641 0.351,0.177 0.71,0.318 1.069,0.42 0.351,0.099 0.702,0.161 1.048,0.181l0.009 0c0.345,-0.02 0.695,-0.081 1.044,-0.18 0.356,-0.1 0.713,-0.24 1.065,-0.417 0.353,-0.177 0.701,-0.39 1.04,-0.636 0.342,-0.249 0.676,-0.53 0.995,-0.841 0.329,-0.321 0.644,-0.672 0.938,-1.051zm10.05 21.563c0.1,0.041 0.191,0.102 0.267,0.177l0.002 0.002c0.075,0.076 0.136,0.167 0.177,0.268 0.041,0.098 0.063,0.205 0.063,0.315 0,0.11 -0.023,0.216 -0.063,0.314 -0.042,0.102 -0.103,0.193 -0.178,0.268 -0.076,0.077 -0.167,0.138 -0.268,0.18 -0.097,0.04 -0.204,0.063 -0.313,0.063l-6.802 0c-0.11,0 -0.217,-0.023 -0.315,-0.063 -0.101,-0.042 -0.191,-0.104 -0.267,-0.18 -0.075,-0.076 -0.136,-0.167 -0.178,-0.267 -0.04,-0.099 -0.062,-0.205 -0.062,-0.315 0,-0.11 0.022,-0.217 0.062,-0.315 0.042,-0.101 0.103,-0.192 0.178,-0.268 0.076,-0.076 0.167,-0.137 0.268,-0.179 0.098,-0.04 0.204,-0.063 0.314,-0.063l6.802 0c0.109,0 0.215,0.023 0.313,0.063zm-36.559 4.781c-0.03,0.104 -0.082,0.201 -0.149,0.284 -0.066,0.083 -0.15,0.154 -0.245,0.206 -0.093,0.05 -0.196,0.084 -0.305,0.095 -0.112,0.012 -0.219,0.001 -0.319,-0.029 -0.105,-0.031 -0.201,-0.082 -0.284,-0.149 -0.083,-0.067 -0.153,-0.15 -0.204,-0.244 -0.05,-0.093 -0.084,-0.196 -0.096,-0.305 -0.332,-3.033 -1.129,-7.602 -1.133,-10.475l-0.002 0 0 -1.005c0,-0.314 0.033,-0.615 0.095,-0.902 0.062,-0.286 0.154,-0.559 0.27,-0.816 0.125,-0.277 0.279,-0.537 0.457,-0.781 0.185,-0.255 0.397,-0.491 0.628,-0.71 0.231,-0.218 0.484,-0.418 0.752,-0.601 0.281,-0.191 0.577,-0.362 0.881,-0.512 0.327,-0.161 0.661,-0.298 0.993,-0.411 0.347,-0.119 0.699,-0.213 1.042,-0.283 0.404,-0.082 1.06,-0.22 1.867,-0.404 0.555,-0.126 1.185,-0.276 1.859,-0.445 0.559,-0.141 1.136,-0.292 1.706,-0.451 0.506,-0.141 1.02,-0.291 1.528,-0.449 0.433,-0.136 0.854,-0.275 1.253,-0.416 0.374,-0.133 0.726,-0.266 1.047,-0.4 0.297,-0.123 0.573,-0.249 0.821,-0.376 0.245,-0.125 0.459,-0.249 0.633,-0.37 0.024,-0.017 0.051,-0.033 0.08,-0.049 0.027,-0.014 0.056,-0.028 0.085,-0.039 0.029,-0.012 0.059,-0.022 0.088,-0.03 0.032,-0.008 0.063,-0.015 0.091,-0.019 0.067,-0.01 0.144,-0.026 0.211,-0.03 0.095,-0.006 0.189,0.006 0.278,0.032 0.09,0.026 0.175,0.068 0.252,0.124 0.085,0.061 0.159,0.14 0.216,0.232 0.054,0.088 0.093,0.188 0.111,0.296 0.638,3.579 1.456,7.232 2.265,10.854 0.32,1.432 0.64,2.859 0.942,4.254l1.623 -8.398 -0.692 -1.795c-0.412,-1.073 -0.825,-2.148 -1.287,-3.319l-0.001 -0.004c-0.039,-0.102 -0.055,-0.208 -0.052,-0.312 0.003,-0.109 0.028,-0.215 0.07,-0.311 0.043,-0.097 0.105,-0.187 0.183,-0.262 0.074,-0.071 0.163,-0.129 0.264,-0.169 0.023,-0.012 0.059,-0.021 0.084,-0.029 0.083,-0.019 0.133,-0.025 0.218,-0.029l0.078 0 0 -0.003 6.58 0c0.109,0 0.216,0.023 0.314,0.063 0.1,0.041 0.191,0.102 0.267,0.177 0.075,0.075 0.136,0.167 0.178,0.269 0.041,0.098 0.063,0.205 0.063,0.316 0,0.029 -0.002,0.06 -0.005,0.093 -0.003,0.03 -0.009,0.06 -0.016,0.092 -0.007,0.031 -0.016,0.061 -0.025,0.089 -0.008,0.023 -0.019,0.048 -0.031,0.074 -0.468,1.175 -0.906,2.319 -1.343,3.461 -0.183,0.48 -0.371,0.971 -0.615,1.602l1.578 8.399c0.206,-0.883 0.475,-1.991 0.768,-3.202 1.073,-4.428 2.487,-10.26 2.487,-11.898l0 -0.023 0.005 -0.026c0.022,-0.103 0.064,-0.198 0.12,-0.283 0.058,-0.087 0.132,-0.161 0.216,-0.219 0.084,-0.059 0.18,-0.102 0.282,-0.125 0.099,-0.023 0.203,-0.028 0.307,-0.012l0.136 0.02c0.034,0.005 0.069,0.013 0.105,0.023 0.034,0.009 0.068,0.021 0.1,0.035 0.032,0.014 0.065,0.031 0.096,0.049 0.028,0.017 0.056,0.037 0.083,0.058l0.02 0.014c0.171,0.114 0.375,0.23 0.606,0.347 0.251,0.127 0.531,0.253 0.832,0.377 0.317,0.131 0.664,0.262 1.031,0.392 0.391,0.138 0.803,0.274 1.227,0.406 0.503,0.157 1.018,0.308 1.53,0.451 0.571,0.158 1.147,0.31 1.705,0.45 0.672,0.169 1.302,0.318 1.855,0.444 0.807,0.184 1.464,0.322 1.869,0.404 0.342,0.07 0.694,0.164 1.041,0.283 0.332,0.113 0.666,0.25 0.992,0.411 0.304,0.15 0.601,0.321 0.881,0.512 0.268,0.183 0.522,0.384 0.752,0.602 0.232,0.218 0.443,0.455 0.629,0.71 0.177,0.244 0.332,0.504 0.456,0.781 0.119,0.262 0.211,0.54 0.274,0.834 0.06,0.282 0.092,0.577 0.092,0.883 0,3.817 -0.718,7.665 -1.136,11.476 -0.012,0.111 -0.045,0.214 -0.094,0.305 -0.053,0.097 -0.123,0.181 -0.206,0.248 -0.083,0.067 -0.18,0.118 -0.284,0.149 -0.1,0.03 -0.208,0.041 -0.318,0.029l-0.021 -0.003c-0.107,-0.013 -0.206,-0.047 -0.294,-0.097 -0.091,-0.051 -0.171,-0.12 -0.237,-0.201 -0.067,-0.083 -0.118,-0.18 -0.148,-0.284 -0.03,-0.101 -0.041,-0.209 -0.029,-0.319l0 -0.002c0.114,-1.034 0.257,-2.119 0.401,-3.214 0.357,-2.703 0.721,-5.47 0.721,-8.087 0,-0.192 -0.02,-0.375 -0.058,-0.546 -0.04,-0.18 -0.1,-0.355 -0.177,-0.522 -0.08,-0.172 -0.177,-0.334 -0.289,-0.486 -0.119,-0.162 -0.256,-0.314 -0.406,-0.456 -0.176,-0.166 -0.369,-0.319 -0.576,-0.459 -0.22,-0.149 -0.453,-0.282 -0.692,-0.398 -0.252,-0.123 -0.513,-0.228 -0.775,-0.316 -0.276,-0.093 -0.553,-0.167 -0.82,-0.222 -0.42,-0.085 -1.093,-0.227 -1.902,-0.411 -0.589,-0.134 -1.247,-0.29 -1.928,-0.461 -0.521,-0.13 -1.073,-0.275 -1.642,-0.432 -0.566,-0.156 -1.125,-0.318 -1.654,-0.484 -0.32,-0.099 -0.636,-0.202 -0.945,-0.308 -0.289,-0.099 -0.574,-0.201 -0.851,-0.305 -0.251,-0.096 -0.497,-0.194 -0.737,-0.296 -0.239,-0.102 -0.464,-0.204 -0.672,-0.304l-0.089 -0.044 -3.877 17.952 -0.001 0 -0.02 0.092c-0.018,0.08 -0.046,0.155 -0.084,0.225 -0.04,0.071 -0.089,0.137 -0.147,0.192 -0.056,0.056 -0.122,0.103 -0.194,0.14 -0.069,0.036 -0.145,0.063 -0.226,0.078 -0.109,0.021 -0.218,0.018 -0.32,-0.003 -0.106,-0.023 -0.206,-0.066 -0.294,-0.127 -0.088,-0.06 -0.164,-0.138 -0.224,-0.23 -0.057,-0.087 -0.098,-0.188 -0.119,-0.297l-2.366 -12.597c-0.007,-0.038 -0.011,-0.076 -0.013,-0.112 -0.001,-0.036 0,-0.074 0.003,-0.113 0.004,-0.037 0.01,-0.075 0.018,-0.111 0.008,-0.036 0.02,-0.072 0.034,-0.109l1.628 -4.213 -4.262 0 0.455 1.167c0.384,0.988 0.769,1.977 1.159,3.006 0.016,0.036 0.03,0.075 0.041,0.116 0.012,0.042 0.02,0.083 0.025,0.122 0.005,0.039 0.006,0.081 0.005,0.126 -0.002,0.043 -0.007,0.085 -0.014,0.126l-2.431 12.579c-0.014,0.081 -0.04,0.16 -0.076,0.233 -0.037,0.073 -0.085,0.141 -0.141,0.2 -0.056,0.058 -0.121,0.108 -0.193,0.148 -0.07,0.039 -0.147,0.069 -0.228,0.086l-0.029 0.006c-0.098,0.017 -0.197,0.015 -0.291,-0.002 -0.107,-0.02 -0.209,-0.061 -0.298,-0.119 -0.09,-0.059 -0.169,-0.135 -0.23,-0.225 -0.059,-0.086 -0.102,-0.185 -0.126,-0.295l-3.831 -18.039 -0.09 0.043c-0.207,0.101 -0.432,0.203 -0.672,0.304 -0.239,0.102 -0.485,0.2 -0.736,0.295 -0.276,0.105 -0.561,0.207 -0.85,0.305 -0.308,0.106 -0.623,0.209 -0.942,0.308 -0.508,0.158 -1.031,0.311 -1.555,0.456 -0.595,0.166 -1.182,0.32 -1.74,0.459 -0.678,0.171 -1.334,0.326 -1.922,0.46 -0.813,0.185 -1.49,0.328 -1.91,0.413 -0.268,0.055 -0.545,0.129 -0.822,0.222 -0.262,0.088 -0.523,0.193 -0.775,0.316 -0.239,0.116 -0.471,0.249 -0.691,0.398 -0.207,0.139 -0.401,0.292 -0.577,0.459 -0.15,0.141 -0.286,0.293 -0.405,0.454 -0.112,0.152 -0.21,0.315 -0.29,0.487 -0.077,0.167 -0.137,0.342 -0.177,0.523 -0.038,0.171 -0.058,0.353 -0.058,0.546 0,2.599 0.361,5.339 0.714,8.022 0.146,1.113 0.292,2.217 0.408,3.28 0.012,0.111 0.001,0.219 -0.029,0.32z"/>
 </g>
</svg>
