<?xml version="1.0" encoding="UTF-8"?>
<!DOCTYPE svg PUBLIC "-//W3C//DTD SVG 1.1//EN" "http://www.w3.org/Graphics/SVG/1.1/DTD/svg11.dtd">
<!-- Creator: CorelDRAW 2017 -->
<svg xmlns="http://www.w3.org/2000/svg" xml:space="preserve" width="289278px" height="289278px" version="1.1" style="shape-rendering:geometricPrecision; text-rendering:geometricPrecision; image-rendering:optimizeQuality; fill-rule:evenodd; clip-rule:evenodd"
viewBox="0 0 289277.78 289277.78"
 xmlns:xlink="http://www.w3.org/1999/xlink">
 <defs>
  <style type="text/css">
   <![CDATA[
    .str0 {stroke:#205FAD;stroke-width:8034.86;stroke-miterlimit:22.9256}
    .fil0 {fill:#205FAD}
    .fil2 {fill:white}
    .fil3 {fill:#205FAD;fill-rule:nonzero}
    .fil1 {fill:white;fill-rule:nonzero}
   ]]>
  </style>
 </defs>
 <g id="Слой_x0020_1">
  <metadata id="CorelCorpID_0Corel-Layer"/>
  <circle class="fil0" cx="7037038.76" cy="-4339155.62" r="185871.59"/>
  <path class="fil1" d="M7025511.71 -4323577.55l0 7993.87 -186.78 0c-212.97,709.52 -599.06,1345.02 -1109.28,1855.25 -804.05,804.05 -1907.64,1299.47 -3122.83,1299.47 -1220.89,0 -2325.61,-495.42 -3123.97,-1293.78 -798.37,-805.19 -1294.92,-1909.92 -1294.92,-3123.97l0 -6730.84c0,-1220.88 495.42,-2326.75 1294.92,-3126.25 802.91,-797.22 1907.63,-1293.77 3123.97,-1293.77 1217.47,0 2324.47,496.55 3123.97,1294.91 798.36,805.2 1294.92,1908.78 1294.92,3125.11zm54224.77 45949.61l-189.05 -2305.11 -226.64 -4145.55 -20739.17 66.05 236.89 2110.36c117.31,1056.89 268.78,2110.37 452.14,3153.59 185.64,1068.28 403.17,2117.19 646.89,3135.36 248.28,1036.39 530.72,2070.5 845.06,3095.5 310.91,1018.17 654.86,2028.36 1029.55,3029.44 372.42,996.53 779,1986.23 1214.06,2961.11 439.61,986.28 907.69,1952.06 1396.27,2888.23 489.73,938.44 1015.89,1874.61 1573.95,2800.52 552.36,917.95 1134.33,1818.81 1739.08,2696.89l965.78 1399.7 2724.22 -1425.89 1227.72 -601.33 1244.81 -575.14 1269.86 -553.5 1321.11 -543.25 1339.34 -520.48 1368.94 -499.97 3046.53 -1030.69 -380.39 -1684.42 -466.95 -2187.8 -423.66 -2214 -375.84 -2249.31 -325.72 -2228.81 -282.44 -2277.77 -232.34 -2293.73zm-6812.83 -39722.16l-1203.8 -564.89 -2645.64 -1337.06 -952.11 1341.62c-650.31,917.94 -1272.14,1851.83 -1854.12,2793.69 -581.97,940.72 -1138.88,1909.92 -1666.19,2896.19 -518.19,969.2 -1012.47,1969.14 -1474.86,2986.17 -455.56,1005.64 -883.78,2031.78 -1275.56,3067.03 -391.77,1032.97 -752.8,2081.89 -1077.39,3136.5 -314.33,1028.42 -607.02,2094.42 -867.83,3196.86 -257.39,1080.81 -481.75,2166.17 -666.25,3249.25 -186.78,1091.06 -339.39,2188.94 -454.42,3286.83l-223.22 2109.23 20735.75 -66.06 210.7 -4266.28 186.77 -2406.47c63.78,-766.47 146.92,-1576.22 239.17,-2412.17l293.83 -2405.33 343.95 -2351.81 397.47 -2352.94 452.14 -2337 504.53 -2325.61 391.78 -1702.64 -3011.23 -988.56 -1308.58 -463.52 -1301.75 -490.86 -1281.25 -509.09 -1260.75 -534.14 -1231.14 -548.94zm15459.28 -12804.53l3877.92 -6916.47 -5737.73 3024.89 -1397.41 765.33 -1371.23 804.06 -1339.33 841.64 -1319.97 890.61 -1306.31 937.3 -1260.75 963.5 -1247.08 1018.17 -1224.31 1056.89 -2202.61 1963.44c3672.92,1649.11 6668.2,2900.75 10485.75,4154.67 704.98,-1899.67 2355.23,-6671.61 3400.73,-8239.86 110.47,-157.17 342.8,-643.47 507.94,-989.7l134.39 -274.47zm-10814.89 77052.67c-1392.86,626.39 -2769.78,1282.39 -4152.39,1933.83l2095.56 1921.31 1312 1166.22 1340.47 1116.11 1366.67 1062.58 1401.97 1019.31 1431.58 971.47 1452.08 916.81 1483.98 864.41 1517 818.86 5758.22 2986.17 -635.5 -1095.61c-1366.67,-2349.53 -2741.31,-4709.31 -3995.22,-7128.31 -1474.86,-3016.91 -2580.73,-5906.27 -3731,-9055.3 -2298.28,782.41 -4416.61,1539.78 -6645.42,2502.14zm16989.94 -57993.36l-1774.38 -290.42 -3531.7 -663.97 -411.14 1806.28 -445.3 2073.91 -394.06 2064.81 -351.92 2086.44 -307.5 2128.59 -263.08 2145.66 -218.67 2144.53 -169.69 2162.75 -125.28 2158.19 -93.39 2004.45 20731.2 -62.64 -59.22 -18542.25 -3618.25 -205 -1772.12 -137.81 -1816.52 -175.38 -1827.92 -203.87 -1764.14 -228.91 -1786.92 -265.36zm1785.78 -18521.75c-374.69,595.64 -752.8,1237.97 -1133.19,1921.3 -366.72,658.28 -728.89,1345.03 -1080.81,2056.84 -1092.19,2235.63 -1962.3,4442.8 -2876.83,6757.02l3688.86 648.03c1432.72,218.67 2851.78,413.42 4290.19,591.08 2650.2,283.59 5234.34,460.12 7894.78,611.59l-69.47 -22809.67 -2916.69 1846.14c-458.98,290.42 -923.64,619.56 -1387.17,978.31 -457.83,354.19 -914.53,742.55 -1365.53,1159.38 -449.86,413.42 -896.3,858.73 -1333.64,1331.37 -443.03,476.05 -880.36,984 -1308.58,1515.86 -412.28,513.64 -823.42,1059.16 -1228.86,1630.89 -390.64,551.22 -783.56,1140.02 -1173.06,1761.86zm5423.39 63379.16l1842.72 -156.03 3663.81 -228.91 -48.97 -17537.75 -20734.61 63.78 239.16 4048.75 166.28 2020.38 214.11 2054.56 248.28 1995.33 285.86 1977.11 330.28 1977.12 372.41 1979.38 806.34 3756.06 3603.44 -712.94 1778.95 -308.64 1786.91 -280.17 1821.09 -248.28 1801.72 -215.25 1822.22 -184.5zm-86.55 26638.61c448.72,411.14 909.97,797.23 1375.77,1154.84 455.56,349.64 921.36,673.08 1384.89,962.36l2928.09 1832.47 -71.75 -23810.75c-1694.67,105.92 -3377.95,218.67 -5070.34,359.89 -1478.28,149.19 -2933.78,320.03 -4406.36,513.64l-1456.64 215.25c-1749.33,290.41 -3478.16,611.58 -5220.66,939.58 1012.47,2642.22 1964.58,5125 3212.8,7660.17 358.75,714.08 725.47,1397.41 1088.78,2042.03 359.89,637.77 744.83,1276.69 1144.58,1906.5 382.67,602.47 780.14,1192.41 1189,1763 398.61,560.33 813.17,1100.16 1232.28,1614.94 438.47,540.97 880.36,1045.5 1315.42,1510.17 445.3,472.64 897.44,920.22 1354.14,1335.91zm24162.66 -78425.02l1481.7 -223.23 3825.52 -668.52 -928.19 -2208.31c-417.97,-995.39 -863.28,-1974.83 -1325.67,-2924.67 -452.14,-933.88 -929.33,-1842.72 -1424.75,-2720.8 -498.83,-886.06 -1006.77,-1722 -1517,-2504.42 -515.91,-790.39 -1051.19,-1548.89 -1597.86,-2266.39 -575.14,-755.08 -1155.97,-1457.77 -1735.66,-2098.97 -593.37,-654.86 -1195.84,-1263.03 -1801.73,-1818.8 -603.61,-553.5 -1223.16,-1064.87 -1846.14,-1524.98 -613.86,-453.27 -1242.52,-863.27 -1878.02,-1224.3l-2859.75 -1622.92 68.33 22802.83 3618.25 -190.19 3223.06 -251.69 1575.08 -161.73 1577.36 -185.64 1545.47 -207.27zm-11462.91 26665.94l21945.25 -63.78 -112.75 -2006.72c-84.28,-1494.22 -198.17,-2944.03 -339.39,-4341.44l-239.17 -2119.48 -288.14 -2126.3 -331.42 -2089.86 -379.25 -2062.53 -437.33 -2100.11 -472.64 -2044.31 -435.05 -1777.8 -3601.17 684.47 -1864.36 304.08 -1891.7 275.61 -1880.3 236.89 -1972.56 210.7 -1977.11 177.66 -1953.19 140.09 -3825.53 190.19 55.81 18512.64zm13742.97 25877.83l1886 304.09 3678.61 686.75 822.28 -3743.53 369 -1949.78 332.55 -1969.14 288.14 -1990.78 249.42 -2018.11 206.14 -2003.3 162.86 -2022.67 224.36 -4057.86 -21939.56 63.78 47.84 17522.94 3841.47 168.56 1987.36 132.11 1997.61 169.69 2002.17 205 1931.55 234.61 1912.2 267.64zm15874.97 -57292.94c1354.14,-563.75 2698.03,-1150.28 4045.33,-1729.97l-2208.3 -1996.47 -1174.2 -1031.84 -1222.02 -1019.3 -1211.78 -952.11 -1232.28 -912.25 -1263.03 -880.37 -1282.39 -840.5 -1251.64 -767.61 -1299.47 -740.27 -6045.22 -3321 4046.47 6965.44 560.34 1032.97 1051.19 2084.17 501.11 1072.83 986.28 2277.78 1128.64 2844.94c2014.69,-657.13 3906.39,-1294.91 5870.97,-2086.44zm-509.08 31328.56l19534.22 -56.95 -236.89 -2111.5c-119.58,-1072.83 -274.47,-2141.11 -460.11,-3199.14 -190.2,-1078.53 -411.14,-2136.55 -659.42,-3167.25 -252.83,-1047.78 -539.83,-2089.86 -857.58,-3120.55 -316.61,-1027.28 -667.39,-2048.86 -1050.06,-3059.06 -380.39,-1006.78 -794.94,-2006.72 -1236.83,-2987.3 -447.58,-991.98 -925.92,-1965.73 -1425.89,-2911 -507.94,-961.23 -1045.5,-1907.64 -1610.39,-2832.42 -568.3,-932.75 -1163.94,-1842.72 -1781.22,-2726.5l-940.72 -1347.31 -2573.89 1260.75 -1145.72 527.31 -2340.42 1002.22 -2373.44 915.67 -1183.31 421.39 -2885.94 950.97 423.66 1726.55 523.89 2253.87 466.95 2273.22 416.83 2319.91 366.72 2355.23 315.47 2405.33 259.67 2417.86 209.56 2448.61 244.86 4240.09zm6250.22 32128.05l1149.14 531.86 2638.8 1309.72 936.17 -1408.8c577.42,-868.97 1130.92,-1757.31 1652.53,-2657.03 530.72,-914.53 1028.41,-1832.47 1486.25,-2744.72 457.83,-913.39 897.44,-1856.39 1310.86,-2823.31 414.55,-969.19 796.08,-1938.39 1141.17,-2904.16 345.08,-965.78 666.25,-1954.34 958.94,-2962.25 290.42,-997.67 552.36,-2007.87 782.42,-3024.89 230.05,-1021.59 432.77,-2053.42 602.47,-3086.39 169.69,-1034.11 310.92,-2080.75 420.25,-3130.81l220.94 -2106.94 -19531.94 55.8 -212.97 4189.98 -174.25 2297.13 -225.5 2269.81 -279.03 2302.83 -317.75 2233.36 -371.28 2214 -415.69 2173 -466.95 2169.59 -387.22 1699.22 2912.14 955.53 1239.11 440.75 1261.89 474.91 1242.53 492 1230 513.64 1196.97 526.17zm-14977.53 12517.53l-592.22 1114.97 -603.61 1079.67 -3431.47 5955.25 6009.91 -3334.67 1422.47 -820 1401.98 -872.39 1375.77 -917.94 1350.73 -963.5 1333.64 -1019.31 1292.63 -1053.47 1268.73 -1100.17 1244.8 -1150.28 2076.2 -1978.25c-3567,-1575.08 -6564.56,-2808.5 -10264.81,-4025.97l-1120.67 2982.75 -510.22 1256.2 -537.55 1245.94 -558.06 1233.42 -569.44 1196.97 -588.81 1170.78zm-20285.89 -12713.42l69.47 23799.36 2848.37 -1636.58c646.88,-372.42 1296.05,-804.06 1937.25,-1288.08 643.47,-486.31 1281.25,-1026.14 1901.94,-1611.53 626.39,-591.09 1247.08,-1237.97 1851.83,-1931.56 599.06,-685.61 1192.42,-1429.3 1774.39,-2223.11 558.06,-763.05 1105.86,-1573.94 1635.45,-2423.55 533,-851.89 1048.91,-1743.64 1544.33,-2668.42 496.56,-927.06 979.44,-1896.25 1439.56,-2898.47 454.41,-989.7 898.58,-2026.09 1322.25,-3103.48l856.44 -2169.58 -3820.97 -667.39 -1536.36 -226.64 -1601.28 -209.55 -1619.5 -184.5 -1601.28 -153.75 -1660.5 -132.11 -1678.72 -109.34 -3662.67 -161.72zm-3490.69 31256.81l-833.67 5.69 0 -18.22c-3773.14,-39.86 -7464.28,-435.06 -11032.42,-1149.14 -3802.75,-760.78 -7483.63,-1890.56 -10998.25,-3346.06 -3613.69,-1497.63 -7053.13,-3343.77 -10269.36,-5491.72 -3248.11,-2168.44 -6275.27,-4652.36 -9032.52,-7401.64 -2759.53,-2751.55 -5252.56,-5771.89 -7432.39,-9014.3 -2158.2,-3210.53 -4013.45,-6643.14 -5521.34,-10252.28 -1474.86,-3531.69 -2622.86,-7241.06 -3397.3,-11084.81 -753.95,-3744.66 -1155.97,-7615.75 -1167.36,-11569.97 -11.39,-3971.3 369,-7856.05 1102.44,-11608.69 751.67,-3849.45 1881.45,-7575.89 3344.92,-11133.78 1491.94,-3629.64 3333.53,-7078.19 5476.91,-10302.39 2167.31,-3258.36 4650.09,-6296.91 7401.64,-9064.41 2753.84,-2769.78 5774.17,-5270.78 9015.45,-7454.03 3210.53,-2162.75 6648.83,-4025.97 10265.94,-5539.56 3536.25,-1479.41 7254.72,-2630.83 11106.45,-3407.55 3751.5,-756.23 7632.83,-1159.39 11595.02,-1171.92l370.14 -1.14c3909.81,28.47 7722.81,427.08 11405.98,1162.81 3840.33,767.61 7555.38,1907.64 11097.33,3376.8 3614.83,1498.78 7056.55,3348.34 10273.92,5496.28 3249.25,2170.72 6277.55,4654.64 9034.8,7402.78 2758.39,2747 5251.42,5765.05 7431.25,9004.05 2157.06,3207.11 4012.31,6635.17 5519.06,10239.75 1474.86,3528.28 2621.72,7236.5 3396.16,11079.11 753.95,3740.12 1155.98,7608.92 1168.5,11559.73 4.56,1970.27 -85.41,3934.86 -268.77,5876.66 -183.37,1955.47 -462.39,3887.03 -830.25,5779.86 -371.28,1915.61 -839.37,3807.31 -1392.87,5661.42 -552.36,1848.42 -1202.66,3682.03 -1942.94,5484.89 -736.86,1796.03 -1564.83,3555.61 -2474.81,5266.22 -905.41,1706.06 -1903.08,3376.81 -2982.75,4997.45 -1077.38,1619.5 -2237.91,3188.88 -3473.61,4700.19 -1226.58,1498.78 -2542,2957.69 -3940.55,4363.08 -1331.36,1339.34 -2716.25,2608.06 -4146.7,3800.48 -1441.83,1200.38 -2934.91,2329.02 -4465.58,3377.94 -1539.78,1053.47 -3128.53,2034.06 -4754.86,2933.78 -1619.5,895.16 -3290.25,1717.44 -4999.72,2460 -1712.89,745.97 -3459.95,1408.8 -5222.95,1982.8 -1764.14,574 -3568.14,1070.56 -5400.61,1479.42 -1819.94,406.58 -3668.36,731.17 -5532.72,968.06 -1856.39,235.75 -3735.56,388.36 -5626.11,451l-1865.5 101.36zm-103113.86 -98445.56c802.91,-799.5 1907.64,-1296.05 3121.69,-1296.05 1220.89,0 2326.75,495.41 3125.11,1293.77 799.5,799.5 1294.92,1905.37 1294.92,3126.25l0 6730.84c0,1218.61 -495.42,2324.47 -1294.92,3123.97 -799.5,799.5 -1904.22,1293.78 -3125.11,1293.78 -1218.61,0 -2324.47,-496.56 -3122.83,-1294.92 -799.5,-798.36 -1294.92,-1904.22 -1294.92,-3122.83l0 -6730.84c0,-1219.75 495.42,-2326.75 1296.06,-3123.97zm-2553.39 3123.97l0 6730.84c0,1214.05 -497.7,2318.78 -1298.34,3119.41 -796.08,801.78 -1903.08,1298.34 -3121.69,1298.34 -1219.75,0 -2324.47,-496.56 -3123.97,-1294.92 -798.36,-798.36 -1293.78,-1904.22 -1293.78,-3122.83l0 -6730.84c0,-1219.75 495.42,-2326.75 1293.78,-3125.11 805.19,-798.36 1909.91,-1294.91 3123.97,-1294.91 1212.92,0 2317.64,494.27 3119.42,1294.91 804.05,806.34 1300.61,1911.06 1300.61,3125.11zm-10096.25 0l0 6730.84c0,1214.05 -496.56,2318.78 -1297.2,3119.41 -796.08,801.78 -1903.08,1298.34 -3122.83,1298.34 -1218.61,0 -2324.47,-496.56 -3122.83,-1294.92 -798.36,-798.36 -1294.92,-1904.22 -1294.92,-3122.83l0 -6730.84c0,-1219.75 496.56,-2326.75 1294.92,-3125.11 804.05,-798.36 1908.77,-1294.91 3122.83,-1294.91 1214.06,0 2318.78,494.27 3120.56,1294.91 804.05,806.34 1299.47,1911.06 1299.47,3125.11zm-22299.45 6730.84l0 -6730.84c0,-1219.75 495.42,-2326.75 1293.78,-3125.11 805.2,-798.36 1909.92,-1294.91 3123.97,-1294.91 1219.75,0 2325.61,495.41 3125.11,1293.77 799.5,800.64 1294.92,1906.5 1294.92,3126.25l0 6730.84c0,1218.61 -496.55,2324.47 -1294.92,3123.97 -805.19,798.36 -1908.77,1293.78 -3125.11,1293.78 -1219.75,0 -2324.47,-496.56 -3123.97,-1294.92 -798.36,-798.36 -1293.78,-1904.22 -1293.78,-3122.83zm-10095.11 0l0 -6730.84c0,-1219.75 495.42,-2326.75 1293.78,-3125.11 805.19,-798.36 1908.78,-1294.91 3123.97,-1294.91 1212.92,0 2317.64,494.27 3119.42,1294.91 804.05,806.34 1299.47,1911.06 1299.47,3125.11l0 6730.84c0,1214.05 -496.55,2318.78 -1297.19,3119.41 -796.09,801.78 -1903.09,1298.34 -3121.7,1298.34 -1219.75,0 -2325.61,-496.56 -3123.97,-1294.92 -798.36,-798.36 -1293.78,-1904.22 -1293.78,-3122.83zm-10096.25 0l0 -6730.84c0,-1219.75 495.42,-2326.75 1294.92,-3125.11 804.05,-798.36 1908.78,-1294.91 3122.83,-1294.91 1214.06,0 2318.78,494.27 3119.42,1294.91 805.19,806.34 1300.61,1911.06 1300.61,3125.11l0 6730.84c0,1214.05 -496.56,2318.78 -1298.33,3119.41 -794.95,801.78 -1901.95,1298.34 -3121.7,1298.34 -1218.61,0 -2324.47,-496.56 -3122.83,-1294.92 -799.5,-798.36 -1294.92,-1904.22 -1294.92,-3122.83zm-8801.33 3122.83c-798.36,-798.36 -1293.78,-1904.22 -1293.78,-3122.83l0 -6730.84c0,-1219.75 495.42,-2326.75 1293.78,-3125.11 805.19,-798.36 1909.92,-1294.91 3125.11,-1294.91 1218.61,0 2324.47,494.27 3123.97,1294.91 798.36,798.36 1294.92,1905.36 1294.92,3125.11l0 6730.84c0,1214.05 -496.56,2318.78 -1297.2,3119.41 -796.08,801.78 -1903.08,1298.34 -3121.69,1298.34 -1219.75,0 -2325.61,-496.56 -3125.11,-1294.92zm24369.94 -41194.75l5677.36 0c636.64,0 1215.2,-260.8 1633.17,-678.78 419.11,-417.97 678.78,-996.52 678.78,-1634.3l0 -2313.09 -2311.95 0c-1216.33,0 -2319.91,-495.41 -3119.41,-1293.77 -804.06,-799.5 -1299.47,-1905.36 -1299.47,-3123.98 0,-1214.05 494.27,-2317.63 1294.91,-3119.41 805.2,-804.06 1909.92,-1299.47 3123.97,-1299.47l2311.95 0 0 -2313.09c0,-638.91 -257.39,-1217.47 -673.08,-1632.03 -417.98,-417.97 -999.95,-677.63 -1638.87,-677.63l-5677.36 0 0 18085.55zm-16825.94 -4626.17l0 2313.09c0,638.91 259.67,1218.61 675.36,1637.72 419.11,415.69 998.81,675.36 1636.58,675.36l5677.36 0 0 -18085.55 -5677.36 0c-636.64,0 -1215.19,259.66 -1633.16,677.63 -420.25,414.56 -678.78,993.12 -678.78,1632.03l0 2317.64 2311.94 1.14c1215.2,-5.69 2319.92,490.86 3120.56,1291.5 801.78,796.08 1297.19,1901.94 1297.19,3121.69 0,1218.62 -495.41,2324.48 -1294.91,3123.98 -798.36,798.36 -1903.09,1293.77 -3122.84,1293.77l-2311.94 0zm33653.03 -11149.72l0 13462.81c0,3073.86 -1251.64,5861.86 -3269.75,7879.97 -2022.67,2016.97 -4809.53,3268.61 -7879.98,3268.61l-20191.36 0c-3068.16,0 -5857.3,-1251.64 -7877.69,-3270.89 -2020.39,-2015.83 -3272.03,-4803.83 -3272.03,-7877.69l0 -13462.81c0,-3067.03 1253.92,-5856.16 3272.03,-7875.41 2014.69,-2020.39 4803.83,-3270.89 7877.69,-3270.89l20191.36 0c3070.45,0 5857.31,1250.5 7875.42,3268.61 2020.39,2019.25 3274.31,4809.53 3274.31,7877.69zm-38071.92 69620.28l60575.22 0c1218.61,0 2324.47,495.42 3122.84,1293.78 799.5,805.19 1293.77,1908.78 1293.77,3123.97 0,1219.75 -494.27,2324.47 -1293.77,3123.97 -798.37,798.36 -1903.09,1293.78 -3122.84,1293.78l-60575.22 0c-1219.75,0 -2325.61,-495.42 -3125.11,-1293.78 -797.22,-804.05 -1293.78,-1908.78 -1293.78,-3123.97 0,-1218.61 495.42,-2324.47 1293.78,-3123.97 799.5,-798.36 1905.36,-1293.78 3125.11,-1293.78zm97615.31 32395.69l-107710.42 0c-1633.17,0 -3227.61,-224.36 -4749.17,-644.61 -1561.41,-430.5 -3040.83,-1070.55 -4402.94,-1884.86 -85.42,-46.69 -175.39,-116.17 -261.95,-159.44 -445.3,-275.61 -870.11,-566.03 -1271,-864.42 -431.64,-328 -833.66,-656 -1198.11,-981.72 -263.08,-233.47 -510.22,-464.67 -735.72,-690.17l-19.36 -18.22c-357.61,-356.47 -724.33,-760.78 -1093.33,-1206.08 -355.34,-424.81 -686.75,-863.28 -993.12,-1305.17 -79.72,-80.86 -342.8,-521.61 -416.83,-638.92 -887.19,-1407.66 -1580.78,-2938.33 -2046.58,-4556.69 -449.86,-1579.64 -693.59,-3236.72 -693.59,-4931.39l0 -107688.78c0,-4926.83 2006.73,-9396.97 5243.45,-12633.69 3236.72,-3242.42 7708,-5248 12637.11,-5248l181727.94 0c2485.06,0 4859.64,513.64 7020.12,1439.55 2242.47,961.23 4251.47,2368.89 5908.55,4107.98l339.39 362.16c205,227.78 414.56,472.64 624.11,731.17 219.81,275.61 419.11,531.86 588.81,767.61l499.97 724.33c331.42,535.28 656,1054.61 937.3,1618.36 635.5,1240.25 1132.06,2562.5 1464.62,3942.84 325.72,1359.83 498.83,2761.8 498.83,4187.69l0 43211.72 -8837.78 0 0 -43211.72c0,-1226.58 -243.72,-2393.94 -683.33,-3451.97 -458.97,-1108.14 -1133.2,-2106.94 -1966.86,-2941.75 -839.36,-834.81 -1837.03,-1509.03 -2939.48,-1965.72 -1060.3,-440.75 -2227.66,-683.34 -3454.25,-683.34l-181727.94 -1.13c-2490.75,0 -4748.03,1010.19 -6383.47,2638.8 -1637.72,1632.03 -2655.89,3884.75 -2665,6367.53l5.69 107726.36c0,1227.72 243.72,2396.22 682.2,3455.39 457.83,1103.58 1127.5,2096.69 1955.47,2925.8 353.05,345.09 668.53,611.59 1059.17,911.11 367.86,258.53 670.8,451 1059.16,671.95 646.89,348.5 1343.89,622.97 2073.92,807.47 704.97,176.53 1446.39,272.2 2212.86,272.2l108975.72 0 0 8837.77 -1264.16 0z"/>
  <circle class="fil2 str0" cx="7185438.47" cy="-4493572.08" r="60226.15"/>
  <path class="fil3" d="M7190979.73 -4471676.38c0,1529.53 -620.69,2915.56 -1622.91,3917.78l-7.97 0c-1002.23,1002.22 -2385.98,1622.92 -3910.95,1622.92 -1523.83,0 -2907.58,-620.7 -3909.8,-1622.92l-7.98 0c-1002.22,-1002.22 -1622.91,-2388.25 -1622.91,-3917.78 0,-1524.97 620.69,-2908.72 1622.91,-3912.08l0 -6.84c1002.23,-1002.22 2388.25,-1622.91 3917.78,-1622.91 1524.97,0 2908.72,620.69 3910.95,1622.91l7.97 0c1002.22,1002.23 1622.91,2387.12 1622.91,3918.92zm-5541.83 -8693.14c-1048.92,0 -1999.89,-425.94 -2688.92,-1114.97 -686.75,-687.89 -1112.69,-1637.72 -1112.69,-2688.92 0,-3297.08 1165.08,-5807.19 2841.53,-7873.14 1563.69,-1925.86 3504.36,-3363.13 5320.89,-4708.16 3085.25,-2285.75 5745.69,-4258.31 5745.69,-7955.14 0,-2553.39 -993.11,-4708.17 -2695.75,-6214.92 -1772.11,-1565.97 -4340.3,-2479.36 -7410.75,-2479.36 -3015.78,0 -5552.08,1028.42 -7316.22,2790.28 -1760.72,1763 -2789.14,4301.58 -2789.14,7316.22 0,1051.2 -425.94,2001.03 -1113.83,2690.06 -687.89,685.61 -1638.86,1112.69 -2688.92,1112.69 -1042.08,0 -1990.78,-424.8 -2682.08,-1113.83l-6.84 -6.84c-690.16,-692.44 -1113.83,-1641.13 -1113.83,-2682.08 0,-5103.36 1870.06,-9524.53 5029.33,-12682.67 3157,-3158.13 7579.31,-5029.33 12681.53,-5029.33 5063.5,0 9460.75,1698.08 12612.06,4564.67 3202.55,2914.41 5099.94,7005.3 5099.94,11735.11 0,3775.42 -1242.53,6589.61 -3034,8863.97 -1693.53,2151.36 -3811.86,3719.61 -5795.8,5189.92 -2727.64,2020.39 -5079.45,3765.16 -5079.45,6482.55 0,1044.36 -424.8,1993.06 -1112.69,2682.09l-7.98 7.97c-687.88,686.75 -1637.72,1113.83 -2682.08,1113.83z"/>
 </g>
</svg>
