<?xml version="1.0" encoding="UTF-8"?>
<!DOCTYPE svg PUBLIC "-//W3C//DTD SVG 1.1//EN" "http://www.w3.org/Graphics/SVG/1.1/DTD/svg11.dtd">
<!-- Creator: CorelDRAW 2017 -->
<svg xmlns="http://www.w3.org/2000/svg" xml:space="preserve" width="82px" height="82px" version="1.1" style="shape-rendering:geometricPrecision; text-rendering:geometricPrecision; image-rendering:optimizeQuality; fill-rule:evenodd; clip-rule:evenodd"
viewBox="0 0 82 82"
 xmlns:xlink="http://www.w3.org/1999/xlink">
 <defs>
  <style type="text/css">
   <![CDATA[
    .str0 {stroke:#205FAD;stroke-width:2;stroke-miterlimit:22.9256}
    .fil0 {fill:#205FAD}
    .fil2 {fill:white}
    .fil3 {fill:#205FAD;fill-rule:nonzero}
    .fil1 {fill:#FFE875;fill-rule:nonzero}
   ]]>
  </style>
 </defs>
 <g id="Слой_x0020_1">
  <metadata id="CorelCorpID_0Corel-Layer"/>
  <path class="fil0" d="M38.485 81c-20.702,0 -37.485,-16.605 -37.485,-37.088 0,-20.483 16.783,-37.088 37.485,-37.088 20.702,0 37.485,16.605 37.485,37.088 0,20.483 -16.783,37.088 -37.485,37.088z"/>
  <path class="fil1" d="M49.359 41.428l0 -4.614 -29.524 0 0 8.247c0,0.522 0.214,0.994 0.559,1.336 0.345,0.342 0.823,0.553 1.35,0.553l1.836 0 0 1.673 -1.836 0c-0.994,0 -1.894,-0.399 -2.545,-1.044 -0.651,-0.644 -1.054,-1.534 -1.054,-2.518l0 -8.247 0 -6.214 0 -0.981c0,-0.983 0.403,-1.873 1.054,-2.518 0.651,-0.644 1.551,-1.043 2.545,-1.043l25.706 0c0.993,0 1.893,0.399 2.545,1.043 0.65,0.648 1.054,1.538 1.054,2.518l0 0.981 0 6.214 0 4.614 -1.69 0zm-11.015 12.26l0.003 -0.002c0.001,-1.359 0.558,-2.59 1.46,-3.48 0.9,-0.89 2.144,-1.441 3.515,-1.441l0.002 0.003c1.374,0 2.618,0.552 3.518,1.443 0.9,0.892 1.457,2.123 1.457,3.48l-0.004 0.002c0,1.359 -0.558,2.59 -1.459,3.48 -0.901,0.89 -2.145,1.441 -3.516,1.441l-0.002 -0.003c-1.373,0 -2.617,-0.552 -3.517,-1.443 -0.9,-0.892 -1.457,-2.123 -1.457,-3.48zm1.687 -0.002l0.004 0c0,0.902 0.367,1.717 0.961,2.306 0.594,0.588 1.415,0.953 2.322,0.953l0 -0.003c0.912,0 1.735,-0.364 2.329,-0.951 0.596,-0.588 0.964,-1.401 0.964,-2.298l-0.003 0c0,-0.903 -0.368,-1.718 -0.961,-2.306 -0.594,-0.588 -1.416,-0.953 -2.323,-0.953l0 0.004c-0.911,0 -1.735,0.363 -2.329,0.951 -0.595,0.588 -0.964,1.4 -0.964,2.297zm10.173 -0.377l1.836 0 0 1.672 -1.836 0 0 -1.672zm-15.607 0l1.836 0 0 1.672 -1.836 0 0 -1.672zm19.453 -5.595l-21.439 0c-0.257,1.335 -1.15,2.377 -2.681,2.653l0.001 6.652c0.719,0.138 1.304,0.455 1.752,0.898l0.003 0c0.477,0.472 0.784,1.076 0.92,1.75l21.444 0c0.157,-0.646 0.494,-1.224 0.955,-1.68 0.459,-0.458 1.044,-0.79 1.698,-0.946l0 -6.7c-0.654,-0.156 -1.239,-0.489 -1.7,-0.945 -0.459,-0.458 -0.796,-1.036 -0.953,-1.682zm-22.207 -1.672l22.952 0 0.845 0 0 0.836c0,0.524 0.212,0.996 0.555,1.336l0.004 0c0.345,0.341 0.822,0.553 1.349,0.553l0.846 0 0 0.836 0 8.175 0 0.836 -0.846 0c-0.527,0 -1.004,0.212 -1.349,0.554l-0.004 0c-0.343,0.339 -0.555,0.811 -0.555,1.335l0 0.836 -0.845 0 -22.952 0 -0.845 0 0 -0.836c0,-0.569 -0.169,-1.069 -0.507,-1.404 -0.303,-0.301 -0.769,-0.485 -1.402,-0.485l-0.842 0 0 -0.836 0 -8.175 -0.001 -0.836 0.843 0c1.272,0 1.909,-0.846 1.909,-1.889l0 -0.836 0.845 0zm-6.426 -3.634l35.804 0 0.845 0 0 0.836 0 20.892 0 0.837 -0.845 0 -35.804 0 -0.846 0 0 -0.837 0 -20.892 0 -0.836 0.846 0zm34.958 1.673l-34.113 0 0 19.219 34.113 0 0 -19.219zm-11.016 -8.939l0 -2.87 -29.524 0 0 2.87 29.524 0zm0 -4.542l0 -0.981c0,-0.524 -0.213,-0.996 -0.556,-1.335l-0.003 0c-0.345,-0.342 -0.823,-0.553 -1.35,-0.553l-25.706 0c-0.527,0 -1.005,0.211 -1.35,0.553 -0.345,0.341 -0.559,0.814 -0.559,1.335l0 0.981 29.524 0zm-27.615 8.175l5.509 0 0 1.673 -5.509 0 0 -1.673z"/>
  <path class="fil2 str0" d="M68.854 1c6.708,0 12.146,5.38 12.146,12.017 0,6.638 -5.438,12.017 -12.146,12.017 -6.708,0 -12.146,-5.379 -12.146,-12.017 0,-6.637 5.438,-12.017 12.146,-12.017z"/>
  <path class="fil3" d="M69.972 17.386c0,0.306 -0.126,0.582 -0.328,0.782l-0.001 0c-0.202,0.2 -0.481,0.324 -0.789,0.324 -0.308,0 -0.586,-0.124 -0.789,-0.324l-0.001 0c-0.202,-0.2 -0.327,-0.476 -0.327,-0.782 0,-0.304 0.125,-0.58 0.327,-0.78l0 -0.002c0.202,-0.2 0.482,-0.324 0.79,-0.324 0.308,0 0.587,0.124 0.789,0.324l0.001 0c0.202,0.2 0.328,0.477 0.328,0.782zm-1.118 -1.735c-0.211,0 -0.403,-0.084 -0.542,-0.222 -0.139,-0.137 -0.225,-0.327 -0.225,-0.536 0,-0.658 0.235,-1.159 0.573,-1.571 0.316,-0.385 0.707,-0.671 1.074,-0.94 0.622,-0.456 1.158,-0.849 1.158,-1.587 0,-0.509 -0.2,-0.94 -0.544,-1.24 -0.357,-0.313 -0.875,-0.495 -1.494,-0.495 -0.608,0 -1.12,0.205 -1.475,0.557 -0.356,0.352 -0.563,0.858 -0.563,1.46 0,0.209 -0.086,0.399 -0.225,0.537 -0.138,0.136 -0.33,0.221 -0.542,0.221 -0.21,0 -0.401,-0.084 -0.541,-0.222l-0.001 -0.001c-0.139,-0.138 -0.225,-0.328 -0.225,-0.535 0,-1.019 0.377,-1.901 1.014,-2.531 0.637,-0.63 1.529,-1.003 2.558,-1.003 1.021,0 1.908,0.338 2.543,0.91 0.646,0.582 1.029,1.398 1.029,2.342 0,0.753 -0.251,1.315 -0.612,1.769 -0.341,0.429 -0.768,0.742 -1.169,1.035 -0.55,0.403 -1.024,0.751 -1.024,1.294 0,0.208 -0.086,0.398 -0.224,0.535l-0.002 0.002c-0.139,0.136 -0.33,0.221 -0.541,0.221z"/>
 </g>
</svg>
