<?xml version="1.0" encoding="UTF-8"?>
<!DOCTYPE svg PUBLIC "-//W3C//DTD SVG 1.1//EN" "http://www.w3.org/Graphics/SVG/1.1/DTD/svg11.dtd">
<!-- Creator: CorelDRAW 2017 -->
<svg xmlns="http://www.w3.org/2000/svg" xml:space="preserve" width="82px" height="82px" version="1.1" style="shape-rendering:geometricPrecision; text-rendering:geometricPrecision; image-rendering:optimizeQuality; fill-rule:evenodd; clip-rule:evenodd"
viewBox="0 0 82 82"
 xmlns:xlink="http://www.w3.org/1999/xlink">
 <defs>
  <style type="text/css">
   <![CDATA[
    .str0 {stroke:#205FAD;stroke-width:2;stroke-miterlimit:22.9256}
    .fil0 {fill:#205FAD}
    .fil1 {fill:white}
    .fil2 {fill:#205FAD;fill-rule:nonzero}
    .fil3 {fill:#FFE875;fill-rule:nonzero}
   ]]>
  </style>
 </defs>
 <g id="Слой_x0020_1">
  <metadata id="CorelCorpID_0Corel-Layer"/>
  <path class="fil0" d="M38.693 81c-20.817,0 -37.693,-16.622 -37.693,-37.127 0,-20.504 16.876,-37.126 37.693,-37.126 20.817,0 37.693,16.622 37.693,37.126 0,20.505 -16.876,37.127 -37.693,37.127z"/>
  <path class="fil1 str0" d="M68.787 1c6.745,0 12.213,5.386 12.213,12.03 0,6.644 -5.468,12.029 -12.213,12.029 -6.745,0 -12.213,-5.385 -12.213,-12.029 0,-6.644 5.468,-12.03 12.213,-12.03z"/>
  <path class="fil2" d="M69.911 17.403c0,0.306 -0.126,0.583 -0.33,0.783l-0.001 0c-0.204,0.2 -0.484,0.324 -0.793,0.324 -0.309,0 -0.59,-0.124 -0.793,-0.324l-0.002 0c-0.203,-0.2 -0.329,-0.477 -0.329,-0.783 0,-0.304 0.126,-0.581 0.329,-0.781l0 -0.002c0.203,-0.2 0.484,-0.324 0.795,-0.324 0.309,0 0.589,0.124 0.793,0.324l0.001 0c0.204,0.2 0.33,0.477 0.33,0.783zm-1.124 -1.736c-0.213,0 -0.406,-0.085 -0.546,-0.223 -0.139,-0.137 -0.225,-0.327 -0.225,-0.537 0,-0.658 0.236,-1.16 0.576,-1.573 0.317,-0.384 0.71,-0.671 1.079,-0.94 0.626,-0.456 1.165,-0.85 1.165,-1.589 0,-0.51 -0.201,-0.94 -0.547,-1.241 -0.359,-0.313 -0.88,-0.496 -1.502,-0.496 -0.612,0 -1.126,0.206 -1.484,0.558 -0.357,0.352 -0.566,0.859 -0.566,1.461 0,0.21 -0.086,0.4 -0.225,0.537 -0.14,0.138 -0.333,0.223 -0.546,0.223 -0.211,0 -0.404,-0.085 -0.544,-0.223l-0.001 -0.001c-0.14,-0.138 -0.226,-0.328 -0.226,-0.536 0,-1.019 0.379,-1.902 1.02,-2.533 0.64,-0.631 1.537,-1.005 2.572,-1.005 1.026,0 1.918,0.339 2.557,0.912 0.65,0.582 1.034,1.399 1.034,2.344 0,0.754 -0.252,1.316 -0.615,1.771 -0.343,0.429 -0.773,0.743 -1.175,1.036 -0.553,0.404 -1.03,0.752 -1.03,1.295 0,0.208 -0.087,0.398 -0.226,0.536l-0.001 0.001c-0.14,0.137 -0.333,0.223 -0.544,0.223z"/>
  <path class="fil3" d="M54.221 24.032l1.948 4.697 5.14 0.374c0.17,0.012 0.332,0.048 0.483,0.105 0.155,0.058 0.299,0.139 0.428,0.239 0.129,0.101 0.242,0.219 0.336,0.353 0.092,0.131 0.166,0.277 0.218,0.433 0.052,0.159 0.079,0.32 0.083,0.48 0.004,0.163 -0.017,0.323 -0.061,0.476 -0.045,0.155 -0.113,0.303 -0.203,0.44 -0.089,0.134 -0.199,0.257 -0.328,0.365l-3.935 3.279 1.226 4.93c0.041,0.161 0.057,0.324 0.048,0.483 -0.008,0.163 -0.041,0.323 -0.097,0.473l0 0.001c-0.056,0.15 -0.136,0.292 -0.237,0.423 -0.098,0.127 -0.216,0.242 -0.352,0.339 -0.135,0.098 -0.282,0.173 -0.437,0.225 -0.156,0.054 -0.318,0.083 -0.482,0.089 -0.163,0.006 -0.326,-0.012 -0.485,-0.054 -0.154,-0.04 -0.307,-0.105 -0.451,-0.193l-4.383 -2.674 -4.384 2.674c-0.144,0.088 -0.296,0.153 -0.451,0.193 -0.158,0.042 -0.322,0.06 -0.485,0.054 -0.163,-0.006 -0.326,-0.036 -0.481,-0.089 -0.155,-0.052 -0.302,-0.127 -0.438,-0.224 -0.136,-0.098 -0.255,-0.212 -0.353,-0.339 -0.1,-0.132 -0.18,-0.274 -0.236,-0.424l0 -0.001c-0.055,-0.152 -0.088,-0.312 -0.097,-0.474 -0.008,-0.159 0.007,-0.322 0.048,-0.482l1.227 -4.93 -3.936 -3.279c-0.129,-0.108 -0.238,-0.231 -0.327,-0.365 -0.09,-0.136 -0.159,-0.284 -0.203,-0.437 -0.044,-0.156 -0.065,-0.317 -0.061,-0.479 0.003,-0.16 0.03,-0.321 0.082,-0.479 0.053,-0.158 0.127,-0.305 0.219,-0.435 0.095,-0.133 0.208,-0.25 0.336,-0.349 0.127,-0.1 0.27,-0.182 0.426,-0.241 0.152,-0.058 0.315,-0.094 0.484,-0.106l5.14 -0.374 1.948 -4.697c0.065,-0.156 0.15,-0.298 0.251,-0.421 0.105,-0.127 0.227,-0.236 0.362,-0.325 0.136,-0.09 0.285,-0.16 0.443,-0.207 0.156,-0.047 0.32,-0.071 0.486,-0.071 0.166,0 0.329,0.024 0.486,0.071 0.158,0.048 0.307,0.118 0.443,0.208 0.136,0.089 0.258,0.199 0.362,0.326 0.102,0.124 0.187,0.265 0.25,0.419zm-34.201 5.976l21.237 0 -0.021 0.218c-0.02,0.212 -0.037,0.432 -0.051,0.659 -0.015,0.227 -0.026,0.449 -0.033,0.666l-0.006 0.194 -21.126 0c-0.555,0 -1.058,0.221 -1.422,0.579 -0.365,0.358 -0.592,0.853 -0.594,1.398l0.001 22.835c0,0.269 0.054,0.525 0.152,0.758 0.102,0.242 0.253,0.461 0.439,0.645l0.037 0.036c0.067,0.059 0.126,0.107 0.197,0.162l0.082 0.056c0.052,0.033 0.103,0.062 0.156,0.092 0.144,0.076 0.298,0.136 0.459,0.176 0.157,0.039 0.323,0.06 0.493,0.06l39.108 0c0.555,0 1.058,-0.222 1.423,-0.579 0.365,-0.359 0.591,-0.853 0.593,-1.399 -0.567,-5.673 0,-14.864 0,-20.921l0.144 -0.043c0.219,-0.066 0.445,-0.138 0.677,-0.216 0.226,-0.076 0.449,-0.155 0.668,-0.237l0.274 -0.102 0 21.512c0,1.026 -0.424,1.956 -1.108,2.63 -0.684,0.674 -1.629,1.092 -2.671,1.092l-39.107 0c-0.346,0 -0.683,-0.047 -1.004,-0.134 -0.33,-0.09 -0.643,-0.223 -0.93,-0.393 -0.018,-0.009 -0.038,-0.024 -0.056,-0.033 -0.089,-0.054 -0.179,-0.115 -0.269,-0.182 -0.087,-0.063 -0.171,-0.131 -0.253,-0.203l-0.079 -0.072 -0.08 -0.075c-0.079,-0.079 -0.157,-0.163 -0.232,-0.251 -0.074,-0.088 -0.145,-0.179 -0.209,-0.272 -0.024,-0.035 -0.072,-0.098 -0.09,-0.133 -0.186,-0.292 -0.332,-0.611 -0.431,-0.948 -0.095,-0.326 -0.146,-0.671 -0.146,-1.027l0 -22.826c0,-1.026 0.423,-1.957 1.108,-2.631 0.684,-0.674 1.629,-1.091 2.67,-1.091zm18.988 18.702l0 1.626 -0.024 0c-0.039,0.159 -0.121,0.302 -0.235,0.414 -0.16,0.157 -0.38,0.255 -0.623,0.255 -0.244,0 -0.464,-0.097 -0.624,-0.254 -0.159,-0.158 -0.258,-0.375 -0.258,-0.614l0 -1.427c0,-0.24 0.099,-0.457 0.259,-0.614 0.16,-0.157 0.38,-0.255 0.623,-0.255 0.242,0 0.463,0.098 0.623,0.255 0.16,0.157 0.259,0.374 0.259,0.614zm-3.678 -0.614c0.159,-0.157 0.379,-0.255 0.623,-0.255 0.243,0 0.464,0.098 0.623,0.255 0.16,0.157 0.258,0.374 0.258,0.614l0 1.427c0,0.239 -0.098,0.457 -0.258,0.614 -0.159,0.157 -0.38,0.254 -0.623,0.254 -0.243,0 -0.463,-0.097 -0.623,-0.254 -0.16,-0.158 -0.259,-0.375 -0.259,-0.614l0 -1.427c0,-0.24 0.099,-0.457 0.259,-0.614zm-0.668 0.614l0 1.427c0,0.239 -0.099,0.457 -0.258,0.614 -0.161,0.157 -0.381,0.254 -0.624,0.254 -0.243,0 -0.464,-0.097 -0.623,-0.254 -0.16,-0.157 -0.258,-0.375 -0.258,-0.614l0 -1.427c0,-0.24 0.099,-0.457 0.258,-0.614 0.159,-0.157 0.38,-0.255 0.623,-0.255 0.243,0 0.463,0.098 0.623,0.255 0.16,0.158 0.259,0.375 0.259,0.614zm-2.173 0l0 1.427c0,0.239 -0.099,0.457 -0.258,0.614 -0.16,0.157 -0.381,0.254 -0.624,0.254 -0.242,0 -0.462,-0.097 -0.622,-0.254 -0.16,-0.159 -0.259,-0.376 -0.259,-0.614l0 -1.427c0,-0.24 0.099,-0.457 0.258,-0.614 0.161,-0.157 0.381,-0.255 0.623,-0.255 0.243,0 0.464,0.098 0.623,0.255 0.16,0.158 0.259,0.375 0.259,0.614zm-4.66 1.427l0 -1.427c0,-0.239 0.099,-0.456 0.258,-0.613 0.16,-0.158 0.38,-0.256 0.623,-0.256 0.243,0 0.464,0.098 0.623,0.255 0.16,0.157 0.259,0.374 0.259,0.614l0 1.427c0,0.238 -0.099,0.455 -0.258,0.613 -0.161,0.158 -0.381,0.255 -0.624,0.255 -0.243,0 -0.463,-0.097 -0.623,-0.254 -0.159,-0.157 -0.258,-0.375 -0.258,-0.614zm-2.173 0l0 -1.427c0,-0.24 0.099,-0.457 0.259,-0.614 0.16,-0.157 0.38,-0.255 0.623,-0.255 0.243,0 0.464,0.098 0.623,0.255 0.16,0.158 0.259,0.375 0.259,0.614l0 1.427c0,0.239 -0.099,0.456 -0.259,0.613 -0.16,0.158 -0.38,0.255 -0.623,0.255 -0.242,0 -0.463,-0.097 -0.623,-0.254 -0.16,-0.159 -0.259,-0.376 -0.259,-0.614zm-2.172 0l0 -1.427c0,-0.24 0.099,-0.457 0.258,-0.614 0.16,-0.157 0.38,-0.255 0.623,-0.255 0.244,0 0.464,0.098 0.624,0.255 0.159,0.158 0.258,0.375 0.258,0.614l0 1.427c0,0.239 -0.099,0.457 -0.258,0.614 -0.161,0.157 -0.381,0.254 -0.624,0.254 -0.243,0 -0.464,-0.097 -0.623,-0.254 -0.159,-0.157 -0.258,-0.375 -0.258,-0.614zm-1.914 0.613c-0.16,-0.156 -0.259,-0.374 -0.259,-0.613l0 -1.427c0,-0.24 0.099,-0.457 0.259,-0.614 0.159,-0.157 0.379,-0.255 0.623,-0.255 0.243,0 0.464,0.098 0.623,0.255 0.16,0.157 0.259,0.374 0.259,0.614l0 1.427c0,0.239 -0.099,0.457 -0.259,0.614 -0.159,0.157 -0.38,0.254 -0.623,0.254 -0.243,0 -0.463,-0.097 -0.623,-0.255zm5.126 -8.615l1.29 0c0.157,0 0.299,-0.063 0.401,-0.164 0.103,-0.1 0.166,-0.241 0.166,-0.394l0 -0.559 -0.567 0c-0.243,0 -0.463,-0.097 -0.623,-0.254 -0.159,-0.158 -0.258,-0.375 -0.258,-0.614 0,-0.24 0.099,-0.457 0.258,-0.614 0.161,-0.157 0.381,-0.255 0.623,-0.255l0.567 0 0 -0.558c0,-0.154 -0.063,-0.293 -0.166,-0.394 -0.102,-0.101 -0.244,-0.164 -0.401,-0.164l-1.29 0 0 3.97zm-3.621 -1.117l0 0.559c0,0.153 0.063,0.293 0.166,0.394 0.102,0.101 0.244,0.164 0.4,0.164l1.291 0 0 -3.97 -1.291 0c-0.156,0 -0.298,0.063 -0.401,0.164 -0.102,0.1 -0.165,0.24 -0.165,0.394l0 0.559 0.566 0c0.243,-0.001 0.463,0.097 0.623,0.254 0.16,0.158 0.259,0.375 0.259,0.614 0,0.239 -0.099,0.457 -0.258,0.614 -0.16,0.157 -0.38,0.254 -0.624,0.254l-0.566 0zm7.242 -2.295l0 2.854c0,0.631 -0.262,1.205 -0.684,1.621 -0.422,0.416 -1.005,0.673 -1.647,0.673l-4.345 0c-0.642,0 -1.225,-0.257 -1.646,-0.672 -0.422,-0.417 -0.684,-0.991 -0.684,-1.622l0 -2.854c0,-0.632 0.262,-1.206 0.684,-1.622 0.422,-0.415 1.005,-0.673 1.646,-0.673l0.016 0.001c0.894,0.072 1.747,0.061 2.523,0.05 2.41,-0.032 4.137,-0.055 4.137,2.244zm-8.124 14.825l13.036 0c0.242,0 0.462,0.098 0.622,0.255 0.16,0.158 0.259,0.375 0.259,0.613 0,0.239 -0.099,0.456 -0.258,0.614 -0.161,0.157 -0.381,0.255 -0.623,0.255l-13.036 -0.001c-0.243,0.001 -0.463,-0.096 -0.622,-0.254 -0.161,-0.158 -0.26,-0.375 -0.26,-0.614 0,-0.238 0.099,-0.455 0.259,-0.612 0.16,-0.158 0.381,-0.256 0.623,-0.256zm32.556 -23.667l-2.069 -4.989 -2.277 5.49 -5.993 0.436 4.588 3.823 -1.432 5.756 5.114 -3.119 5.112 3.118 -1.431 -5.755 4.589 -3.823 -5.993 -0.436 -0.208 -0.501z"/>
 </g>
</svg>
