<?xml version="1.0" encoding="UTF-8"?>
<!DOCTYPE svg PUBLIC "-//W3C//DTD SVG 1.1//EN" "http://www.w3.org/Graphics/SVG/1.1/DTD/svg11.dtd">
<!-- Creator: CorelDRAW 2017 -->
<svg xmlns="http://www.w3.org/2000/svg" xml:space="preserve" width="595px" height="842px" version="1.1" style="shape-rendering:geometricPrecision; text-rendering:geometricPrecision; image-rendering:optimizeQuality; fill-rule:evenodd; clip-rule:evenodd"
viewBox="0 0 595 841.5"
 xmlns:xlink="http://www.w3.org/1999/xlink">
 <defs>
  <style type="text/css">
   <![CDATA[
    .str0 {stroke:#205FAD;stroke-width:1.999;stroke-miterlimit:22.9256}
    .fil0 {fill:#205FAD}
    .fil2 {fill:white}
    .fil3 {fill:#205FAD;fill-rule:nonzero}
    .fil1 {fill:#FFE875;fill-rule:nonzero}
   ]]>
  </style>
 </defs>
 <g id="Слой_x0020_1">
  <metadata id="CorelCorpID_0Corel-Layer"/>
  <path class="fil0" d="M236.708 242.158c-20.807,0 -37.675,-16.798 -37.675,-37.518 0,-20.721 16.868,-37.518 37.675,-37.518 20.808,0 37.676,16.797 37.676,37.518 0,20.72 -16.868,37.518 -37.676,37.518z"/>
  <g id="_934380760">
   <polygon class="fil1" points="220.885,213.722 219.735,212.578 226.875,205.469 228.026,206.612 "/>
   <polygon class="fil1" points="234.377,205.796 219.701,220.41 220.85,221.554 234.377,208.085 "/>
   <polygon class="fil1" points="239.142,211.137 243.687,206.612 242.537,205.469 239.142,208.849 "/>
   <polygon class="fil1" points="234.377,213.592 221.842,226.076 222.991,227.22 234.377,215.881 "/>
   <polygon class="fil1" points="239.142,218.933 251.516,206.612 250.367,205.469 239.142,216.644 "/>
   <polygon class="fil1" points="234.377,221.389 229.671,226.076 230.821,227.22 234.377,223.678 "/>
   <polygon class="fil1" points="239.142,226.729 253.656,212.278 252.506,211.135 239.142,224.442 "/>
   <polygon class="fil1" points="246.482,227.22 245.332,226.076 252.567,218.874 253.716,220.018 "/>
   <polygon class="fil1" points="245.586,191.866 245.586,200.854 227.83,200.854 227.83,191.866 226.205,191.866 226.205,202.473 247.211,202.473 247.211,191.866 "/>
   <path class="fil1" d="M226.503 190.926l20.41 0 0 -1.765 -20.41 0 0 1.765zm22.036 1.619l-23.661 0 0 -5.003 23.661 0 0 5.003z"/>
   <polygon class="fil1" points="238.333,206.309 238.333,225.606 235.082,225.606 235.082,206.309 233.457,206.309 233.457,227.224 239.958,227.224 239.958,206.309 "/>
   <path class="fil1" d="M231.613 181.77c-0.913,0 -1.657,0.739 -1.657,1.648 0,0.91 0.744,1.649 1.657,1.649 0.55,0 2.092,-0.77 3.547,-1.649 -1.455,-0.878 -2.997,-1.648 -3.547,-1.648zm0 4.916c-1.81,0 -3.283,-1.466 -3.283,-3.268 0,-1.801 1.473,-3.267 3.283,-3.267 1.531,0 4.86,2.161 5.512,2.594l1.012 0.673 -1.012 0.673c-0.652,0.433 -3.981,2.595 -5.512,2.595z"/>
   <path class="fil1" d="M238.257 183.418c1.455,0.879 2.996,1.649 3.548,1.649 0.912,0 1.654,-0.739 1.654,-1.649 0,-0.909 -0.742,-1.648 -1.654,-1.648 -0.552,0 -2.095,0.77 -3.548,1.648zm3.548 3.268c-1.534,0 -4.863,-2.162 -5.515,-2.595l-1.011 -0.673 1.012 -0.673c0.651,-0.433 3.981,-2.594 5.514,-2.594 1.808,0 3.279,1.466 3.279,3.267 0,1.802 -1.471,3.268 -3.279,3.268z"/>
   <polygon class="fil1" points="253.787,227.506 219.628,227.506 219.628,206.24 221.253,206.24 221.253,225.888 252.162,225.888 252.162,206.24 253.787,206.24 "/>
   <path class="fil1" d="M219.096 204.984l35.225 0 0 -2.569 -35.225 0 0 2.569zm36.85 1.619l-38.475 0 0 -5.806 38.475 0 0 5.806z"/>
  </g>
  <path class="fil2 str0" d="M266.788 162.195c6.742,0 12.208,5.442 12.208,12.156 0,6.714 -5.466,12.157 -12.208,12.157 -6.742,0 -12.208,-5.443 -12.208,-12.157 0,-6.714 5.466,-12.156 12.208,-12.156z"/>
  <path class="fil3" d="M267.912 178.771c0,0.309 -0.126,0.588 -0.329,0.791l-0.002 0c-0.203,0.202 -0.484,0.327 -0.793,0.327 -0.309,0 -0.589,-0.125 -0.792,-0.327l-0.002 0c-0.203,-0.203 -0.329,-0.482 -0.329,-0.791 0,-0.308 0.126,-0.587 0.329,-0.79l0 -0.001c0.203,-0.202 0.484,-0.328 0.794,-0.328 0.309,0 0.59,0.126 0.793,0.328l0.002 0c0.203,0.202 0.329,0.482 0.329,0.791zm-1.124 -1.755c-0.212,0 -0.405,-0.086 -0.545,-0.225 -0.139,-0.139 -0.226,-0.331 -0.226,-0.543 0,-0.665 0.237,-1.172 0.577,-1.589 0.316,-0.389 0.71,-0.679 1.078,-0.95 0.625,-0.462 1.165,-0.86 1.165,-1.606 0,-0.515 -0.202,-0.95 -0.547,-1.254 -0.359,-0.317 -0.88,-0.501 -1.502,-0.501 -0.611,0 -1.125,0.208 -1.483,0.563 -0.357,0.356 -0.565,0.869 -0.565,1.477 0,0.212 -0.087,0.404 -0.226,0.543 -0.139,0.139 -0.332,0.225 -0.545,0.225 -0.211,0 -0.404,-0.086 -0.544,-0.225l-0.001 -0.002c-0.14,-0.139 -0.226,-0.331 -0.226,-0.541 0,-1.03 0.379,-1.922 1.019,-2.56 0.64,-0.637 1.537,-1.015 2.571,-1.015 1.026,0 1.918,0.343 2.556,0.922 0.65,0.587 1.034,1.413 1.034,2.368 0,0.762 -0.252,1.33 -0.615,1.789 -0.343,0.435 -0.772,0.751 -1.175,1.048 -0.552,0.408 -1.029,0.76 -1.029,1.308 0,0.211 -0.086,0.403 -0.226,0.542l-0.001 0.001c-0.14,0.139 -0.332,0.225 -0.544,0.225z"/>
 </g>
</svg>
