<?xml version="1.0" encoding="UTF-8"?>
<!DOCTYPE svg PUBLIC "-//W3C//DTD SVG 1.1//EN" "http://www.w3.org/Graphics/SVG/1.1/DTD/svg11.dtd">
<!-- Creator: CorelDRAW 2017 -->
<svg xmlns="http://www.w3.org/2000/svg" xml:space="preserve" width="595px" height="842px" version="1.1" style="shape-rendering:geometricPrecision; text-rendering:geometricPrecision; image-rendering:optimizeQuality; fill-rule:evenodd; clip-rule:evenodd"
viewBox="0 0 595 841.5"
 xmlns:xlink="http://www.w3.org/1999/xlink">
 <defs>
  <style type="text/css">
   <![CDATA[
    .str0 {stroke:#205FAD;stroke-width:1.999;stroke-miterlimit:22.9256}
    .fil0 {fill:#205FAD}
    .fil1 {fill:white}
    .fil2 {fill:#205FAD;fill-rule:nonzero}
    .fil3 {fill:#FFE875;fill-rule:nonzero}
   ]]>
  </style>
 </defs>
 <g id="Слой_x0020_1">
  <metadata id="CorelCorpID_0Corel-Layer"/>
  <path class="fil0" d="M85.607 -60.908c-20.807,0 -37.675,-16.733 -37.675,-37.375 0,-20.641 16.868,-37.374 37.675,-37.374 20.808,0 37.676,16.733 37.676,37.374 0,20.642 -16.868,37.375 -37.676,37.375z"/>
  <path class="fil1 str0" d="M115.687 -140.871c6.742,0 12.208,5.422 12.208,12.11 0,6.688 -5.466,12.11 -12.208,12.11 -6.742,0 -12.207,-5.422 -12.207,-12.11 0,-6.688 5.465,-12.11 12.207,-12.11z"/>
  <path class="fil2" d="M116.811 -124.359c0,0.308 -0.126,0.587 -0.329,0.788l-0.002 0c-0.203,0.202 -0.484,0.327 -0.793,0.327 -0.309,0 -0.589,-0.125 -0.792,-0.327l-0.002 0c-0.203,-0.201 -0.329,-0.48 -0.329,-0.788 0,-0.306 0.126,-0.584 0.329,-0.786l0 -0.002c0.203,-0.201 0.484,-0.326 0.794,-0.326 0.309,0 0.59,0.125 0.793,0.326l0.002 0c0.203,0.202 0.329,0.481 0.329,0.788zm-1.124 -1.748c-0.212,0 -0.405,-0.085 -0.545,-0.224 -0.139,-0.138 -0.225,-0.329 -0.225,-0.54 0,-0.663 0.236,-1.168 0.576,-1.584 0.317,-0.387 0.71,-0.676 1.078,-0.946 0.626,-0.46 1.165,-0.856 1.165,-1.6 0,-0.513 -0.201,-0.946 -0.547,-1.249 -0.359,-0.315 -0.88,-0.499 -1.502,-0.499 -0.611,0 -1.125,0.207 -1.483,0.561 -0.357,0.355 -0.565,0.865 -0.565,1.471 0,0.211 -0.086,0.402 -0.226,0.541 -0.139,0.138 -0.332,0.224 -0.545,0.224 -0.211,0 -0.403,-0.086 -0.543,-0.224l-0.002 -0.001c-0.14,-0.14 -0.226,-0.331 -0.226,-0.54 0,-1.026 0.379,-1.915 1.02,-2.55 0.64,-0.635 1.536,-1.011 2.57,-1.011 1.026,0 1.918,0.341 2.556,0.918 0.65,0.585 1.034,1.408 1.034,2.359 0,0.759 -0.251,1.325 -0.615,1.783 -0.343,0.432 -0.772,0.748 -1.174,1.043 -0.553,0.406 -1.03,0.757 -1.03,1.304 0,0.21 -0.086,0.4 -0.226,0.539l-0.001 0.002c-0.14,0.138 -0.332,0.223 -0.544,0.223z"/>
  <path class="fil3" d="M100.679 -103.071l2.002 1.55 2.609 -0.839 1.454 2.306 2.737 0.096 0.572 2.657 2.539 1.019 -0.38 2.693 2.037 1.822 -1.284 2.4 1.284 2.401 -2.037 1.821 0.38 2.692 -2.539 1.02 -0.572 2.657 -2.737 0.097 -1.454 2.305 -2.609 -0.839 -2.16 1.672 -2.159 -1.672 -2.608 0.839 -1.454 -2.305 -2.739 -0.097 -0.57 -2.657 -2.541 -1.02 0.38 -2.692 -2.037 -1.821 1.285 -2.401 -1.285 -2.4 2.037 -1.822 -0.38 -2.692 2.541 -1.02 0.57 -2.657 2.739 -0.096 1.454 -2.306 2.608 0.839 2.159 -1.671 0.158 0.121zm-2.73 20.401l-5.775 -5.729 3.84 -3.809 2.57 2.549 7.068 -7.01 3.839 3.808c-3.634,3.608 -7.271,7.214 -10.907,10.82l-0.635 -0.629zm-3.234 -5.729l3.869 3.839 8.367 -8.3 -1.299 -1.289c-2.356,2.337 -4.713,4.672 -7.068,7.01l-2.57 -2.549 -1.299 1.289zm-12.916 -8.736l0 1.607 -0.038 0c-0.043,0.143 -0.121,0.271 -0.224,0.373 -0.163,0.162 -0.387,0.262 -0.633,0.262 -0.248,0 -0.472,-0.1 -0.634,-0.261 -0.161,-0.161 -0.262,-0.383 -0.262,-0.628l0 -1.353c0,-0.246 0.1,-0.468 0.262,-0.629 0.163,-0.16 0.387,-0.26 0.634,-0.26 0.246,0 0.471,0.1 0.633,0.26 0.162,0.162 0.262,0.384 0.262,0.629zm-3.575 -0.628c0.162,-0.161 0.386,-0.261 0.632,-0.261 0.248,0 0.472,0.1 0.634,0.26 0.162,0.161 0.262,0.383 0.262,0.629l0 1.353c0,0.245 -0.1,0.468 -0.262,0.628 -0.162,0.161 -0.386,0.261 -0.634,0.261 -0.247,0 -0.471,-0.1 -0.632,-0.261 -0.163,-0.16 -0.263,-0.383 -0.263,-0.628l0 -1.353c0,-0.245 0.1,-0.468 0.263,-0.628zm-0.518 0.628l0 1.353c0,0.245 -0.101,0.466 -0.263,0.628 -0.161,0.161 -0.386,0.261 -0.633,0.261 -0.247,0 -0.471,-0.1 -0.633,-0.261 -0.162,-0.16 -0.262,-0.383 -0.262,-0.628l0 -1.353c0,-0.245 0.1,-0.468 0.262,-0.629 0.163,-0.16 0.387,-0.26 0.633,-0.26 0.246,0 0.47,0.099 0.632,0.26 0.164,0.162 0.264,0.385 0.264,0.629zm-2.046 0l0 1.353c0,0.245 -0.101,0.466 -0.263,0.628 -0.162,0.161 -0.386,0.261 -0.633,0.261 -0.247,0 -0.471,-0.1 -0.633,-0.261 -0.162,-0.16 -0.263,-0.383 -0.263,-0.628l0 -1.353c0,-0.245 0.101,-0.468 0.263,-0.629 0.163,-0.16 0.387,-0.26 0.633,-0.26 0.246,0 0.47,0.099 0.632,0.26 0.163,0.162 0.264,0.385 0.264,0.629zm-4.52 1.353l0 -1.353c0,-0.245 0.1,-0.468 0.262,-0.629 0.163,-0.16 0.387,-0.26 0.633,-0.26 0.247,0 0.471,0.1 0.633,0.26 0.163,0.161 0.263,0.384 0.263,0.629l0 1.353c0,0.245 -0.1,0.468 -0.263,0.628 -0.163,0.161 -0.386,0.261 -0.633,0.261 -0.247,0 -0.471,-0.1 -0.633,-0.261 -0.162,-0.16 -0.262,-0.383 -0.262,-0.628zm-2.047 0l0 -1.353c0,-0.245 0.101,-0.468 0.263,-0.629 0.163,-0.16 0.387,-0.26 0.633,-0.26 0.246,0 0.47,0.099 0.632,0.26 0.163,0.162 0.264,0.385 0.264,0.629l0 1.353c0,0.245 -0.101,0.466 -0.263,0.628 -0.162,0.161 -0.386,0.261 -0.633,0.261 -0.247,0 -0.471,-0.1 -0.633,-0.261 -0.162,-0.16 -0.263,-0.383 -0.263,-0.628zm-2.046 0l0 -1.353c0,-0.245 0.1,-0.468 0.263,-0.629 0.162,-0.16 0.386,-0.26 0.632,-0.26 0.246,0 0.47,0.099 0.633,0.26 0.163,0.162 0.263,0.385 0.263,0.629l0 1.353c0,0.245 -0.1,0.466 -0.263,0.628 -0.161,0.161 -0.385,0.261 -0.633,0.261 -0.247,0 -0.471,-0.1 -0.632,-0.261 -0.163,-0.16 -0.263,-0.383 -0.263,-0.628zm-1.784 0.628c-0.162,-0.16 -0.262,-0.383 -0.262,-0.628l0 -1.353c0,-0.245 0.1,-0.468 0.262,-0.629 0.163,-0.16 0.387,-0.26 0.633,-0.26 0.247,0 0.471,0.099 0.634,0.26 0.162,0.161 0.262,0.384 0.262,0.629l0 1.353c0,0.244 -0.101,0.466 -0.263,0.628 -0.161,0.161 -0.386,0.261 -0.633,0.261 -0.247,0 -0.471,-0.1 -0.633,-0.261zm4.94 -8.283l1.15 0c0.129,0 0.247,-0.052 0.331,-0.137 0.085,-0.084 0.138,-0.2 0.138,-0.328l0 -0.465 -0.469 0c-0.246,0 -0.47,-0.1 -0.632,-0.261 -0.163,-0.16 -0.263,-0.382 -0.263,-0.628 0,-0.244 0.1,-0.466 0.262,-0.627 0.163,-0.162 0.387,-0.261 0.633,-0.261l0.469 0 0 -0.465c0,-0.129 -0.052,-0.245 -0.136,-0.329 -0.085,-0.084 -0.203,-0.136 -0.333,-0.136l-1.15 0 0 3.637zm-3.411 -0.93l0 0.465c0,0.128 0.053,0.245 0.137,0.329 0.085,0.084 0.202,0.136 0.332,0.136l1.15 0 0 -3.637 -1.15 0c-0.129,0 -0.247,0.052 -0.331,0.136 -0.085,0.084 -0.138,0.2 -0.138,0.329l0 0.466 0.469 0c0.246,-0.001 0.47,0.099 0.632,0.26 0.163,0.16 0.263,0.382 0.263,0.627 0,0.246 -0.1,0.468 -0.262,0.628 -0.162,0.161 -0.386,0.261 -0.633,0.261l-0.469 0zm6.821 -2.242l0 2.707c0,0.618 -0.253,1.179 -0.662,1.584 -0.41,0.406 -0.975,0.658 -1.598,0.658l-4.092 0c-0.622,0 -1.188,-0.252 -1.597,-0.658 -0.41,-0.405 -0.663,-0.966 -0.663,-1.584l0 -2.707c0,-0.617 0.254,-1.178 0.663,-1.584 0.408,-0.406 0.974,-0.658 1.597,-0.658l4.092 0c0.623,0 1.188,0.252 1.597,0.658 0.409,0.406 0.663,0.967 0.663,1.584zm-7.717 13.999l12.279 0c0.247,0 0.471,0.099 0.633,0.26 0.162,0.162 0.262,0.384 0.262,0.628 0,0.245 -0.1,0.467 -0.262,0.628 -0.162,0.161 -0.386,0.26 -0.633,0.26l-12.279 0c-0.247,0 -0.471,-0.099 -0.633,-0.26 -0.162,-0.161 -0.262,-0.384 -0.262,-0.628 0,-0.245 0.1,-0.467 0.262,-0.628 0.162,-0.161 0.386,-0.26 0.633,-0.26zm19.787 6.514l-21.833 0c-0.331,0 -0.654,-0.046 -0.962,-0.13 -0.317,-0.086 -0.617,-0.215 -0.893,-0.379 -0.017,-0.009 -0.036,-0.023 -0.053,-0.032 -0.09,-0.055 -0.176,-0.114 -0.258,-0.174 -0.087,-0.066 -0.169,-0.132 -0.243,-0.197 -0.053,-0.047 -0.103,-0.093 -0.149,-0.139l-0.004 -0.003c-0.072,-0.072 -0.146,-0.153 -0.221,-0.243 -0.072,-0.086 -0.139,-0.173 -0.201,-0.263 -0.017,-0.016 -0.07,-0.105 -0.085,-0.128 -0.18,-0.283 -0.321,-0.591 -0.415,-0.916 -0.091,-0.318 -0.14,-0.651 -0.14,-0.992l0 -21.653c0,-0.991 0.406,-1.89 1.062,-2.541 0.657,-0.652 1.563,-1.055 2.562,-1.055l36.835 0c0.504,0 0.985,0.103 1.424,0.289 0.454,0.194 0.861,0.477 1.197,0.826l0.069 0.073c0.041,0.046 0.084,0.095 0.126,0.147 0.045,0.056 0.085,0.107 0.12,0.155l0.101 0.145c0.067,0.108 0.133,0.212 0.19,0.325 0.129,0.25 0.229,0.516 0.297,0.793 0.066,0.274 0.101,0.556 0.101,0.843l0 8.689 -1.792 0 0 -8.689c0,-0.247 -0.049,-0.482 -0.138,-0.695 -0.093,-0.222 -0.23,-0.424 -0.399,-0.591 -0.17,-0.168 -0.372,-0.304 -0.596,-0.395 -0.214,-0.089 -0.451,-0.138 -0.7,-0.138l-36.835 0c-0.505,0 -0.962,0.203 -1.294,0.531 -0.332,0.328 -0.538,0.781 -0.54,1.28l0.001 21.661c0,0.247 0.049,0.482 0.138,0.695 0.093,0.222 0.229,0.422 0.396,0.588 0.072,0.07 0.136,0.123 0.215,0.184 0.075,0.052 0.136,0.09 0.215,0.135 0.131,0.07 0.273,0.125 0.42,0.162 0.143,0.035 0.294,0.055 0.449,0.055l22.089 0 0 1.777 -0.256 0zm16.553 -13.599l-1.715 -1.327 -1.822 1.41 -2.194 -0.706 -1.224 1.941 -2.31 0.082 -0.482 2.243 -2.141 0.859 0.32 2.269 -1.714 1.533 1.083 2.024 -1.083 2.024 1.714 1.533 -0.32 2.269 2.141 0.86 0.482 2.242 2.31 0.081 1.223 1.943 2.195 -0.706 1.822 1.41 1.822 -1.41 2.196 0.705 1.225 -1.942 2.308 -0.081 0.482 -2.242 2.141 -0.86 -0.32 -2.269 1.714 -1.533 -1.084 -2.024 1.084 -2.024 -1.714 -1.533 0.32 -2.269 -2.141 -0.859 -0.482 -2.243 -2.308 -0.082 -1.225 -1.941 -2.196 0.706 -0.107 -0.083z"/>
 </g>
</svg>
