<?xml version="1.0" encoding="UTF-8"?>
<!DOCTYPE svg PUBLIC "-//W3C//DTD SVG 1.1//EN" "http://www.w3.org/Graphics/SVG/1.1/DTD/svg11.dtd">
<!-- Creator: CorelDRAW 2017 -->
<svg xmlns="http://www.w3.org/2000/svg" xml:space="preserve" width="82px" height="82px" version="1.1" style="shape-rendering:geometricPrecision; text-rendering:geometricPrecision; image-rendering:optimizeQuality; fill-rule:evenodd; clip-rule:evenodd"
viewBox="0 0 82 82"
 xmlns:xlink="http://www.w3.org/1999/xlink">
 <defs>
  <style type="text/css">
   <![CDATA[
    .str0 {stroke:#205FAD;stroke-width:2;stroke-miterlimit:22.9256}
    .fil0 {fill:#205FAD}
    .fil1 {fill:white}
    .fil2 {fill:#205FAD;fill-rule:nonzero}
    .fil3 {fill:#FFE875;fill-rule:nonzero}
   ]]>
  </style>
 </defs>
 <g id="Слой_x0020_1">
  <metadata id="CorelCorpID_0Corel-Layer"/>
  <path class="fil0" d="M38.786 81c-20.869,0 -37.786,-16.741 -37.786,-37.392 0,-20.651 16.917,-37.391 37.786,-37.391 20.868,0 37.785,16.74 37.785,37.391 0,20.651 -16.917,37.392 -37.785,37.392z"/>
  <path class="fil1 str0" d="M68.757 1c6.762,0 12.243,5.424 12.243,12.116 0,6.691 -5.481,12.115 -12.243,12.115 -6.762,0 -12.243,-5.424 -12.243,-12.115 0,-6.692 5.481,-12.116 12.243,-12.116z"/>
  <path class="fil2" d="M69.883 17.52c0,0.308 -0.126,0.587 -0.33,0.789l-0.001 0c-0.204,0.201 -0.485,0.326 -0.795,0.326 -0.31,0 -0.591,-0.125 -0.795,-0.326l-0.002 0c-0.204,-0.202 -0.33,-0.481 -0.33,-0.789 0,-0.306 0.126,-0.585 0.33,-0.787l0 -0.001c0.204,-0.201 0.486,-0.327 0.797,-0.327 0.31,0 0.591,0.126 0.795,0.327l0.001 0c0.204,0.202 0.33,0.48 0.33,0.788zm-1.126 -1.748c-0.213,0 -0.407,-0.086 -0.547,-0.225 -0.139,-0.138 -0.226,-0.329 -0.226,-0.54 0,-0.664 0.237,-1.169 0.578,-1.584 0.318,-0.388 0.712,-0.677 1.081,-0.947 0.627,-0.46 1.168,-0.857 1.168,-1.601 0,-0.514 -0.202,-0.947 -0.548,-1.25 -0.36,-0.315 -0.882,-0.499 -1.506,-0.499 -0.613,0 -1.129,0.207 -1.488,0.561 -0.358,0.355 -0.567,0.866 -0.567,1.472 0,0.212 -0.086,0.403 -0.226,0.541 -0.14,0.138 -0.333,0.224 -0.547,0.224 -0.211,0 -0.404,-0.085 -0.545,-0.224l-0.001 -0.001c-0.141,-0.14 -0.227,-0.33 -0.227,-0.54 0,-1.026 0.38,-1.916 1.023,-2.551 0.641,-0.636 1.54,-1.012 2.578,-1.012 1.029,0 1.923,0.342 2.563,0.918 0.652,0.587 1.037,1.41 1.037,2.361 0,0.76 -0.252,1.326 -0.616,1.783 -0.345,0.433 -0.775,0.749 -1.179,1.044 -0.554,0.407 -1.032,0.758 -1.032,1.305 0,0.209 -0.087,0.4 -0.226,0.539l-0.002 0.001c-0.14,0.139 -0.333,0.225 -0.545,0.225z"/>
  <path class="fil3" d="M17.605 35.173c-0.261,0 -0.497,-0.105 -0.668,-0.274 -0.171,-0.17 -0.277,-0.403 -0.277,-0.662 0,-0.257 0.106,-0.491 0.277,-0.66 0.171,-0.17 0.407,-0.274 0.668,-0.274l43.854 0c0.26,0 0.496,0.104 0.667,0.273 0.172,0.17 0.278,0.403 0.278,0.661 0,0.257 -0.106,0.491 -0.277,0.661 -0.172,0.17 -0.408,0.275 -0.668,0.275l-4.067 0 0 20.104 2.902 0c0.26,0 0.496,0.105 0.667,0.274 0.172,0.169 0.278,0.403 0.278,0.661 0,0.258 -0.106,0.492 -0.277,0.661 -0.172,0.169 -0.408,0.274 -0.668,0.274l-41.524 0c-0.26,0 -0.496,-0.105 -0.667,-0.274 -0.172,-0.17 -0.278,-0.404 -0.278,-0.661 0,-0.257 0.106,-0.491 0.277,-0.66 0.172,-0.17 0.408,-0.275 0.668,-0.275l2.102 0 0 -20.104 -3.267 0zm37.897 0l-3.445 0 0 20.104 3.445 0 0 -20.104zm-5.335 0l-7.422 0 0 20.104 7.422 0 0 -20.104zm-9.312 0l-3.447 0 0 20.104 3.447 0 0 -20.104zm-5.337 0l-7.42 0 0 20.104 7.42 0 0 -20.104zm-9.31 0l-3.446 0 0 20.104 3.446 0 0 -20.104zm-9.831 25.975c-0.26,0 -0.496,-0.105 -0.667,-0.274 -0.172,-0.169 -0.278,-0.403 -0.278,-0.661 0,-0.257 0.106,-0.49 0.277,-0.66 0.172,-0.17 0.408,-0.275 0.668,-0.275l46.309 0c0.26,0 0.496,0.105 0.667,0.274 0.172,0.17 0.278,0.404 0.278,0.661 0,0.258 -0.106,0.492 -0.277,0.661 -0.172,0.169 -0.408,0.274 -0.668,0.274l-46.309 0zm40.819 -31.373l-17.664 -9.296 -17.665 9.296 35.329 0zm-17.221 -11.179l21.424 11.274c0.157,0.077 0.291,0.196 0.384,0.342 0.092,0.145 0.145,0.316 0.145,0.498 0,0.257 -0.106,0.491 -0.276,0.66 -0.172,0.17 -0.408,0.275 -0.668,0.275l-42.905 0c-0.172,-0.002 -0.341,-0.048 -0.486,-0.135 -0.143,-0.084 -0.264,-0.207 -0.347,-0.362 -0.122,-0.227 -0.139,-0.482 -0.069,-0.711 0.071,-0.229 0.23,-0.432 0.459,-0.552l21.447 -11.286c0.137,-0.073 0.29,-0.112 0.446,-0.112 0.151,-0.001 0.305,0.034 0.446,0.109z"/>
 </g>
</svg>
