<?xml version="1.0" encoding="UTF-8"?>
<!DOCTYPE svg PUBLIC "-//W3C//DTD SVG 1.1//EN" "http://www.w3.org/Graphics/SVG/1.1/DTD/svg11.dtd">
<!-- Creator: CorelDRAW 2017 -->
<svg xmlns="http://www.w3.org/2000/svg" xml:space="preserve" width="82px" height="82px" version="1.1" style="shape-rendering:geometricPrecision; text-rendering:geometricPrecision; image-rendering:optimizeQuality; fill-rule:evenodd; clip-rule:evenodd"
viewBox="0 0 82 82"
 xmlns:xlink="http://www.w3.org/1999/xlink">
 <defs>
  <style type="text/css">
   <![CDATA[
    .str0 {stroke:#205FAD;stroke-width:2;stroke-miterlimit:22.9256}
    .fil0 {fill:#205FAD}
    .fil2 {fill:white}
    .fil3 {fill:#205FAD;fill-rule:nonzero}
    .fil1 {fill:#FFE875;fill-rule:nonzero}
   ]]>
  </style>
 </defs>
 <g id="Слой_x0020_1">
  <metadata id="CorelCorpID_0Corel-Layer"/>
  <path class="fil0" d="M38.785 81c-20.868,0 -37.785,-16.741 -37.785,-37.392 0,-20.651 16.917,-37.391 37.785,-37.391 20.869,0 37.786,16.74 37.786,37.391 0,20.651 -16.917,37.392 -37.786,37.392z"/>
  <path class="fil1" d="M60.579 45.705l2.782 2.754c-2.05,2.027 -4.097,4.056 -6.148,6.082l6.148 6.084 -2.915 2.885 -6.147 -6.083c-2.05,2.027 -4.099,4.055 -6.148,6.083l-2.915 -2.885c2.048,-2.029 4.098,-4.056 6.148,-6.084 -2.05,-2.027 -4.099,-4.054 -6.148,-6.082l2.915 -2.885c2.05,2.027 4.1,4.054 6.148,6.084 2.049,-2.028 4.097,-4.057 6.147,-6.084l0.133 0.131zm-23.047 2.241l0 1.608 -0.038 0c-0.044,0.143 -0.122,0.271 -0.226,0.373 -0.163,0.162 -0.388,0.262 -0.634,0.262 -0.249,0 -0.473,-0.1 -0.635,-0.261 -0.163,-0.162 -0.264,-0.384 -0.264,-0.628l0 -1.354c0,-0.246 0.101,-0.468 0.264,-0.629 0.163,-0.16 0.387,-0.26 0.635,-0.26 0.247,0 0.472,0.1 0.634,0.26 0.163,0.162 0.264,0.384 0.264,0.629zm-3.586 -0.628c0.163,-0.161 0.387,-0.261 0.634,-0.261 0.248,0 0.473,0.099 0.636,0.26 0.162,0.161 0.263,0.383 0.263,0.629l0 1.354c0,0.245 -0.101,0.468 -0.263,0.628 -0.163,0.161 -0.388,0.261 -0.636,0.261 -0.247,0 -0.472,-0.1 -0.635,-0.261 -0.162,-0.16 -0.263,-0.383 -0.263,-0.628l0 -1.354c0,-0.245 0.101,-0.468 0.264,-0.628zm-0.519 0.628l0 1.354c0,0.244 -0.102,0.466 -0.264,0.627 -0.162,0.162 -0.387,0.262 -0.635,0.262 -0.248,0 -0.472,-0.1 -0.635,-0.261 -0.162,-0.16 -0.263,-0.383 -0.263,-0.628l0 -1.354c0,-0.245 0.101,-0.468 0.263,-0.629 0.164,-0.16 0.388,-0.26 0.635,-0.26 0.247,0 0.471,0.099 0.634,0.26 0.164,0.162 0.265,0.385 0.265,0.629zm-2.053 0l0 1.354c0,0.244 -0.101,0.466 -0.264,0.627 -0.161,0.162 -0.386,0.262 -0.634,0.262 -0.248,0 -0.473,-0.1 -0.635,-0.261 -0.163,-0.16 -0.263,-0.383 -0.263,-0.628l0 -1.354c0,-0.245 0.1,-0.468 0.263,-0.629 0.163,-0.16 0.388,-0.26 0.635,-0.26 0.246,0 0.471,0.099 0.634,0.26 0.163,0.162 0.264,0.385 0.264,0.629zm-4.533 1.354l0 -1.354c0,-0.245 0.101,-0.468 0.263,-0.629 0.164,-0.16 0.388,-0.26 0.635,-0.26 0.248,0 0.473,0.099 0.635,0.26 0.163,0.161 0.264,0.384 0.264,0.629l0 1.354c0,0.245 -0.101,0.468 -0.264,0.628 -0.163,0.161 -0.388,0.261 -0.635,0.261 -0.248,0 -0.472,-0.1 -0.635,-0.261 -0.162,-0.16 -0.263,-0.383 -0.263,-0.628zm-2.052 0l0 -1.354c0,-0.245 0.101,-0.468 0.263,-0.629 0.164,-0.16 0.388,-0.26 0.635,-0.26 0.247,0 0.471,0.099 0.634,0.26 0.163,0.162 0.264,0.385 0.264,0.629l0 1.354c0,0.244 -0.101,0.466 -0.264,0.627 -0.161,0.162 -0.386,0.262 -0.634,0.262 -0.248,0 -0.473,-0.1 -0.635,-0.261 -0.162,-0.16 -0.263,-0.383 -0.263,-0.628zm-2.053 0l0 -1.354c0,-0.245 0.101,-0.468 0.264,-0.629 0.163,-0.16 0.388,-0.26 0.634,-0.26 0.247,0 0.472,0.099 0.635,0.26 0.163,0.162 0.264,0.385 0.264,0.629l0 1.354c0,0.244 -0.101,0.466 -0.264,0.627 -0.161,0.162 -0.387,0.262 -0.635,0.262 -0.247,0 -0.472,-0.1 -0.634,-0.261 -0.163,-0.16 -0.264,-0.383 -0.264,-0.628zm-1.789 0.628c-0.162,-0.16 -0.263,-0.383 -0.263,-0.628l0 -1.354c0,-0.245 0.101,-0.468 0.263,-0.629 0.164,-0.16 0.389,-0.26 0.635,-0.26 0.248,0 0.473,0.099 0.636,0.26 0.162,0.161 0.263,0.384 0.263,0.629l0 1.354c0,0.244 -0.101,0.466 -0.264,0.627 -0.162,0.162 -0.387,0.262 -0.635,0.262 -0.247,0 -0.472,-0.1 -0.635,-0.261zm4.954 -8.287l1.155 0c0.129,0 0.246,-0.053 0.331,-0.136 0.086,-0.085 0.139,-0.201 0.139,-0.329l0 -0.466 -0.47 0c-0.248,0 -0.472,-0.099 -0.635,-0.26 -0.163,-0.161 -0.264,-0.383 -0.264,-0.628 0,-0.244 0.101,-0.467 0.263,-0.628 0.164,-0.162 0.389,-0.261 0.636,-0.261l0.47 0 0 -0.465c0,-0.129 -0.053,-0.245 -0.137,-0.329 -0.085,-0.084 -0.204,-0.136 -0.333,-0.136l-1.155 0 0 3.638zm-3.42 -0.931l0 0.466c0,0.128 0.053,0.245 0.137,0.329 0.085,0.084 0.203,0.136 0.333,0.136l1.154 0 0 -3.638 -1.154 0c-0.13,0 -0.247,0.052 -0.332,0.136 -0.086,0.084 -0.138,0.2 -0.138,0.329l0 0.466 0.47 0c0.247,-0.001 0.471,0.099 0.634,0.26 0.163,0.16 0.264,0.382 0.264,0.628 0,0.245 -0.101,0.467 -0.263,0.628 -0.163,0.161 -0.387,0.26 -0.635,0.26l-0.47 0zm6.841 -2.242l0 2.708c0,0.618 -0.254,1.179 -0.665,1.585 -0.411,0.406 -0.977,0.658 -1.601,0.658l-4.105 0c-0.624,0 -1.191,-0.252 -1.602,-0.658 -0.41,-0.406 -0.665,-0.967 -0.665,-1.585l0 -2.708c0,-0.618 0.255,-1.179 0.665,-1.585 0.41,-0.406 0.977,-0.658 1.602,-0.658l4.105 0c0.624,0 1.19,0.252 1.601,0.658 0.41,0.406 0.665,0.967 0.665,1.585zm-7.74 14.005l12.315 0c0.247,0 0.472,0.099 0.635,0.26 0.162,0.162 0.262,0.384 0.262,0.629 0,0.245 -0.1,0.467 -0.262,0.628 -0.163,0.161 -0.387,0.26 -0.635,0.26l-12.315 0c-0.247,0 -0.472,-0.099 -0.635,-0.26 -0.162,-0.162 -0.263,-0.384 -0.263,-0.628 0,-0.246 0.101,-0.468 0.263,-0.629 0.163,-0.161 0.388,-0.26 0.635,-0.26zm19.844 6.517l-21.896 0c-0.332,0 -0.656,-0.045 -0.965,-0.13 -0.318,-0.087 -0.618,-0.215 -0.895,-0.379 -0.018,-0.009 -0.036,-0.023 -0.054,-0.032 -0.09,-0.056 -0.176,-0.114 -0.258,-0.174 -0.088,-0.066 -0.169,-0.132 -0.244,-0.197 -0.053,-0.047 -0.103,-0.094 -0.149,-0.139l-0.004 -0.004c-0.073,-0.072 -0.147,-0.153 -0.222,-0.243 -0.072,-0.085 -0.14,-0.173 -0.202,-0.262 -0.016,-0.016 -0.07,-0.105 -0.085,-0.129 -0.18,-0.283 -0.321,-0.591 -0.416,-0.916 -0.091,-0.318 -0.141,-0.651 -0.141,-0.992l0 -21.664c0,-0.991 0.408,-1.89 1.066,-2.541 0.658,-0.653 1.567,-1.056 2.569,-1.056l36.943 0c0.505,0 0.988,0.103 1.427,0.289 0.456,0.194 0.864,0.477 1.201,0.827l0.069 0.073c0.042,0.045 0.085,0.095 0.127,0.147 0.045,0.055 0.085,0.107 0.12,0.154l0.101 0.146c0.068,0.108 0.134,0.212 0.191,0.325 0.129,0.25 0.23,0.516 0.298,0.794 0.066,0.273 0.101,0.555 0.101,0.842l0 8.693 -1.796 0 0 -8.693c0,-0.247 -0.05,-0.481 -0.139,-0.694 -0.094,-0.223 -0.231,-0.424 -0.4,-0.592 -0.171,-0.168 -0.374,-0.304 -0.598,-0.396 -0.215,-0.088 -0.453,-0.137 -0.702,-0.137l-36.943 0c-0.506,0 -0.965,0.203 -1.298,0.531 -0.333,0.328 -0.54,0.781 -0.541,1.28l0.001 21.672c0,0.247 0.049,0.482 0.138,0.695 0.093,0.222 0.23,0.421 0.398,0.588 0.072,0.07 0.136,0.123 0.215,0.184 0.075,0.052 0.137,0.09 0.215,0.135 0.132,0.07 0.274,0.125 0.422,0.162 0.143,0.036 0.294,0.055 0.45,0.055l22.153 0 0 1.778 -0.257 0zm23.71 -11.117l-4.69 -4.641c-2.049,2.028 -4.099,4.055 -6.147,6.084 -2.049,-2.029 -4.098,-4.056 -6.148,-6.084 -1.76,1.742 -3.52,3.485 -5.282,5.226l6.148 6.084 -6.147 6.083 5.281 5.227c2.049,-2.028 4.098,-4.057 6.148,-6.084 2.049,2.027 4.098,4.056 6.147,6.084 1.76,-1.743 3.52,-3.485 5.281,-5.226l-6.147 -6.084 6.148 -6.084 -0.592 -0.585z"/>
  <path class="fil2 str0" d="M68.757 1c6.761,0 12.243,5.424 12.243,12.116 0,6.691 -5.482,12.115 -12.243,12.115 -6.762,0 -12.244,-5.424 -12.244,-12.115 0,-6.692 5.482,-12.116 12.244,-12.116z"/>
  <path class="fil3" d="M69.883 17.52c0,0.308 -0.126,0.587 -0.33,0.789l-0.001 0c-0.204,0.201 -0.485,0.326 -0.795,0.326 -0.31,0 -0.591,-0.125 -0.795,-0.326l-0.002 0c-0.204,-0.202 -0.33,-0.481 -0.33,-0.789 0,-0.306 0.126,-0.585 0.33,-0.787l0 -0.001c0.204,-0.201 0.486,-0.327 0.797,-0.327 0.31,0 0.591,0.126 0.795,0.327l0.001 0c0.204,0.202 0.33,0.48 0.33,0.788zm-1.126 -1.748c-0.214,0 -0.407,-0.086 -0.547,-0.225 -0.14,-0.138 -0.226,-0.329 -0.226,-0.54 0,-0.664 0.237,-1.169 0.578,-1.584 0.317,-0.388 0.712,-0.677 1.081,-0.947 0.627,-0.46 1.168,-0.857 1.168,-1.601 0,-0.514 -0.202,-0.947 -0.548,-1.25 -0.36,-0.315 -0.883,-0.499 -1.506,-0.499 -0.614,0 -1.129,0.207 -1.488,0.561 -0.358,0.355 -0.567,0.866 -0.567,1.472 0,0.212 -0.086,0.403 -0.226,0.541 -0.14,0.138 -0.333,0.224 -0.547,0.224 -0.212,0 -0.405,-0.085 -0.545,-0.224l-0.002 -0.001c-0.14,-0.14 -0.226,-0.33 -0.226,-0.54 0,-1.026 0.38,-1.916 1.022,-2.551 0.642,-0.636 1.541,-1.012 2.579,-1.012 1.029,0 1.923,0.342 2.563,0.918 0.652,0.587 1.037,1.41 1.037,2.361 0,0.76 -0.252,1.326 -0.617,1.783 -0.344,0.433 -0.774,0.749 -1.178,1.044 -0.554,0.407 -1.032,0.758 -1.032,1.305 0,0.209 -0.087,0.4 -0.227,0.539l-0.001 0.001c-0.14,0.139 -0.333,0.225 -0.545,0.225z"/>
 </g>
</svg>
