<?xml version="1.0" encoding="UTF-8"?>
<!DOCTYPE svg PUBLIC "-//W3C//DTD SVG 1.1//EN" "http://www.w3.org/Graphics/SVG/1.1/DTD/svg11.dtd">
<!-- Creator: CorelDRAW 2017 -->
<svg xmlns="http://www.w3.org/2000/svg" xml:space="preserve" width="82px" height="82px" version="1.1" style="shape-rendering:geometricPrecision; text-rendering:geometricPrecision; image-rendering:optimizeQuality; fill-rule:evenodd; clip-rule:evenodd"
viewBox="0 0 82 82"
 xmlns:xlink="http://www.w3.org/1999/xlink">
 <defs>
  <style type="text/css">
   <![CDATA[
    .str0 {stroke:#205FAD;stroke-width:2;stroke-miterlimit:22.9256}
    .fil0 {fill:#205FAD}
    .fil1 {fill:white}
    .fil2 {fill:#205FAD;fill-rule:nonzero}
    .fil3 {fill:#FFE875;fill-rule:nonzero}
   ]]>
  </style>
 </defs>
 <g id="Слой_x0020_1">
  <metadata id="CorelCorpID_0Corel-Layer"/>
  <path class="fil0" d="M38.693 81c-20.817,0 -37.693,-16.741 -37.693,-37.392 0,-20.65 16.876,-37.391 37.693,-37.391 20.817,0 37.693,16.741 37.693,37.391 0,20.651 -16.876,37.392 -37.693,37.392z"/>
  <path class="fil1 str0" d="M68.787 1c6.745,0 12.213,5.424 12.213,12.116 0,6.691 -5.468,12.115 -12.213,12.115 -6.745,0 -12.213,-5.424 -12.213,-12.115 0,-6.692 5.468,-12.116 12.213,-12.116z"/>
  <path class="fil2" d="M70.327 17.867c0,0.308 -0.126,0.587 -0.329,0.788l-0.002 0c-0.203,0.202 -0.484,0.327 -0.793,0.327 -0.309,0 -0.59,-0.125 -0.793,-0.327l-0.002 0c-0.203,-0.201 -0.329,-0.48 -0.329,-0.788 0,-0.306 0.126,-0.585 0.329,-0.787l0 -0.001c0.204,-0.202 0.485,-0.327 0.795,-0.327 0.309,0 0.59,0.125 0.793,0.327l0.002 0c0.203,0.202 0.329,0.48 0.329,0.788zm-1.124 -1.749c-0.213,0 -0.406,-0.085 -0.545,-0.224 -0.14,-0.138 -0.226,-0.33 -0.226,-0.541 0,-0.663 0.236,-1.168 0.576,-1.584 0.317,-0.387 0.711,-0.676 1.079,-0.947 0.626,-0.46 1.165,-0.856 1.165,-1.6 0,-0.514 -0.201,-0.947 -0.546,-1.25 -0.36,-0.315 -0.881,-0.499 -1.503,-0.499 -0.612,0 -1.126,0.207 -1.484,0.561 -0.357,0.355 -0.565,0.865 -0.565,1.472 0,0.212 -0.087,0.402 -0.226,0.541 -0.14,0.138 -0.333,0.224 -0.546,0.224 -0.211,0 -0.403,-0.085 -0.543,-0.224l-0.002 -0.001c-0.14,-0.14 -0.226,-0.33 -0.226,-0.54 0,-1.027 0.38,-1.916 1.02,-2.551 0.64,-0.636 1.537,-1.012 2.572,-1.012 1.027,0 1.918,0.342 2.557,0.918 0.65,0.586 1.035,1.409 1.035,2.361 0,0.759 -0.253,1.326 -0.616,1.783 -0.343,0.433 -0.773,0.748 -1.175,1.044 -0.553,0.407 -1.03,0.757 -1.03,1.304 0,0.21 -0.086,0.401 -0.226,0.54l-0.001 0.001c-0.14,0.138 -0.332,0.224 -0.544,0.224z"/>
  <path class="fil3" d="M37.031 41.282c-0.046,0.232 -0.115,0.456 -0.204,0.67 -0.091,0.218 -0.205,0.427 -0.336,0.622 -0.131,0.193 -0.28,0.374 -0.444,0.538 -0.029,0.032 -0.069,0.073 -0.101,0.101 -0.159,0.146 -0.33,0.279 -0.512,0.395 -0.18,0.115 -0.371,0.215 -0.572,0.297 -0.216,0.089 -0.443,0.158 -0.677,0.204 -0.229,0.045 -0.467,0.068 -0.71,0.068l-1.342 0c-0.243,0 -0.48,-0.023 -0.71,-0.068 -0.233,-0.046 -0.46,-0.115 -0.677,-0.204 -0.196,-0.08 -0.383,-0.178 -0.56,-0.289 -0.177,-0.113 -0.343,-0.239 -0.495,-0.377l-0.121 -0.118c-0.168,-0.167 -0.319,-0.35 -0.452,-0.547 -0.132,-0.195 -0.245,-0.403 -0.336,-0.622 -0.089,-0.214 -0.159,-0.438 -0.205,-0.671 -0.045,-0.226 -0.069,-0.46 -0.069,-0.7l0 -1.332c0,-0.241 0.024,-0.476 0.069,-0.703 0.046,-0.232 0.116,-0.457 0.205,-0.672 0.092,-0.219 0.204,-0.428 0.336,-0.622 0.132,-0.196 0.284,-0.379 0.452,-0.545 0.169,-0.168 0.354,-0.318 0.551,-0.45 0.196,-0.13 0.406,-0.242 0.625,-0.332 0.217,-0.089 0.444,-0.158 0.678,-0.203 0.229,-0.045 0.466,-0.069 0.709,-0.069l1.342 0c0.242,0 0.478,0.024 0.706,0.069 0.234,0.046 0.46,0.114 0.676,0.203 0.22,0.091 0.43,0.203 0.627,0.333 0.197,0.131 0.38,0.28 0.547,0.445l0.012 0.012c0.166,0.166 0.318,0.349 0.449,0.545 0.131,0.194 0.244,0.402 0.335,0.619 0.089,0.214 0.158,0.439 0.204,0.671 0.046,0.226 0.07,0.46 0.07,0.7l0 1.331c0,0.24 -0.024,0.474 -0.07,0.701zm-18.598 -7.083c0.539,-0.999 1.15,-1.954 1.824,-2.856 0.718,-0.959 1.509,-1.861 2.366,-2.697 0.858,-0.837 1.78,-1.607 2.758,-2.303 0.971,-0.69 1.999,-1.308 3.075,-1.846 1.061,-0.53 2.169,-0.981 3.315,-1.346 1.125,-0.358 2.288,-0.633 3.483,-0.817 1.171,-0.181 2.37,-0.275 3.588,-0.275 1.547,0 3.058,0.151 4.52,0.438 1.499,0.294 2.946,0.732 4.327,1.3 1.407,0.578 2.744,1.29 3.996,2.121 1.265,0.84 2.442,1.8 3.513,2.863 1.072,1.062 2.039,2.23 2.886,3.485 0.837,1.242 1.556,2.569 2.139,3.964 0.547,1.313 0.976,2.687 1.272,4.11 0.288,1.383 0.45,2.813 0.475,4.277l0.001 0.016 -0.002 0.019 0 1.582 2.805 -2.782c0.058,-0.058 0.153,-0.058 0.211,0l1.119 1.11c0.057,0.058 0.058,0.151 0,0.209l-4.965 4.927c-0.059,0.058 -0.154,0.058 -0.211,0l-4.965 -4.927c-0.058,-0.057 -0.058,-0.151 0,-0.209l1.118 -1.11c0.059,-0.058 0.154,-0.058 0.212,0l2.804 2.781 0 -1.554c-0.005,-0.014 -0.007,-0.029 -0.008,-0.044 -0.023,-1.342 -0.173,-2.654 -0.439,-3.926 -0.272,-1.302 -0.666,-2.561 -1.168,-3.764 -0.536,-1.283 -1.196,-2.504 -1.965,-3.644 -0.776,-1.152 -1.664,-2.224 -2.649,-3.201 -0.985,-0.977 -2.065,-1.858 -3.226,-2.627 -1.15,-0.764 -2.38,-1.418 -3.674,-1.95 -1.268,-0.521 -2.598,-0.924 -3.977,-1.195 -1.342,-0.264 -2.729,-0.402 -4.149,-0.402 -1.122,0 -2.222,0.086 -3.294,0.251 -1.096,0.17 -2.166,0.423 -3.203,0.753 -1.054,0.335 -2.073,0.75 -3.048,1.236 -0.986,0.493 -1.929,1.06 -2.821,1.693 -0.9,0.641 -1.747,1.349 -2.534,2.116 -0.787,0.768 -1.515,1.598 -2.176,2.48 -0.619,0.828 -1.179,1.701 -1.671,2.613 -0.486,0.901 -0.908,1.84 -1.26,2.812l-0.002 0.007c-0.027,0.077 -0.112,0.119 -0.19,0.092l-1.498 -0.503c-0.078,-0.027 -0.119,-0.112 -0.091,-0.189 0.384,-1.066 0.846,-2.097 1.379,-3.088zm40.818 21.614c-0.538,1 -1.149,1.954 -1.824,2.857 -0.717,0.959 -1.509,1.86 -2.366,2.696 -0.858,0.837 -1.78,1.608 -2.758,2.303 -0.971,0.69 -1.999,1.308 -3.074,1.846 -1.061,0.53 -2.169,0.981 -3.315,1.346 -1.125,0.358 -2.289,0.633 -3.483,0.818 -1.172,0.18 -2.37,0.274 -3.589,0.274 -1.547,0 -3.058,-0.15 -4.52,-0.437 -1.498,-0.294 -2.946,-0.733 -4.326,-1.3 -1.407,-0.578 -2.745,-1.291 -3.997,-2.122 -1.265,-0.839 -2.442,-1.799 -3.513,-2.862 -1.072,-1.063 -2.039,-2.231 -2.886,-3.486 -0.837,-1.241 -1.556,-2.568 -2.138,-3.964 -0.572,-1.369 -1.014,-2.805 -1.311,-4.292 -0.289,-1.45 -0.441,-2.949 -0.441,-4.484l0 -1.222 -2.799 2.776c-0.059,0.058 -0.154,0.057 -0.212,0l-1.119 -1.11c-0.057,-0.058 -0.057,-0.151 0,-0.209l4.965 -4.927c0.058,-0.058 0.153,-0.058 0.211,0l4.966 4.926c0.058,0.058 0.058,0.152 0,0.21l-1.119 1.11c-0.058,0.058 -0.153,0.058 -0.211,0l-2.8 -2.777 0 1.223c0,1.408 0.139,2.785 0.405,4.116 0.273,1.368 0.68,2.688 1.205,3.945 0.536,1.284 1.196,2.504 1.965,3.645 0.776,1.151 1.664,2.223 2.649,3.2 0.985,0.977 2.066,1.858 3.226,2.628 1.15,0.763 2.38,1.418 3.675,1.95 1.267,0.52 2.597,0.923 3.976,1.194 1.342,0.264 2.73,0.403 4.149,0.403 1.123,0 2.223,-0.087 3.294,-0.252 1.097,-0.17 2.167,-0.423 3.204,-0.752 1.053,-0.336 2.072,-0.75 3.047,-1.237 0.986,-0.493 1.929,-1.06 2.821,-1.694 0.9,-0.64 1.748,-1.347 2.534,-2.115 0.788,-0.768 1.516,-1.598 2.176,-2.48 0.62,-0.827 1.179,-1.701 1.672,-2.613 0.486,-0.9 0.908,-1.84 1.26,-2.811l0.002 -0.007c0.027,-0.078 0.111,-0.119 0.19,-0.093l1.498 0.503c0.078,0.028 0.118,0.113 0.091,0.19 -0.384,1.066 -0.846,2.097 -1.38,3.087zm-26.405 -2.485l10.364 -17.992c0.041,-0.071 0.133,-0.096 0.204,-0.055l1.372 0.778c0.072,0.041 0.097,0.131 0.056,0.202l-10.364 17.993c-0.041,0.071 -0.132,0.095 -0.204,0.055l-1.372 -0.778c-0.071,-0.041 -0.096,-0.132 -0.056,-0.203zm16.265 -2.723c-0.046,0.232 -0.115,0.457 -0.205,0.672 -0.081,0.194 -0.179,0.38 -0.292,0.555 -0.112,0.175 -0.239,0.34 -0.378,0.491l-0.121 0.121c-0.168,0.166 -0.352,0.317 -0.551,0.448 -0.197,0.131 -0.407,0.243 -0.627,0.333 -0.215,0.089 -0.442,0.158 -0.676,0.204 -0.228,0.045 -0.464,0.068 -0.706,0.068l-1.342 0c-0.243,0 -0.481,-0.023 -0.71,-0.068 -0.234,-0.046 -0.461,-0.115 -0.677,-0.204 -0.443,-0.181 -0.842,-0.449 -1.177,-0.781 -0.167,-0.166 -0.319,-0.349 -0.453,-0.547 -0.131,-0.195 -0.243,-0.402 -0.334,-0.62 -0.09,-0.215 -0.159,-0.44 -0.205,-0.672 -0.045,-0.227 -0.069,-0.463 -0.069,-0.704l0 -1.332c0,-0.241 0.024,-0.476 0.069,-0.703 0.046,-0.233 0.115,-0.458 0.205,-0.673 0.091,-0.218 0.203,-0.425 0.334,-0.619 0.131,-0.194 0.28,-0.374 0.444,-0.538l0.009 -0.01c0.168,-0.167 0.352,-0.317 0.55,-0.448 0.196,-0.13 0.406,-0.242 0.627,-0.333 0.216,-0.089 0.443,-0.157 0.677,-0.203 0.229,-0.045 0.467,-0.069 0.71,-0.069l1.342 0c0.242,0 0.478,0.024 0.706,0.069 0.235,0.046 0.461,0.114 0.677,0.203 0.219,0.091 0.429,0.203 0.626,0.333 0.195,0.13 0.377,0.278 0.543,0.441 0.033,0.031 0.097,0.089 0.123,0.122 0.142,0.155 0.271,0.321 0.385,0.498 0.113,0.175 0.21,0.361 0.291,0.554 0.09,0.215 0.159,0.441 0.205,0.673 0.045,0.227 0.069,0.463 0.069,0.703l0 1.332c0,0.241 -0.024,0.476 -0.069,0.704zm-2.017 0.108c0.027,-0.05 0.051,-0.1 0.072,-0.151 0.043,-0.103 0.076,-0.212 0.099,-0.325 0.022,-0.109 0.034,-0.222 0.034,-0.336l0 -1.332c0,-0.114 -0.012,-0.226 -0.034,-0.335 -0.022,-0.111 -0.055,-0.218 -0.096,-0.318l-0.003 -0.007c-0.022,-0.052 -0.046,-0.103 -0.072,-0.151 -0.025,-0.047 -0.051,-0.092 -0.079,-0.134 -0.02,-0.026 -0.031,-0.058 -0.031,-0.089l-0.194 -0.191c-0.08,-0.079 -0.169,-0.151 -0.265,-0.214 -0.095,-0.063 -0.196,-0.116 -0.302,-0.159 -0.104,-0.043 -0.214,-0.076 -0.328,-0.098 -0.11,-0.022 -0.224,-0.033 -0.34,-0.033l-1.342 0c-0.116,0 -0.229,0.011 -0.339,0.033 -0.114,0.023 -0.224,0.056 -0.328,0.098 -0.105,0.044 -0.206,0.097 -0.301,0.16 -0.093,0.062 -0.18,0.132 -0.258,0.208l-0.007 0.007c-0.081,0.08 -0.153,0.168 -0.216,0.261 -0.064,0.095 -0.118,0.196 -0.162,0.301 -0.043,0.103 -0.076,0.212 -0.099,0.326 -0.022,0.109 -0.034,0.221 -0.034,0.335l0 1.332c0,0.114 0.012,0.227 0.034,0.336 0.023,0.114 0.056,0.222 0.099,0.325 0.044,0.106 0.099,0.206 0.162,0.301 0.062,0.092 0.132,0.178 0.208,0.254l0.008 0.007c0.08,0.08 0.168,0.152 0.263,0.215 0.096,0.062 0.197,0.117 0.303,0.16 0.104,0.042 0.214,0.076 0.328,0.098 0.11,0.022 0.223,0.033 0.339,0.033l1.342 0c0.116,0 0.23,-0.011 0.34,-0.032 0.114,-0.023 0.224,-0.056 0.328,-0.098 0.106,-0.043 0.207,-0.097 0.302,-0.16 0.096,-0.062 0.185,-0.134 0.265,-0.214l0.194 -0.191c0.001,-0.027 0.009,-0.054 0.025,-0.078 0.029,-0.045 0.058,-0.093 0.085,-0.144zm-12.168 -9.17c0.064,-0.094 0.118,-0.194 0.161,-0.299 0.043,-0.103 0.076,-0.213 0.099,-0.326 0.021,-0.109 0.033,-0.222 0.033,-0.337l0 -1.331c0,-0.116 -0.012,-0.229 -0.033,-0.338 -0.023,-0.113 -0.056,-0.222 -0.099,-0.325 -0.086,-0.207 -0.208,-0.392 -0.359,-0.546 -0.009,-0.006 -0.018,-0.014 -0.025,-0.023 -0.08,-0.078 -0.166,-0.149 -0.258,-0.209 -0.095,-0.063 -0.196,-0.116 -0.301,-0.159 -0.104,-0.042 -0.213,-0.075 -0.328,-0.097 -0.11,-0.022 -0.224,-0.033 -0.341,-0.033l-1.342 0c-0.113,0 -0.224,0.011 -0.332,0.032l-0.006 0.001c-0.115,0.023 -0.224,0.056 -0.328,0.098 -0.106,0.044 -0.207,0.097 -0.301,0.16 -0.092,0.061 -0.179,0.131 -0.258,0.208l-0.007 0.009c-0.082,0.081 -0.155,0.169 -0.218,0.262 -0.063,0.093 -0.117,0.193 -0.16,0.298 -0.043,0.103 -0.077,0.212 -0.1,0.326 -0.022,0.109 -0.033,0.221 -0.033,0.335l0 1.332c0,0.115 0.011,0.228 0.033,0.337 0.023,0.113 0.056,0.223 0.099,0.325 0.043,0.105 0.097,0.206 0.16,0.3 0.064,0.095 0.136,0.184 0.216,0.263l0.184 0.184c0.026,0.001 0.052,0.009 0.076,0.025 0.048,0.032 0.098,0.062 0.15,0.089 0.049,0.027 0.103,0.052 0.159,0.075 0.104,0.043 0.213,0.076 0.328,0.099 0.109,0.021 0.223,0.033 0.338,0.033l1.342 0c0.114,0 0.225,-0.011 0.333,-0.032l0.006 -0.001c0.114,-0.023 0.224,-0.057 0.328,-0.099 0.049,-0.02 0.1,-0.044 0.152,-0.072 0.049,-0.025 0.096,-0.052 0.14,-0.08 0.024,-0.018 0.054,-0.028 0.083,-0.028l0.194 -0.193c0.079,-0.08 0.152,-0.168 0.215,-0.263z"/>
 </g>
</svg>
