<?xml version="1.0" encoding="UTF-8"?>
<!DOCTYPE svg PUBLIC "-//W3C//DTD SVG 1.1//EN" "http://www.w3.org/Graphics/SVG/1.1/DTD/svg11.dtd">
<!-- Creator: CorelDRAW 2017 -->
<svg xmlns="http://www.w3.org/2000/svg" xml:space="preserve" width="595px" height="842px" version="1.1" style="shape-rendering:geometricPrecision; text-rendering:geometricPrecision; image-rendering:optimizeQuality; fill-rule:evenodd; clip-rule:evenodd"
viewBox="0 0 595 841.5"
 xmlns:xlink="http://www.w3.org/1999/xlink">
 <defs>
  <style type="text/css">
   <![CDATA[
    .str0 {stroke:#205FAD;stroke-width:1.999;stroke-miterlimit:22.9256}
    .fil0 {fill:#205FAD}
    .fil1 {fill:white}
    .fil2 {fill:#205FAD;fill-rule:nonzero}
    .fil3 {fill:#FFE875;fill-rule:nonzero}
   ]]>
  </style>
 </defs>
 <g id="Слой_x0020_1">
  <metadata id="CorelCorpID_0Corel-Layer"/>
  <path class="fil0" d="M331.466 241.434c-20.807,0 -37.675,-16.733 -37.675,-37.374 0,-20.641 16.868,-37.374 37.675,-37.374 20.807,0 37.675,16.733 37.675,37.374 0,20.641 -16.868,37.374 -37.675,37.374z"/>
  <path class="fil1 str0" d="M361.546 161.471c6.742,0 12.208,5.422 12.208,12.11 0,6.689 -5.466,12.111 -12.208,12.111 -6.742,0 -12.208,-5.422 -12.208,-12.111 0,-6.688 5.466,-12.11 12.208,-12.11z"/>
  <path class="fil2" d="M362.669 177.984c0,0.308 -0.126,0.587 -0.329,0.788l-0.001 0c-0.204,0.201 -0.484,0.326 -0.793,0.326 -0.309,0 -0.59,-0.125 -0.793,-0.326l-0.001 0c-0.204,-0.201 -0.329,-0.48 -0.329,-0.788 0,-0.307 0.125,-0.585 0.329,-0.786l0 -0.002c0.203,-0.201 0.484,-0.326 0.794,-0.326 0.309,0 0.589,0.125 0.793,0.326l0.001 0c0.203,0.202 0.329,0.48 0.329,0.788zm-1.123 -1.748c-0.213,0 -0.406,-0.085 -0.545,-0.224 -0.139,-0.138 -0.226,-0.329 -0.226,-0.541 0,-0.663 0.236,-1.167 0.576,-1.583 0.317,-0.387 0.71,-0.676 1.079,-0.946 0.625,-0.46 1.164,-0.857 1.164,-1.6 0,-0.514 -0.201,-0.947 -0.546,-1.25 -0.36,-0.315 -0.88,-0.498 -1.502,-0.498 -0.611,0 -1.126,0.207 -1.483,0.561 -0.357,0.354 -0.565,0.865 -0.565,1.471 0,0.211 -0.087,0.402 -0.226,0.541 -0.14,0.138 -0.333,0.223 -0.545,0.223 -0.211,0 -0.404,-0.085 -0.544,-0.223l-0.001 -0.002c-0.14,-0.139 -0.226,-0.33 -0.226,-0.539 0,-1.026 0.379,-1.915 1.019,-2.55 0.64,-0.635 1.537,-1.011 2.571,-1.011 1.026,0 1.917,0.341 2.556,0.917 0.649,0.586 1.034,1.409 1.034,2.36 0,0.759 -0.252,1.325 -0.615,1.782 -0.343,0.433 -0.773,0.748 -1.175,1.044 -0.553,0.406 -1.029,0.757 -1.029,1.303 0,0.21 -0.087,0.401 -0.226,0.54l-0.001 0.001c-0.14,0.138 -0.333,0.224 -0.544,0.224z"/>
  <path class="fil3" d="M346.537 199.272l2.002 1.55 2.609 -0.839 1.454 2.305 2.738 0.097 0.571 2.657 2.54 1.019 -0.38 2.693 2.037 1.822 -1.285 2.4 1.285 2.4 -2.037 1.822 0.38 2.692 -2.54 1.02 -0.571 2.657 -2.738 0.096 -1.453 2.306 -2.61 -0.839 -2.159 1.671 -2.159 -1.671 -2.609 0.839 -1.454 -2.306 -2.738 -0.096 -0.571 -2.657 -2.54 -1.02 0.38 -2.692 -2.037 -1.822 1.285 -2.4 -1.285 -2.4 2.037 -1.822 -0.38 -2.693 2.54 -1.019 0.571 -2.657 2.738 -0.097 1.454 -2.305 2.609 0.839 2.159 -1.672 0.157 0.122zm-2.729 20.401l-5.775 -5.729 3.84 -3.809 2.57 2.549 7.067 -7.011 3.84 3.809c-3.634,3.608 -7.272,7.213 -10.907,10.82l-0.635 -0.629zm-3.234 -5.729l3.869 3.838 8.367 -8.299 -1.3 -1.29c-2.355,2.337 -4.713,4.673 -7.068,7.011l-2.569 -2.549 -1.299 1.289zm-12.916 -8.736l0 1.607 -0.038 0c-0.043,0.143 -0.121,0.271 -0.225,0.373 -0.163,0.162 -0.387,0.261 -0.633,0.261 -0.247,0 -0.471,-0.099 -0.633,-0.26 -0.162,-0.162 -0.263,-0.384 -0.263,-0.628l0 -1.353c0,-0.246 0.101,-0.468 0.263,-0.629 0.163,-0.161 0.387,-0.26 0.633,-0.26 0.247,0 0.471,0.099 0.633,0.26 0.162,0.162 0.263,0.384 0.263,0.629zm-3.576 -0.629c0.163,-0.16 0.387,-0.26 0.633,-0.26 0.247,0 0.471,0.099 0.634,0.26 0.161,0.161 0.262,0.383 0.262,0.629l0 1.353c0,0.245 -0.101,0.468 -0.262,0.628 -0.163,0.161 -0.387,0.26 -0.634,0.26 -0.247,0 -0.471,-0.099 -0.633,-0.26 -0.162,-0.161 -0.263,-0.383 -0.263,-0.628l0 -1.353c0,-0.246 0.101,-0.468 0.263,-0.629zm-0.517 0.629l0 1.353c0,0.244 -0.101,0.466 -0.264,0.627 -0.161,0.162 -0.385,0.261 -0.632,0.261 -0.248,0 -0.471,-0.099 -0.633,-0.26 -0.162,-0.161 -0.263,-0.383 -0.263,-0.628l0 -1.353c0,-0.246 0.101,-0.468 0.263,-0.629 0.163,-0.16 0.387,-0.26 0.633,-0.26 0.246,0 0.47,0.099 0.632,0.26 0.163,0.162 0.264,0.385 0.264,0.629zm-2.047 0l0 1.353c0,0.244 -0.1,0.466 -0.263,0.627 -0.161,0.162 -0.385,0.261 -0.633,0.261 -0.247,0 -0.471,-0.099 -0.633,-0.26 -0.161,-0.161 -0.262,-0.383 -0.262,-0.628l0 -1.353c0,-0.246 0.101,-0.468 0.262,-0.629 0.163,-0.16 0.387,-0.26 0.633,-0.26 0.246,0 0.47,0.099 0.633,0.26 0.163,0.162 0.263,0.385 0.263,0.629zm-4.52 1.353l0 -1.353c0,-0.246 0.101,-0.468 0.263,-0.629 0.163,-0.16 0.387,-0.26 0.632,-0.26 0.248,0 0.472,0.099 0.634,0.26 0.162,0.161 0.262,0.383 0.262,0.629l0 1.353c0,0.245 -0.1,0.468 -0.262,0.628 -0.163,0.161 -0.387,0.26 -0.634,0.26 -0.247,0 -0.471,-0.099 -0.632,-0.26 -0.162,-0.161 -0.263,-0.383 -0.263,-0.628zm-2.046 0l0 -1.353c0,-0.246 0.1,-0.468 0.262,-0.629 0.163,-0.16 0.387,-0.26 0.633,-0.26 0.246,0 0.47,0.099 0.633,0.26 0.163,0.162 0.263,0.385 0.263,0.629l0 1.353c0,0.244 -0.101,0.466 -0.263,0.627 -0.161,0.162 -0.386,0.261 -0.633,0.261 -0.247,0 -0.471,-0.099 -0.633,-0.26 -0.162,-0.161 -0.262,-0.383 -0.262,-0.628zm-2.046 0l0 -1.353c0,-0.246 0.1,-0.468 0.262,-0.629 0.163,-0.16 0.387,-0.26 0.633,-0.26 0.246,0 0.47,0.099 0.632,0.26 0.163,0.162 0.264,0.385 0.264,0.629l0 1.353c0,0.244 -0.101,0.466 -0.263,0.627 -0.162,0.162 -0.386,0.261 -0.633,0.261 -0.247,0 -0.471,-0.099 -0.633,-0.26 -0.162,-0.161 -0.262,-0.383 -0.262,-0.628zm-1.784 0.628c-0.162,-0.161 -0.263,-0.383 -0.263,-0.628l0 -1.353c0,-0.246 0.101,-0.468 0.263,-0.629 0.163,-0.16 0.387,-0.26 0.633,-0.26 0.247,0 0.471,0.099 0.633,0.26 0.162,0.161 0.263,0.383 0.263,0.629l0 1.353c0,0.244 -0.101,0.466 -0.263,0.627 -0.162,0.162 -0.386,0.261 -0.633,0.261 -0.247,0 -0.471,-0.099 -0.633,-0.26zm4.939 -8.283l1.151 0c0.129,0 0.246,-0.053 0.331,-0.137 0.085,-0.084 0.138,-0.2 0.138,-0.328l0 -0.466 -0.469 0c-0.246,0 -0.47,-0.099 -0.632,-0.26 -0.163,-0.16 -0.264,-0.383 -0.264,-0.628 0,-0.244 0.1,-0.466 0.263,-0.627 0.163,-0.162 0.387,-0.262 0.633,-0.262l0.469 0 0 -0.465c0,-0.128 -0.053,-0.244 -0.137,-0.328 -0.085,-0.084 -0.202,-0.136 -0.332,-0.136l-1.151 0 0 3.637zm-3.41 -0.931l0 0.466c0,0.128 0.052,0.245 0.137,0.329 0.085,0.084 0.202,0.136 0.331,0.136l1.151 0 0 -3.637 -1.151 0c-0.129,0 -0.246,0.052 -0.331,0.136 -0.085,0.084 -0.137,0.2 -0.137,0.328l0 0.467 0.468 0c0.247,-0.001 0.47,0.098 0.633,0.259 0.162,0.16 0.263,0.383 0.263,0.628 0,0.245 -0.101,0.468 -0.263,0.628 -0.161,0.161 -0.386,0.26 -0.633,0.26l-0.468 0zm6.821 -2.242l0 2.708c0,0.618 -0.254,1.178 -0.663,1.584 -0.41,0.406 -0.975,0.657 -1.597,0.657l-4.093 0c-0.622,0 -1.187,-0.251 -1.597,-0.657 -0.409,-0.406 -0.663,-0.966 -0.663,-1.584l0 -2.708c0,-0.616 0.254,-1.177 0.663,-1.583 0.409,-0.406 0.974,-0.658 1.597,-0.658l4.093 0c0.622,0 1.187,0.252 1.596,0.657 0.41,0.407 0.664,0.967 0.664,1.584zm-7.717 13.999l12.278 0c0.247,0 0.472,0.1 0.633,0.261 0.162,0.162 0.263,0.383 0.263,0.628 0,0.245 -0.101,0.467 -0.263,0.628 -0.161,0.16 -0.386,0.26 -0.633,0.26l-12.278 0c-0.247,0 -0.471,-0.1 -0.633,-0.26 -0.162,-0.162 -0.263,-0.384 -0.263,-0.628 0,-0.245 0.101,-0.468 0.263,-0.628 0.162,-0.161 0.386,-0.261 0.633,-0.261zm19.786 6.515l-21.832 0c-0.331,0 -0.655,-0.046 -0.963,-0.13 -0.316,-0.087 -0.616,-0.215 -0.892,-0.379 -0.018,-0.009 -0.036,-0.023 -0.053,-0.032 -0.091,-0.056 -0.177,-0.114 -0.258,-0.174 -0.088,-0.066 -0.169,-0.132 -0.243,-0.197 -0.053,-0.047 -0.103,-0.094 -0.149,-0.139l-0.004 -0.004c-0.072,-0.071 -0.147,-0.153 -0.222,-0.242 -0.072,-0.086 -0.139,-0.174 -0.201,-0.263 -0.016,-0.016 -0.069,-0.105 -0.085,-0.128 -0.179,-0.283 -0.32,-0.591 -0.414,-0.916 -0.091,-0.318 -0.141,-0.651 -0.141,-0.992l0 -21.654c0,-0.991 0.407,-1.889 1.063,-2.54 0.656,-0.652 1.563,-1.056 2.562,-1.056l36.835 0c0.504,0 0.985,0.104 1.423,0.29 0.455,0.193 0.862,0.476 1.198,0.826l0.068 0.073c0.042,0.046 0.084,0.095 0.127,0.147 0.044,0.055 0.085,0.107 0.119,0.154l0.101 0.146c0.068,0.108 0.134,0.212 0.19,0.325 0.129,0.249 0.23,0.516 0.297,0.793 0.066,0.273 0.102,0.556 0.102,0.842l0 8.689 -1.792 0 0 -8.689c0,-0.247 -0.049,-0.481 -0.138,-0.694 -0.093,-0.223 -0.23,-0.424 -0.399,-0.591 -0.17,-0.168 -0.372,-0.304 -0.596,-0.396 -0.215,-0.088 -0.451,-0.137 -0.7,-0.137l-36.835 0c-0.505,0 -0.963,0.203 -1.294,0.53 -0.332,0.328 -0.539,0.781 -0.54,1.281l0 21.661c0,0.247 0.05,0.482 0.139,0.695 0.093,0.222 0.228,0.421 0.396,0.588 0.072,0.07 0.136,0.123 0.215,0.183 0.074,0.052 0.136,0.091 0.215,0.135 0.131,0.07 0.272,0.126 0.42,0.162 0.143,0.036 0.293,0.055 0.449,0.055l22.088 0 0 1.778 -0.256 0zm16.554 -13.599l-1.715 -1.328 -1.822 1.411 -2.195 -0.706 -1.224 1.941 -2.309 0.082 -0.482 2.242 -2.142 0.86 0.32 2.269 -1.714 1.533 1.084 2.024 -1.084 2.024 1.714 1.533 -0.32 2.269 2.142 0.86 0.482 2.242 2.31 0.081 1.222 1.942 2.196 -0.706 1.822 1.411 1.822 -1.411 2.195 0.706 1.225 -1.942 2.308 -0.081 0.482 -2.242 2.142 -0.86 -0.321 -2.27 1.715 -1.532 -1.084 -2.025 1.083 -2.023 -1.714 -1.533 0.321 -2.269 -2.142 -0.86 -0.482 -2.242 -2.308 -0.082 -1.225 -1.941 -2.195 0.706 -0.107 -0.083z"/>
 </g>
</svg>
